<?xml version="1.0" standalone="no"?>
<!DOCTYPE svg PUBLIC "-//W3C//DTD SVG 1.1//EN" "http://www.w3.org/Graphics/SVG/1.1/DTD/svg11.dtd" >
<svg xmlns="http://www.w3.org/2000/svg">
<metadata></metadata>
<defs>
<font id="foglihtenno07regular" horiz-adv-x="1000" >
<font-face units-per-em="1000" ascent="773" descent="-227" />
<missing-glyph horiz-adv-x="266" />
<glyph unicode="As" horiz-adv-x="1130" d="M838 -8q-38 0 -74.5 8.5t-77.5 29.5t-77 63t-61 102h-396l-54 -124q-5 -12 -5 -23q0 -17 13 -28t35 -11h49v-9h-182v9h16q28 0 55 62l281 648h77v-12q0 -36 9 -58l182 -446q39 -95 89.5 -144t118.5 -49q84 0 135 40t51 106q0 18 -8.5 34t-20.5 27t-34 22t-39 17.5 t-45 16.5q-34 11 -54 19t-47.5 22.5t-42.5 30t-26.5 39t-11.5 51.5q0 73 54 117.5t143 44.5q74 0 133 -44q11 -8 16 -23l7 2q-2 8 -4 32l-3 53h10l11 -236l-18 -1l-2 42q-3 65 -41.5 111t-108.5 46q-61 0 -94 -31.5t-33 -90.5q0 -14 5 -26.5t16 -22.5t22 -18t29.5 -16 t33 -13.5t37.5 -13.5q24 -8 39.5 -13.5t37.5 -15.5t36.5 -19t30.5 -23t25.5 -28.5t15.5 -34t6 -41.5q0 -81 -71.5 -130.5t-187.5 -49.5zM160 213h381l-170 417q-8 18 -8 40h-9q0 -12 -12 -40z" />
<glyph unicode="R&#x7a;" horiz-adv-x="1147" d="M18 0v9h35q36 0 44.5 8.5t8.5 44.5v595q0 36 -8.5 44.5t-44.5 8.5h-35v9h261q120 0 193 -61t73 -161q0 -88 -68.5 -147.5t-163.5 -68.5l-20 -1v-6q49 -5 135 -95q24 -26 40 -41.5t45.5 -43t53.5 -45.5t58.5 -39.5t65.5 -34.5t70 -21.5t77 -8.5q54 0 121 30t117 94 q-48 -47 -123 -47q-32 0 -67 9t-57 19t-59 28.5t-52 25.5l-19 9l248 394q14 23 34 39.5t38 21.5v3h-203q-77 0 -109 -22.5t-36 -93.5l-1 -20l-7 1l11 212l7 -1l-3 -67q9 9 26 9h409v-9q-6 0 -17.5 -7.5t-28.5 -26.5t-33 -44l-257 -407q87 -25 146 -25q161 0 209 105l10 -4 q-20 -63 -55.5 -111t-75 -75t-85.5 -44t-81.5 -22.5t-68.5 -5.5q-44 0 -88.5 10.5t-80.5 26t-74 42t-64 47.5t-58 53.5t-48 50t-41 46.5q-37 43 -61.5 64.5t-43.5 21.5h-12v17h46q86 0 146.5 57.5t60.5 147.5q0 92 -51.5 148t-135.5 56h-104v-1q17 -17 17 -52v-586 q0 -36 9 -44.5t45 -8.5h58v-9h-278z" />
<glyph unicode="Ab" horiz-adv-x="1417" d="M160 213h381l-170 417q-8 18 -8 40h-9q0 -12 -12 -40zM1299 313q0 120 -55.5 193t-149.5 73q-109 0 -184.5 -83t-75.5 -201v-179h-8v34q0 37 -14.5 59.5t-37.5 22.5h-18v499q0 30 -30 30h-47v9h57q37 0 63.5 12.5t26.5 40.5v4h8v-85v-338q30 86 99 139.5t157 53.5 q135 0 215.5 -83t80.5 -219q0 -155 -120 -250t-317 -95q-81 0 -158 25.5t-143.5 82.5t-99.5 137h-396l-54 -124q-5 -12 -5 -23q0 -17 13 -28t35 -11h49v-9h-182v9h16q28 0 55 62l281 648h77v-12q0 -36 9 -58l182 -446q95 -231 327 -231q155 0 249.5 94t94.5 247z" />
<glyph unicode="Ro" horiz-adv-x="1230" d="M1196 88q-71 -61 -169.5 -98.5t-205.5 -37.5q-123 0 -243.5 53t-218.5 166l-21 25q-24 28 -36.5 41.5t-30.5 25.5t-34 12h-12v17h46q84 0 135.5 56.5t51.5 148.5q0 84 -55 144t-132 60h-104v-1q17 -17 17 -52v-586q0 -36 9 -44.5t45 -8.5h58v-9h-278v9h35q36 0 44.5 8.5 t8.5 44.5v595q0 36 -8.5 44.5t-44.5 8.5h-35v9h261q120 0 193 -61t73 -161q0 -86 -60 -146t-152 -70l-20 -1v-6q52 -6 109 -68q107 -120 222.5 -172t225.5 -52q57 0 112.5 13t97 33t68 36.5t43.5 30.5zM915 122q-114 0 -195 69.5t-81 168.5q0 70 34.5 124t97 83.5 t144.5 29.5q113 0 193.5 -69.5t80.5 -167.5q0 -71 -34 -125t-96.5 -83.5t-143.5 -29.5zM918 140q76 0 130 59t54 142q0 71 -23.5 125t-67 83.5t-100.5 29.5q-50 0 -92.5 -27t-67.5 -73t-25 -101q0 -107 53 -172.5t139 -65.5z" />
<glyph unicode="Ru" horiz-adv-x="1124" d="M596 589h245v-9h-44q-36 0 -44.5 -8.5t-8.5 -44.5v-269q0 -58 31 -88t90 -30q43 0 75 12t49 26.5t41 42.5v288q0 39 -11.5 55t-45.5 16h-37v9h175v-9h-16q-21 0 -34 -17t-13 -44v-305q-26 -31 -44.5 -47t-55 -30.5t-83.5 -14.5q-90 0 -144.5 47.5t-54.5 124.5v233 q0 36 -9 44.5t-45 8.5h-16v9zM18 0v9h35q36 0 44.5 8.5t8.5 44.5v595q0 36 -8.5 44.5t-44.5 8.5h-35v9h261q120 0 193 -61t73 -161q0 -86 -60 -146t-152 -70l-20 -1v-6q65 -7 108 -68q3 -4 9.5 -13t27 -31t43.5 -43.5t57.5 -46.5t71 -43.5t82.5 -31t93 -12.5q147 0 276 110 l22 19l5 -7l-22 -19q-156 -135 -327 -135q-211 0 -400 218l-21 25q-24 28 -36.5 41.5t-30.5 25.5t-34 12h-12v17h46q84 0 135.5 56.5t51.5 148.5q0 84 -55 144t-132 60h-104v-1q17 -17 17 -52v-586q0 -36 9 -44.5t45 -8.5h58v-9h-278z" />
<glyph unicode="Li" horiz-adv-x="740" d="M18 0v9h35q18 0 28.5 2.5t16 10t7 17.5t1.5 30v589q0 36 -8.5 44t-44.5 8h-35v9h235v-9h-15q-36 0 -45 -8t-9 -44v-587q0 -30 -22 -52v-1h346q80 0 121.5 24t46.5 91l7 93q-21 -30 -54.5 -47t-72.5 -17q-80 0 -129 39t-49 103v217q0 30 -30 30h-42v9h52q37 0 63.5 12.5 t26.5 40.5v4h8v-85v-254q0 -44 27.5 -71t72.5 -27q56 0 95.5 37t39.5 89q0 48 -35 81.5t-85 33.5q-19 0 -32 12.5t-13 30.5h20q67 0 115 -46.5t48 -111.5l-25 -357l-10 1l4 59h-1q-9 -9 -27 -9h-632zM416 800q13 0 23 -5t15.5 -15t5.5 -24q0 -13 -5 -23t-15 -16t-24 -6 q-20 0 -32.5 12t-12.5 33q0 20 12 32t33 12z" />
<glyph unicode="Ko" horiz-adv-x="1230" d="M915 122q-114 0 -195 69.5t-81 168.5q0 107 76 172t200 65q113 0 193.5 -69.5t80.5 -167.5q0 -107 -75.5 -172.5t-198.5 -65.5zM918 140q76 0 130 59t54 142q0 107 -52.5 172.5t-138.5 65.5q-77 0 -131 -59t-54 -142q0 -107 53 -172.5t139 -65.5zM1196 88 q-61 -53 -157 -94.5t-197 -41.5q-51 0 -97.5 11t-82.5 25.5t-73 42t-61 49.5t-54.5 59t-46.5 58.5t-43 60.5q-24 35 -37.5 53t-35 43t-37 37.5t-36.5 22t-42 9.5h-12v-352q0 -42 9 -52t45 -10h35v-9h-255v9h35q36 0 44.5 10t8.5 52v586q0 36 -8.5 44.5t-44.5 8.5h-35v9h229 v-9h-9q-36 0 -45 -8.5t-9 -42.5v-227q54 0 65 14l158 199q18 22 18 38q0 27 -52 27h-9v9h226v-9h-17q-38 0 -78 -16.5t-69 -52.5l-159 -201l1 -4q34 -8 64 -25.5t58.5 -48t47 -54.5t48.5 -67q24 -34 38.5 -54t40.5 -50.5t46.5 -49t51.5 -41t61.5 -34.5t70.5 -20.5t83 -8.5 q54 0 108 13.5t95 33.5t67.5 36t42.5 29z" />
<glyph unicode="Ku" horiz-adv-x="1146" d="M1040 221v288q0 39 -11.5 55t-45.5 16h-37v9h185v-9h-16q-34 0 -45.5 -16t-11.5 -55v-295q-42 -49 -82.5 -70.5t-100.5 -21.5q-90 0 -144.5 47.5t-54.5 124.5v233q0 36 -9 44.5t-45 8.5h-31v9h260v-9h-44q-36 0 -44.5 -8.5t-8.5 -44.5v-269q0 -58 31 -88t90 -30 q55 0 91 18t74 63zM196 423h-12v-352q0 -41 9 -51.5t45 -10.5h35v-9h-255v9h35q36 0 44.5 10t8.5 52v586q0 36 -8.5 44.5t-44.5 8.5h-35v9h229v-9h-9q-36 0 -45 -8.5t-9 -44.5v-225q54 0 65 14l158 199q18 22 18 38q0 27 -52 27h-9v9h216v-9h-7q-38 0 -78 -16.5t-69 -52.5 l-159 -201l1 -4q27 -6 50.5 -20t41 -31t35.5 -43.5t30 -47.5t28 -54t28 -54t31 -50.5t37 -49t44 -41t54 -33.5t65 -20.5t79 -8.5q159 0 290 112l22 19l5 -7l-22 -19q-157 -136 -334 -136q-39 0 -74.5 6.5t-63.5 16t-55 26.5t-46.5 32t-40 39.5t-33.5 42t-30 46t-25.5 45.5 t-23.5 46q-18 36 -28 54.5t-27 45t-31.5 39t-34.5 22.5t-43 10z" />
<glyph unicode="Ra" horiz-adv-x="1144" d="M987 384v64q0 64 -29 98t-84 34q-48 0 -84 -18t-55 -49t-21 -70l-3 -22h-18l11 196h10l-3 -53q-2 -24 -4 -32l7 -2q5 15 16 23q59 44 143 44q95 0 144.5 -41.5t49.5 -120.5v-284q0 -31 5.5 -41t27.5 -10q3 0 9.5 0.5t10.5 0.5l17 1l1 -9q-62 -6 -111 -22v8 q0 25 -9.5 82.5t-9.5 72.5h-10q-40 -162 -168 -162q-85 0 -137 39.5t-52 104.5q0 76 73.5 122t194.5 46h78zM987 366h-73q-84 0 -135 -41.5t-51 -108.5q0 -53 31.5 -85t82.5 -32q58 0 101.5 53.5t43.5 153.5v60zM18 0v9h35q36 0 44.5 8.5t8.5 44.5v595q0 36 -8.5 44.5 t-44.5 8.5h-35v9h261q120 0 193 -61t73 -161q0 -88 -68.5 -147.5t-163.5 -68.5l-20 -1v-6q19 -2 43 -16.5t42 -30.5t50 -47l17 -17q31 -30 49.5 -47t53.5 -47.5t65 -48.5t68 -37.5t78.5 -28.5t82.5 -9q131 0 261 41l28 9l2 -9l-27 -9q-202 -64 -330 -64q-43 0 -85.5 10 t-76.5 24t-71.5 39t-62.5 45t-57.5 51.5t-48 48.5t-41.5 46q-7 8 -11 12q-28 31 -42 45.5t-32 27.5t-31 13h-12v17h46q86 0 146.5 57.5t60.5 147.5q0 92 -51.5 148t-135.5 56h-104v-1q17 -17 17 -52v-586q0 -36 9 -44.5t45 -8.5h58v-9h-278z" />
<glyph unicode="Rs" horiz-adv-x="1082" d="M18 0v9h35q36 0 44.5 8.5t8.5 44.5v595q0 36 -8.5 44.5t-44.5 8.5h-35v9h261q120 0 193 -58.5t73 -153.5q0 -89 -59.5 -143t-152.5 -63l-20 -1v-6q18 -2 37 -10.5t42 -26t40 -32.5t45 -41q5 -5 15 -14q28 -27 43.5 -41t44 -37.5t50 -36.5t49.5 -27.5t56 -21t57 -6.5 q81 0 131.5 44.5t50.5 111.5q0 32 -24.5 56t-61 37t-79 30t-79 33.5t-61 48t-24.5 74.5q0 73 54 117.5t143 44.5q74 0 133 -44q11 -8 16 -23l7 2q-2 8 -4 32l-3 53h10l11 -236l-18 -1l-2 42q-2 42 -18 76.5t-50.5 57.5t-81.5 23q-61 0 -94 -31.5t-33 -90.5q0 -35 34.5 -60 t83.5 -41.5t98 -36t83.5 -56.5t34.5 -91q0 -82 -75.5 -136t-195.5 -54q-37 0 -73 5.5t-65.5 14t-61.5 23.5t-54.5 27t-50.5 33t-44 34.5t-40.5 36.5t-35 33.5t-31.5 32.5q-37 38 -58 55.5t-37 17.5h-7v17h51q91 0 139 50t48 145t-48 144.5t-139 49.5h-104v-1q17 -17 17 -52 v-586q0 -36 9 -44.5t45 -8.5h58v-9h-278z" />
<glyph unicode="Mi" horiz-adv-x="1189" d="M9 0v9h16q34 0 48 16t14 55v577q0 31 -8.5 42t-40.5 11h-40v9h149l284 -573q15 -30 15 -43h5q0 14 14 43l279 573h149v-9h-30q-36 0 -45.5 -15t-9.5 -56v-500q0 -86 50.5 -138.5t133.5 -52.5q49 0 83.5 31.5t34.5 76.5q0 40 -25 66t-67 29h-91v9h35q36 0 44.5 8t8.5 44 v309q0 30 -30 30h-47v9h57q37 0 63.5 12.5t26.5 40.5v4h8v-85v-320q0 -36 9 -44t45 -8h35v-9h-125q29 -12 45.5 -37t16.5 -58q0 -57 -44.5 -97t-107.5 -40q-107 0 -172 72.5t-65 190.5v410q0 33 1 44h-7q-2 -6 -17 -41l-289 -599l-3 -7h-2l-3 7l-290 588q-13 29 -13 42h-4 q1 -9 1 -34v-522q0 -33 14 -47t48 -14h36v-9h-193zM1048 800q20 0 32 -11.5t12 -32.5q0 -20 -11.5 -32.5t-32.5 -12.5q-20 0 -32.5 12t-12.5 33q0 20 12 32t33 12z" />
<glyph unicode="Mn" horiz-adv-x="1546" d="M9 0v9h16q34 0 48 16t14 55v577q0 31 -8.5 42t-40.5 11h-40v9h149l284 -573q15 -30 15 -43h5q0 14 14 43l279 573h149v-9h-30q-36 0 -45.5 -15t-9.5 -56v-500q0 -57 23 -100.5t64.5 -67t96.5 -23.5q49 0 83.5 31.5t34.5 76.5q0 40 -25 66t-67 29h-91v9h35q19 0 28.5 1.5 t15.5 7.5t7.5 15.5t1.5 28.5v289q0 9 -4 16.5t-11.5 11.5t-17.5 4h-4l-59 -5l-1 6l77 16q32 6 53 25t21 48v4h8v-131q0 -87 -2 -105h7q3 27 16 65q22 64 71.5 102t111.5 38q80 0 124 -41t44 -110v-384q0 -36 8.5 -44.5t44.5 -8.5h36v-9h-255v9h97v2q-9 9 -9 26v392 q0 151 -98 151q-78 0 -129 -68t-51 -176v-123q0 -36 9 -44.5t45 -8.5h35v-9h-125q29 -12 45.5 -37t16.5 -58q0 -57 -44.5 -97t-107.5 -40q-107 0 -172 73.5t-65 193.5v406q0 33 1 44h-7q-2 -6 -17 -41l-289 -599l-3 -7h-2l-3 7l-290 588q-13 29 -13 42h-4q1 -9 1 -34v-522 q0 -33 14 -47t48 -14h36v-9h-193z" />
<glyph unicode="li" horiz-adv-x="517" d="M160 742v-558q0 -79 44 -127.5t116 -48.5q49 0 83.5 31.5t34.5 76.5q0 40 -25 66t-67 29h-81v9h25q36 0 44.5 8t8.5 44v249q0 30 -30 30h-47v9h57q37 0 63.5 12.5t26.5 40.5v4h8v-85v-260q0 -36 9 -44t45 -8h35v-9h-125q29 -12 45.5 -37t16.5 -58q0 -28 -12 -53.5 t-32.5 -43.5t-48.5 -29t-59 -11q-96 0 -154.5 70t-58.5 184v498q0 30 -30 30h-47v9h57q37 0 63.5 12.5t26.5 40.5v4h8v-85zM381 800q13 0 23 -5t15.5 -15t5.5 -24q0 -13 -5 -23t-15 -16t-24 -6q-20 0 -32.5 12t-12.5 33q0 20 12 32t33 12z" />
<glyph unicode="lk" horiz-adv-x="855" d="M82 233v498q0 30 -30 30h-47v9h57q23 0 42 4.5t33.5 17t14.5 31.5v4h8v-85v-558q0 -79 46.5 -127.5t123.5 -48.5q49 0 83.5 31.5t34.5 76.5q0 40 -25 66t-67 29h-81v9h25q36 0 44.5 8t8.5 44v459q0 30 -30 30h-47v9h57q37 0 63.5 12.5t26.5 40.5v4h8v-85v-420q54 0 65 14 l158 179q18 20 18 38q0 27 -52 27h-9v9h221v-9h-12q-84 0 -145 -69l-160 -181v-4q45 -10 77.5 -26.5t50.5 -33t29.5 -41.5t15.5 -43.5t8 -46.5q8 -63 27 -92.5t61 -29.5q23 0 49 20l12 10l6 -7l-12 -10q-41 -37 -82 -37q-67 0 -97 40.5t-45 125.5q-5 29 -9.5 47t-16.5 41.5 t-29 37t-46.5 23t-70.5 9.5h-12v-41q0 -33 14 -84q12 -45 12 -72q0 -57 -44.5 -97t-107.5 -40q-100 0 -161.5 70t-61.5 184z" />
<glyph unicode="ln" horiz-adv-x="884" d="M82 243v488q0 30 -30 30h-47v9h57q37 0 63.5 12.5t26.5 40.5v4h8v-85v-548q0 -84 47 -135t123 -51q49 0 83.5 31.5t34.5 76.5q0 20 -6.5 37t-18.5 29t-29 19.5t-38 9.5h-91v9h35q36 0 44.5 8t8.5 44v230q0 14 -9 23t-24 9h-4l-59 -5l-1 6l77 16q32 6 53 25t21 48v4h8 v-131q0 -87 -2 -105h7q3 27 16 65q22 64 71.5 102t111.5 38q80 0 124 -41t44 -110v-384q0 -36 8.5 -44.5t44.5 -8.5h36v-9h-255v9h97v2q-9 9 -9 26v392q0 151 -98 151q-78 0 -129 -68t-51 -176v-64q0 -33 14 -84q12 -45 12 -72q0 -57 -44.5 -97t-107.5 -40 q-100 0 -161.5 72.5t-61.5 191.5z" />
<glyph unicode="lm" horiz-adv-x="1139" d="M82 243v488q0 30 -30 30h-47v9h57q23 0 42 4.5t33.5 17t14.5 31.5v4h8v-85v-548q0 -55 21 -97.5t60 -65.5t89 -23q49 0 83.5 31.5t34.5 76.5q0 26 -11.5 47t-32 33.5t-48.5 14.5h-91v9h35q36 0 44.5 8t8.5 44v230q0 14 -9 23t-24 9h-4l-59 -5l-1 6l77 16q70 14 70 73v4h8 v-131q0 -72 -2 -92h9q6 42 16 69q47 123 158 123q73 0 103 -35t30 -97v-60h4q1 22 10.5 52.5t14.5 40.5q52 99 148 99q67 0 108 -35t41 -98v-402q0 -36 9 -44.5t45 -8.5h26v-9h-225v9h76v2q-9 9 -9 26v418q0 59 -22 92t-58 33q-68 0 -110 -63.5t-42 -167.5v-287 q0 -36 9 -44.5t45 -8.5h26v-9h-216v9h67v2q-9 9 -9 26v418q0 59 -22 92t-58 33q-68 0 -110 -63.5t-42 -167.5v-77q0 -33 14 -84q12 -45 12 -72q0 -57 -44.5 -97t-107.5 -40q-100 0 -161.5 72.5t-61.5 191.5z" />
<glyph unicode="ko" horiz-adv-x="1231" d="M915 122q-114 0 -195 69.5t-81 168.5q0 107 76 172t200 65q113 0 193.5 -69.5t80.5 -167.5q0 -107 -75.5 -172.5t-198.5 -65.5zM918 140q76 0 130 59t54 142q0 107 -52.5 172.5t-138.5 65.5q-77 0 -131 -59t-54 -142q0 -107 53 -172.5t139 -65.5zM18 0v9h35q36 0 44.5 8 t8.5 44v670q0 30 -30 30h-47v9h57q23 0 42 4.5t33.5 17t14.5 31.5v4h8v-85v-420q70 0 82 15l141 178q18 22 18 38q0 27 -52 27h-9v9h226v-9h-17q-38 0 -78 -16t-69 -53l-143 -181l1 -4q28 -4 70.5 -35.5t72.5 -64.5q112 -124 226.5 -184t216.5 -60q57 0 112.5 13t97 33 t68 36.5t43.5 30.5l5 -7q-70 -61 -169 -98t-206 -37q-118 0 -240.5 61t-221.5 177l-21 25q-33 39 -72 68t-70 29h-12v-252q0 -36 9 -44t45 -8h35v-9h-255z" />
<glyph unicode="mu" horiz-adv-x="1411" d="M1307 221v288q0 39 -11.5 55t-45.5 16h-37v9h185v-9h-16q-34 0 -45.5 -16t-11.5 -55v-295q-42 -49 -82.5 -70.5t-100.5 -21.5q-90 0 -144.5 47.5t-54.5 124.5v233q0 36 -9 44.5t-45 8.5h-26v9h255v-9h-44q-36 0 -44.5 -8.5t-8.5 -44.5v-269q0 -58 31 -88t90 -30 q55 0 91 18t74 63zM18 0v9h35q36 0 44.5 8.5t8.5 44.5v440q0 14 -9 23t-24 9h-4l-59 -5l-1 6l77 16q21 4 36 13t24.5 24.5t9.5 35.5v4h8v-131q0 -72 -2 -92h9q6 42 16 69q47 123 158 123q38 0 65 -10t41 -28.5t20.5 -41.5t6.5 -52v-60h4q1 22 10.5 52.5t14.5 40.5 q26 49 61 74t87 25q44 0 77 -15t52.5 -45.5t19.5 -72.5v-206q0 -146 75.5 -223t218.5 -77q78 0 148.5 36t103.5 104l8 -6q-35 -71 -105 -107.5t-156 -36.5q-167 0 -269 85.5t-102 224.5v197q0 59 -22 92t-58 33q-68 0 -110 -63.5t-42 -167.5v-287q0 -36 9 -44.5t45 -8.5h26 v-9h-216v9h67v2q-9 9 -9 26v418q0 59 -22 92t-58 33q-34 0 -62 -16.5t-48 -46.5t-31 -73t-11 -95v-287q0 -36 9 -44.5t45 -8.5h35v-9h-255z" />
<glyph unicode="mi" horiz-adv-x="1181" d="M949 -21q-100 0 -161.5 72.5t-61.5 191.5v212q0 59 -22 92t-58 33q-68 0 -110 -63.5t-42 -167.5v-287q0 -36 9 -44.5t45 -8.5h26v-9h-216v9h67v2q-9 9 -9 26v418q0 59 -22 92t-58 33q-34 0 -62 -16.5t-48 -46.5t-31 -73t-11 -95v-287q0 -36 9 -44.5t45 -8.5h35v-9h-255v9 h35q36 0 44.5 8.5t8.5 44.5v440q0 14 -9 23t-24 9h-4l-59 -5l-1 6l77 16q70 14 70 73v4h8v-131q0 -72 -2 -92h9q6 42 16 69q47 123 158 123q73 0 103 -35t30 -97v-60h4q1 22 10.5 52.5t14.5 40.5q52 99 148 99q67 0 108 -35t41 -98v-270q0 -84 47 -135t123 -51 q49 0 83.5 31.5t34.5 76.5q0 40 -25 66t-67 29h-81v9h35q36 0 44.5 8t8.5 44v249q0 30 -30 30h-47v9h57q37 0 63.5 12.5t26.5 40.5v4h8v-85v-260q0 -36 9 -44t45 -8h35v-9h-135q29 -12 45.5 -37t16.5 -58q0 -37 -20.5 -68.5t-55.5 -50t-76 -18.5zM1051 820q20 0 32 -11.5 t12 -32.5q0 -13 -5 -23t-15 -16t-24 -6q-20 0 -32.5 12t-12.5 33q0 20 12 32t33 12z" />
<glyph unicode="ks" horiz-adv-x="1077" d="M13 0v9h35q36 0 44.5 8t8.5 44v670q0 30 -30 30h-47v9h57q23 0 42 4.5t33.5 17t14.5 31.5v4h8v-85v-420q54 0 65 14l158 179q18 20 18 38q0 27 -52 27h-9v9h226v-9h-17q-84 0 -145 -69l-160 -181v-4q49 -6 105 -40.5t104 -81.5q7 -8 36.5 -37t42.5 -41.5t41 -37.5 t47.5 -37t46 -27t52.5 -21t52 -6q80 0 129.5 46t49.5 113q0 19 -8.5 34.5t-20.5 26.5t-34 22t-39 17.5t-46 16.5q-33 11 -53 19t-47.5 23t-42.5 30t-26.5 38.5t-11.5 51.5q0 73 54 117.5t143 44.5q74 0 133 -44q11 -8 16 -23l7 2q-2 8 -4 32l-3 53h10l11 -236l-18 -1l-2 42 q-2 42 -18 76.5t-50.5 57.5t-81.5 23q-61 0 -94 -31.5t-33 -90.5q0 -17 8 -31.5t19.5 -24.5t33 -20.5t38 -17t43.5 -15.5q35 -12 56 -20.5t50 -24.5t45.5 -32.5t28.5 -42t12 -56.5q0 -83 -74 -138t-194 -55q-44 0 -87.5 9.5t-77.5 22.5t-71 36.5t-61.5 41.5t-55.5 48t-46 46 t-41 44q-9 10 -14 15q-65 71 -100 71h-43v-252q0 -36 9 -44t45 -8h35v-9h-255z" />
<glyph unicode="ki" horiz-adv-x="922" d="M13 0v9h35q36 0 44.5 8t8.5 44v670q0 30 -30 30h-47v9h57q23 0 42 4.5t33.5 17t14.5 31.5v4h8v-85v-440q54 0 65 14l158 199q18 22 18 38q0 27 -52 27h-9v9h226v-9h-17q-38 0 -78 -16.5t-69 -52.5l-159 -201l1 -4q49 -6 104 -42t99 -85q17 -19 41.5 -53t44 -58t46 -49.5 t61 -38.5t76.5 -13q45 0 76.5 28.5t31.5 69t-25 66.5t-67 29h-91v9h35q20 0 29 1t15.5 7t7.5 15.5t1 28.5v300q0 30 -30 30h-47v9h57q37 0 63.5 12.5t26.5 40.5v4h8v-85v-311q0 -36 9 -44t45 -8h35v-9h-125q19 -8 33 -21.5t21.5 -32.5t7.5 -41q0 -53 -41.5 -90t-100.5 -37 q-54 0 -101.5 15t-80.5 37.5t-65 55.5t-52.5 61t-46 62.5t-42.5 52.5q-65 71 -100 71h-43v-232q0 -36 9 -44t45 -8h35v-9h-255zM786 820q13 0 23 -5t15.5 -15t5.5 -24q0 -13 -5 -23t-15 -16t-24 -6q-20 0 -32.5 12t-12.5 33q0 20 12 32t33 12z" />
<glyph unicode="nu" horiz-adv-x="1147" d="M1043 221v288q0 39 -11.5 55t-45.5 16h-37v9h185v-9h-16q-34 0 -45.5 -16t-11.5 -55v-295q-42 -49 -82.5 -70.5t-100.5 -21.5q-90 0 -144.5 47.5t-54.5 124.5v233q0 36 -9 44.5t-45 8.5h-26v9h255v-9h-44q-36 0 -44.5 -8.5t-8.5 -44.5v-269q0 -58 31 -88t90 -30 q55 0 91 18t74 63zM18 0v9h35q19 0 28.5 1.5t15.5 7.5t7.5 15.5t1.5 28.5v440q0 14 -9 23t-24 9h-4l-59 -5l-1 6l77 16q32 6 53 25t21 48v4h8v-131q0 -87 -2 -105h7q3 27 16 65q22 64 71.5 102t111.5 38q80 0 124 -41t44 -110v-188q0 -146 75.5 -223t218.5 -77 q78 0 148.5 36t103.5 104l8 -6q-35 -71 -105 -107.5t-156 -36.5q-167 0 -269 85.5t-102 224.5v171q0 151 -98 151q-78 0 -129 -68t-51 -176v-274q0 -36 9 -44.5t45 -8.5h35v-9h-255z" />
<glyph unicode="ni" horiz-adv-x="917" d="M821 532v-260q0 -36 9 -44t45 -8h35v-9h-135q29 -12 45.5 -37t16.5 -58q0 -37 -20.5 -68.5t-55.5 -50t-76 -18.5q-100 0 -161.5 72.5t-61.5 191.5v186q0 75 -23.5 113t-74.5 38q-78 0 -129 -68t-51 -176v-274q0 -36 9 -44.5t45 -8.5h35v-9h-255v9h35q19 0 28.5 1.5 t15.5 7.5t7.5 15.5t1.5 28.5v440q0 14 -9 23t-24 9h-4l-59 -5l-1 6l77 16q21 4 37 13t26.5 24.5t10.5 35.5v4h8v-131q0 -87 -2 -105h7q3 27 16 65q22 64 71.5 102t111.5 38q80 0 124 -41t44 -110v-252q0 -84 46.5 -135t123.5 -51q49 0 83.5 31.5t34.5 76.5q0 40 -25 66 t-67 29h-81v9h35q36 0 44.5 8t8.5 44v249q0 30 -30 30h-47v9h57q37 0 63.5 12.5t26.5 40.5v4h8v-85zM781 820q20 0 32 -11.5t12 -32.5q0 -13 -5 -23t-15 -16t-24 -6q-20 0 -32.5 12t-12.5 33q0 20 12 32t33 12z" />
<glyph unicode="nk" horiz-adv-x="1250" d="M18 0v9h35q36 0 44.5 8.5t8.5 44.5v440q0 13 -9 22.5t-24 9.5h-4l-59 -5l-1 6l77 16q32 6 53 25t21 48v4h8v-131q0 -87 -2 -105h7q3 27 16 65q22 64 71.5 102t111.5 38q53 0 91 -19t57.5 -53t19.5 -79v-252q0 -55 22.5 -97.5t63.5 -65.5t94 -23q49 0 83.5 31.5t34.5 76.5 q0 20 -6.5 37t-18.5 29t-29 19.5t-38 9.5h-91v9h35q36 0 44.5 8t8.5 44v459q0 30 -30 30h-47v9h57q37 0 63.5 12.5t26.5 40.5v4h8v-85v-420q54 0 65 14l158 179q18 20 18 38q0 27 -52 27h-9v9h221v-9h-12q-84 0 -145 -69l-160 -181v-4q45 -10 77.5 -26.5t50.5 -33 t29.5 -41.5t15.5 -43.5t8 -46.5q8 -63 27 -92.5t61 -29.5q23 0 49 20l12 10l6 -7l-12 -10q-41 -37 -82 -37q-67 0 -97 40.5t-45 125.5q-5 29 -9.5 47t-16.5 41.5t-29 37t-46.5 23t-70.5 9.5h-12v-41q0 -33 14 -84q12 -45 12 -72q0 -57 -44.5 -97t-107.5 -40 q-105 0 -169 72.5t-64 191.5v186q0 50 -10 83t-31.5 50.5t-56.5 17.5q-78 0 -129 -68t-51 -176v-274q0 -36 9 -44.5t45 -8.5h35v-9h-255z" />
<glyph unicode="eb" horiz-adv-x="1347" d="M41 298q0 135 83.5 217t220.5 82q119 0 192 -65.5t73 -172.5v-5q0 -8 -4 -14.5t-11 -10.5t-16 -4h-453v-3q0 -111 70 -196t198.5 -131.5t296.5 -46.5q157 0 277 48t185.5 135.5t65.5 201.5q0 111 -51 178.5t-134 67.5q-108 0 -179 -82.5t-71 -201.5v-113h-18 q-23 0 -37.5 -28t-14.5 -74v-34h-8v61v624q0 30 -30 30h-47v9h57q37 0 63.5 12.5t26.5 40.5v4h8v-85v-334q29 85 94.5 137t151.5 52q124 0 200 -77.5t76 -204.5q0 -173 -170 -279t-449 -106q-291 0 -468.5 101t-177.5 267zM127 343q66 1 196.5 3.5t195.5 3.5q8 0 8 9 q0 99 -51 159.5t-135 60.5q-92 0 -150.5 -64.5t-63.5 -171.5z" />
<glyph unicode="cb" horiz-adv-x="1297" d="M714 404q20 56 57 99.5t89 68.5t110 25q135 0 215.5 -83t80.5 -219q0 -164 -163.5 -264.5t-431.5 -100.5q-288 0 -464 109.5t-176 288.5q0 121 84 195t222 74q91 0 166 -64q7 -7 11 -20l7 2q-2 10 -3 29l-2 73h9l9 -289l-18 -1l-3 93q-2 63 -57.5 111.5t-127.5 48.5 q-101 0 -154.5 -63.5t-53.5 -184.5q0 -173 151.5 -278.5t399.5 -105.5q229 0 368.5 100.5t139.5 264.5q0 120 -55.5 193t-149.5 73q-109 0 -184.5 -83t-75.5 -201v-73h-18q-11 0 -19.5 -5t-16 -19t-12 -44t-4.5 -74v-34h-8v61v624q0 30 -30 30h-47v9h57q37 0 63.5 12.5 t26.5 40.5v4h8v-85v-338z" />
<glyph unicode="ns" horiz-adv-x="1081" d="M18 0v9h35q19 0 28.5 1.5t15.5 7.5t7.5 15.5t1.5 28.5v440q0 14 -9 23t-24 9h-4l-59 -5l-1 6l77 16q32 6 53 25t21 48v4h8v-131q0 -87 -2 -105h7q3 27 16 65q22 64 71.5 102t111.5 38q80 0 124 -41t44 -110v-235q0 -65 26.5 -116.5t77.5 -82t119 -30.5q102 0 156 42 t54 122q0 22 -9 40.5t-22 31t-36 24.5t-41 19t-47 17q-33 11 -52.5 19t-45.5 22t-40.5 29t-25 37.5t-10.5 49.5q0 73 54 117.5t143 44.5q74 0 133 -44q11 -8 16 -23l7 2q-2 8 -4 32l-3 53h10l11 -236l-18 -1l-2 42q-3 65 -41.5 111t-108.5 46q-61 0 -94 -31.5t-33 -90.5 q0 -17 8 -31.5t19 -24t32 -20.5t36.5 -17t43.5 -16q20 -7 31.5 -11.5t30 -12.5t30 -14t27.5 -16t25.5 -19t20 -21.5t16.5 -26t10 -30.5t4 -35q0 -89 -78.5 -143.5t-206.5 -54.5q-58 0 -111 19.5t-89.5 50.5t-61.5 62t-39 62v271q0 151 -98 151q-78 0 -129 -68t-51 -176v-274 q0 -36 9 -44.5t45 -8.5h35v-9h-255z" />
<glyph unicode="mn" horiz-adv-x="1538" d="M18 0v9h35q36 0 44.5 8.5t8.5 44.5v440q0 14 -9 23t-24 9h-4l-59 -5l-1 6l77 16q70 14 70 73v4h8v-131q0 -72 -2 -92h9q6 42 16 69q47 123 158 123q73 0 103 -35t30 -97v-60h4q1 22 10.5 52.5t14.5 40.5q52 99 148 99q67 0 108 -35t41 -98v-260q0 -81 53 -138.5 t127 -57.5q49 0 83.5 31.5t34.5 76.5q0 40 -25 66t-67 29h-91v9h35q19 0 28.5 1.5t15.5 7.5t7.5 15.5t1.5 28.5v229q0 14 -9 23t-24 9h-4l-59 -5l-1 6l77 16q32 6 53 25t21 48v4h8v-131q0 -87 -2 -105h7q3 27 16 65q22 64 71.5 102t111.5 38q80 0 124 -41t44 -110v-384 q0 -36 8.5 -44.5t44.5 -8.5h36v-9h-255v9h97v2q-9 9 -9 26v392q0 151 -98 151q-78 0 -129 -68t-51 -176v-63q0 -36 9 -44.5t45 -8.5h35v-9h-125q29 -12 45.5 -37t16.5 -58q0 -57 -44.5 -97t-107.5 -40q-96 0 -164.5 80.5t-68.5 193.5v202q0 59 -22 92t-58 33 q-68 0 -110 -63.5t-42 -167.5v-287q0 -36 9 -44.5t45 -8.5h26v-9h-216v9h67v2q-9 9 -9 26v418q0 59 -22 92t-58 33q-68 0 -110 -63.5t-42 -167.5v-287q0 -36 9 -44.5t45 -8.5h35v-9h-255z" />
<glyph unicode="sy" horiz-adv-x="1019" d="M28 245l18 1l2 -41q3 -58 28 -103t65 -68.5t87 -23.5q68 0 109 40t41 106q0 19 -8.5 34.5t-20.5 26.5t-34 22.5t-38.5 18t-45.5 17.5q-34 12 -53.5 20t-47.5 23.5t-43 31t-26.5 39t-11.5 51.5q0 71 64 114t169 43q43 0 80.5 -4.5t82 -19t81.5 -38.5t74 -65.5t66 -97.5 l95 -185q14 -27 14 -40h7l145 371q7 19 7 31q0 31 -49 31h-46v9h172v-8h-6q-23 0 -32.5 -11t-21.5 -43q-3 -6 -4 -9l-226 -573q-23 -59 -59.5 -91t-75.5 -32q-51 0 -51 80q33 -8 56 -8q52 0 79.5 20.5t43.5 60.5l18 45q5 12 5 26q0 17 -7 30l-132 256q-68 133 -145 190 t-171 57q-73 0 -118 -32t-45 -85q0 -17 8.5 -31.5t19.5 -25t32.5 -21t37.5 -17t44 -16.5q25 -9 40 -15t37.5 -16.5t36.5 -19.5t30.5 -23t25.5 -29t15.5 -34.5t6.5 -41.5q0 -81 -61.5 -130.5t-161.5 -49.5q-80 0 -158 54q-18 13 -25 33l-4 -1q3 -13 4 -43l3 -63h-9z" />
<glyph unicode="hi" horiz-adv-x="912" d="M13 0v9h35q36 0 44.5 8.5t8.5 44.5v669q0 30 -30 30h-47v9h57q23 0 42 4.5t33.5 17t14.5 31.5v4h8v-175q0 -98 -18 -260h7q3 27 16 65q22 64 71.5 102t111.5 38q80 0 124 -40.5t44 -110.5v-252q0 -84 46.5 -135t123.5 -51q49 0 83.5 31.5t34.5 76.5q0 40 -25 66t-67 29 h-81v9h35q36 0 44.5 8t8.5 44v249q0 30 -30 30h-47v9h57q37 0 63.5 12.5t26.5 40.5v4h8v-85v-260q0 -36 9 -44t45 -8h35v-9h-135q29 -12 45.5 -37t16.5 -58q0 -37 -20.5 -68.5t-55.5 -50t-76 -18.5q-100 0 -161.5 72.5t-61.5 191.5v186q0 76 -23 113.5t-75 37.5 q-78 0 -129 -68t-51 -176v-274q0 -36 9 -44.5t45 -8.5h35v-9h-255zM776 820q20 0 32 -11.5t12 -32.5q0 -13 -5 -23t-15 -16t-24 -6q-20 0 -32.5 12t-12.5 33q0 20 12 32t33 12z" />
<glyph unicode="ui" horiz-adv-x="903" d="M89 143v378q0 30 -30 30h-47v9h57q37 0 64.5 12.5t27.5 40.5v4h8v-85v-380q0 -68 26.5 -105t71.5 -37q81 0 130 70t49 185v262q0 36 -9 44.5t-45 8.5h-17v9l155 4v-8q-4 -24 -4 -53v-318q0 -87 45.5 -143t119.5 -56q55 0 94 29.5t39 71.5q0 40 -25 66t-67 29h-91v9h35 q36 0 44.5 8t8.5 44v249q0 30 -30 30h-47v9h57q37 0 63.5 12.5t26.5 40.5v4h8v-85v-260q0 -36 9 -44t45 -8h35v-9h-125q29 -12 45.5 -37t16.5 -58q0 -52 -44.5 -88.5t-107.5 -36.5q-96 0 -155.5 72t-59.5 184h-4l-5 -51q-15 -103 -69.5 -153.5t-129.5 -50.5 q-76 0 -122.5 39.5t-46.5 111.5zM767 820q20 0 32 -11.5t12 -32.5q0 -20 -11.5 -32.5t-32.5 -12.5q-20 0 -32.5 12t-12.5 33q0 20 12 32t33 12z" />
<glyph unicode="uk" horiz-adv-x="1256" d="M375 589l155 4v-8q-4 -24 -4 -53v-318q0 -87 48.5 -149t116.5 -62q36 0 66.5 15t48.5 41t18 57q0 40 -25 66t-67 29h-91v9h35q20 0 29 1t15.5 7t7.5 15t1 29v459q0 30 -30 30h-47v9h57q37 0 63.5 12.5t26.5 40.5v4h8v-85v-420q74 0 85 14l158 179q18 20 18 38 q0 27 -52 27h-9v9h221v-9h-12q-84 0 -145 -69l-160 -181v-4q45 -10 77.5 -26.5t50.5 -33t29.5 -41.5t15.5 -43.5t8 -46.5q8 -63 27 -92.5t61 -29.5q13 0 23.5 4.5t18 13t11.5 20.5t4 26q0 26 -12.5 44.5t-31.5 28t-43 12.5q0 15 39 15q23 -14 40 -41t17 -59q0 -40 -25.5 -64 t-67.5 -24q-67 0 -97 40.5t-45 125.5q-5 29 -9.5 47t-16.5 41.5t-29 37t-46.5 23t-70.5 9.5h-32v-41q0 -33 14 -84q12 -45 12 -72q0 -57 -44.5 -97t-107.5 -40q-89 0 -152 78.5t-63 189.5h-5l-4 -51q-15 -103 -69.5 -153.5t-129.5 -50.5q-76 0 -122.5 39.5t-46.5 111.5v378 q0 30 -30 30h-47v9h57q37 0 64.5 12.5t27.5 40.5v4h8v-85v-380q0 -68 26.5 -105t71.5 -37q81 0 130 70t49 185v262q0 36 -9 44.5t-45 8.5h-17v9z" />
<glyph unicode="un" horiz-adv-x="1260" d="M833 116q0 -37 -20.5 -68.5t-55.5 -50t-76 -18.5q-89 0 -152 78.5t-63 189.5h-5l-4 -51q-15 -103 -69.5 -153.5t-129.5 -50.5q-76 0 -122.5 39.5t-46.5 111.5v378q0 30 -30 30h-47v9h57q23 0 42.5 4.5t34.5 17t15 31.5v4h8v-85v-380q0 -68 26.5 -105t71.5 -37 q81 0 130 70t49 185v262q0 19 -1.5 28.5t-8 15.5t-15.5 7.5t-29 1.5h-17v9l155 4v-8q-4 -24 -4 -53v-318q0 -87 48.5 -149t116.5 -62q55 0 94 33t39 80q0 20 -6.5 37t-18.5 29t-29 19.5t-38 9.5h-91v9h35q36 0 44.5 8.5t8.5 44.5v229q0 14 -9 23t-24 9h-4l-59 -5l-1 6l77 16 q32 6 53 25t21 48v4h8v-131q0 -87 -2 -105h7q3 27 16 65q22 64 71.5 102t111.5 38q80 0 124 -41t44 -110v-384q0 -36 8.5 -44.5t44.5 -8.5h36v-9h-255v9h97v2q-9 9 -9 26v392q0 151 -98 151q-78 0 -129 -68t-51 -176v-63q0 -36 9 -44.5t45 -8.5h35v-9h-125q29 -12 45.5 -37 t16.5 -58z" />
<glyph unicode="cy" horiz-adv-x="1107" d="M360 579q-108 0 -174 -73t-66 -193q0 -136 64 -219.5t169 -83.5q73 0 135 37t87 100l17 -7q-28 -72 -93.5 -110t-147.5 -38q-144 0 -232 84t-88 221q0 89 41 157t115.5 105.5t172.5 37.5q44 0 82 -4.5t84 -19t84.5 -38t76.5 -65.5t67 -98l95 -185q14 -27 14 -40h7 l145 371q7 19 7 31q0 31 -49 31h-46v9h172v-8h-6q-12 0 -20 -3t-15 -12.5t-11 -18.5t-12 -29l-226 -573q-23 -59 -59.5 -91t-75.5 -32q-51 0 -51 80q33 -8 56 -8q52 0 79.5 20.5t43.5 60.5l18 45q5 12 5 26q0 17 -7 30l-132 256q-46 89 -100 145.5t-108.5 79t-117.5 22.5z " />
<glyph unicode="ksy" horiz-adv-x="1589" d="M842 579q-61 0 -94 -31.5t-33 -90.5q0 -14 5 -26.5t16 -22.5t22 -18t29.5 -16t32.5 -13.5t37 -12.5q35 -12 56 -20.5t50 -24.5t45.5 -32.5t28.5 -42t12 -56.5q0 -83 -74 -138t-194 -55q-44 0 -87.5 9.5t-77.5 22.5t-71 36.5t-61.5 41.5t-55.5 48t-46 46t-41 44 q-9 10 -14 15q-65 71 -100 71h-43v-252q0 -36 9 -44t45 -8h35v-9h-255v9h35q36 0 44.5 8t8.5 44v670q0 30 -30 30h-47v9h57q23 0 42 4.5t33.5 17t14.5 31.5v4h8v-85v-420q54 0 65 14l158 179q18 20 18 38q0 27 -52 27h-9v9h226v-9h-17q-84 0 -145 -69l-160 -181v-4 q49 -6 105 -40.5t104 -81.5q7 -8 36.5 -37t42.5 -41.5t41 -37.5t47.5 -37t46 -27t52.5 -21t52 -6q80 0 129.5 46t49.5 113q0 16 -5 29t-16.5 24t-23 19.5t-31 17t-34 14t-38.5 13.5q-33 11 -53 19t-47.5 23t-42.5 30t-26.5 38.5t-11.5 51.5q0 73 54 117.5t143 44.5 q44 0 82 -4.5t84 -19t84.5 -38t76.5 -65.5t67 -98l95 -185q14 -27 14 -40v-2l7 2l145 371q7 19 7 31q0 31 -49 31h-46v9h172v-8h-6q-12 0 -20 -3t-15 -12.5t-11 -18.5t-12 -29l-226 -573q-23 -59 -59.5 -91t-75.5 -32q-51 0 -51 80q33 -8 56 -8q52 0 79.5 20.5t43.5 60.5 l18 45q5 12 5 26q0 17 -7 30l-132 256q-68 132 -149 189.5t-177 57.5z" />
<glyph unicode="kn" horiz-adv-x="1274" d="M18 0v9h35q36 0 44.5 8t8.5 44v670q0 30 -30 30h-47v9h57q23 0 42 4.5t33.5 17t14.5 31.5v4h8v-85v-440q54 0 65 14l158 199q18 22 18 38q0 27 -52 27h-9v9h226v-9h-17q-24 0 -48 -6t-51.5 -22t-47.5 -41l-159 -201l1 -4q49 -6 104 -42t99 -85q18 -20 41 -53.5t41 -58 t43 -49t58.5 -38t75.5 -13.5q45 0 76.5 28.5t31.5 69t-25 66.5t-67 29h-91v9h35q20 0 29 1t15.5 7t7.5 15t1 29v281q0 14 -9 23t-24 9h-4l-59 -5l-1 6l77 16q32 6 53 25t21 48v4h8v-131q0 -87 -2 -105h7q3 27 16 65q22 64 71.5 102t111.5 38q80 0 124 -41t44 -110v-384 q0 -36 8.5 -44.5t44.5 -8.5h36v-9h-255v9h97v2q-9 9 -9 26v392q0 76 -23.5 113.5t-74.5 37.5q-78 0 -129 -68t-51 -176v-115q0 -33 14 -84q12 -45 12 -72q0 -53 -41.5 -90t-100.5 -37q-54 0 -101 15t-79 37.5t-62.5 55.5t-50 61.5t-44 62.5t-41.5 52q-65 71 -100 71h-43 v-232q0 -36 9 -44t45 -8h35v-9h-255z" />
<glyph unicode="ht" horiz-adv-x="1109" d="M1074 306q0 -135 -95 -231t-229 -96q-132 0 -212.5 73t-80.5 192v185q0 151 -98 151q-78 0 -129 -68t-51 -176v-274q0 -36 9 -44.5t45 -8.5h35v-9h-255v9h35q36 0 44.5 8.5t8.5 44.5v669q0 30 -30 30h-47v9h57q37 0 63.5 12.5t26.5 40.5v4h8v-175q0 -98 -18 -260h7 q3 27 16 65q22 64 71.5 102t111.5 38q80 0 124 -41t44 -110v-201q-9 -21 -9 -40q0 -59 29.5 -103.5t84 -69t125.5 -24.5q107 0 189 66.5t104 167.5q-9 -18 -23.5 -32.5t-32 -25t-38.5 -16.5t-43 -6q-80 0 -129 39t-49 103v248h-131v27h75q41 0 71.5 32.5t41.5 63.5t11 47 v117h10v-217q0 -36 -13 -42v-1h262v-27h-249v-274q0 -44 27.5 -71t72.5 -27q56 0 95.5 37t39.5 89q0 48 -35 81.5t-85 33.5q-19 0 -32 12.5t-13 30.5h20q67 0 115 -46.5t48 -111.5z" />
<glyph unicode="nt" horiz-adv-x="1114" d="M1079 306q0 -89 -43.5 -164t-118 -119t-162.5 -44q-132 0 -212.5 73t-80.5 192v185q0 76 -23 113.5t-75 37.5q-78 0 -129 -68t-51 -176v-274q0 -36 9 -44.5t45 -8.5h35v-9h-255v9h35q19 0 28.5 1.5t15.5 7.5t7.5 15.5t1.5 28.5v440q0 14 -9 23t-24 9h-4l-59 -5l-1 6 l77 16q32 6 53 25t21 48v4h8v-131q0 -87 -2 -105h7q3 27 16 65q22 64 71.5 102t111.5 38q32 0 59 -7t47 -20t34 -31.5t21 -42t7 -50.5v-201q-9 -21 -9 -40q0 -59 29.5 -103.5t84 -69t125.5 -24.5q107 0 189 66.5t104 167.5q-19 -36 -56 -58t-81 -22q-80 0 -129 39t-49 103 v248h-131v27h75q41 0 71.5 32.5t41.5 63.5t11 47v117h10v-217q0 -36 -13 -42v-1h262v-27h-249v-274q0 -44 27.5 -71t72.5 -27q56 0 95.5 37t39.5 89q0 48 -35 81.5t-85 33.5q-19 0 -32 12.5t-13 30.5h20q67 0 115 -46.5t48 -111.5z" />
<glyph unicode="mt" horiz-adv-x="1378" d="M1343 306q0 -89 -43.5 -164t-118 -119t-162.5 -44q-132 0 -212.5 73t-80.5 192v211q0 59 -22 92t-58 33q-68 0 -110 -63.5t-42 -167.5v-287q0 -36 9 -44.5t45 -8.5h26v-9h-216v9h67v2q-9 9 -9 26v418q0 59 -22 92t-58 33q-34 0 -62 -16.5t-48 -46.5t-31 -73t-11 -95v-287 q0 -36 9 -44.5t45 -8.5h35v-9h-255v9h35q36 0 44.5 8.5t8.5 44.5v440q0 14 -9 23t-24 9h-4l-59 -5l-1 6l77 16q21 4 36 13t24.5 24.5t9.5 35.5v4h8v-131q0 -72 -2 -92h9q6 42 16 69q47 123 158 123q73 0 103 -35t30 -97v-60h4q1 22 10.5 52.5t14.5 40.5q12 24 26.5 41.5 t32 31t40 20t49.5 6.5q44 0 77 -15t52.5 -45.5t19.5 -72.5v-219q-9 -21 -9 -40q0 -59 29.5 -103.5t84 -69t125.5 -24.5q107 0 189 66.5t104 167.5q-13 -24 -33.5 -42t-47.5 -28t-56 -10q-80 0 -129 39t-49 103v248h-131v27h75q41 0 71.5 32.5t41.5 63.5t11 47v117h10v-217 q0 -36 -13 -42v-1h262v-27h-249v-274q0 -44 27.5 -71t72.5 -27q56 0 95.5 37t39.5 89q0 48 -35 81.5t-85 33.5q-19 0 -32 12.5t-13 30.5h20q67 0 115 -46.5t48 -111.5z" />
<glyph unicode="lt" horiz-adv-x="734" d="M82 244v487q0 30 -30 30h-47v9h57q23 0 42 4.5t33.5 17t14.5 31.5v4h8v-85v-497q-9 -21 -9 -40q0 -59 29.5 -103.5t84 -69t125.5 -24.5q53 0 102 18t87.5 49t65.5 74t38 93q-19 -36 -56 -58t-81 -22q-80 0 -129 39t-49 103v248h-131v27h75q41 0 71.5 32.5t41.5 63.5 t11 47v117h10v-217q0 -36 -13 -42v-1h262v-27h-249v-274q0 -44 27.5 -71t72.5 -27q56 0 95.5 37t39.5 89q0 48 -35 81.5t-85 33.5q-19 0 -32 12.5t-13 30.5h20q67 0 115 -46.5t48 -111.5q0 -135 -95 -231t-229 -96q-132 0 -212.5 73t-80.5 192z" />
<glyph unicode="kt" horiz-adv-x="1145" d="M18 0v9h35q36 0 44.5 8t8.5 44v670q0 30 -30 30h-47v9h57q23 0 42 4.5t33.5 17t14.5 31.5v4h8v-85v-420q54 0 65 14l158 179q18 20 18 38q0 27 -52 27h-9v9h226v-9h-17q-84 0 -145 -69l-160 -181v-4q49 -6 105 -40.5t104 -81.5q8 -8 32 -32.5t36 -35.5l36 -33t40 -33.5 t40 -27.5t44 -24t44 -14t47 -6q120 0 200 61.5t100 165.5q-19 -37 -56.5 -60t-82.5 -23q-80 0 -129 39t-49 103v268h-131v27h75q32 0 57.5 19t39 45t20.5 47.5t7 31.5v117h10v-217q0 -36 -13 -42v-1h262v-27h-249v-294q0 -44 27.5 -71t72.5 -27q56 0 95.5 37t39.5 89 q0 48 -35 81.5t-85 33.5q-19 0 -32 12.5t-13 30.5h20q67 0 115 -46.5t48 -111.5q0 -138 -89 -222.5t-235 -84.5q-46 0 -90 9.5t-79 23t-72.5 37t-62 41.5t-55.5 48t-46 46t-41 44q-9 10 -13 14q-65 71 -100 71h-43v-252q0 -36 9 -44t45 -8h35v-9h-255z" />
<glyph unicode="it" horiz-adv-x="747" d="M95 244v277q0 30 -30 30h-45v9h55q23 0 42 4.5t33.5 17t14.5 31.5v4h8v-85v-287q-9 -21 -9 -40q0 -59 29.5 -103.5t84 -69t125.5 -24.5q70 0 132.5 30.5t104 84t56.5 119.5q-13 -24 -33.5 -42t-47.5 -28t-56 -10q-80 0 -129 39t-49 103v248h-131v27h75q41 0 71.5 32.5 t41.5 63.5t11 47v117h10v-217q0 -36 -13 -42v-1h262v-27h-249v-274q0 -44 27.5 -71t72.5 -27q56 0 95.5 37t39.5 89q0 48 -35 81.5t-85 33.5q-19 0 -32 12.5t-13 30.5h20q67 0 115 -46.5t48 -111.5q0 -135 -95 -231t-229 -96q-132 0 -212.5 73t-80.5 192zM134 800 q20 0 32 -11.5t12 -32.5q0 -13 -5 -23t-15 -16t-24 -6q-20 0 -32.5 12t-12.5 33q0 20 12 32t33 12z" />
<glyph unicode="il" horiz-adv-x="697" d="M341 304v427q0 30 -30 30h-47v9h57q37 0 63.5 12.5t26.5 40.5v4h8v-85v-464q0 -44 27.5 -71t72.5 -27q56 0 95.5 37t39.5 89q0 48 -35 81.5t-85 33.5q-19 0 -32 12.5t-13 30.5h20q33 0 63.5 -12.5t52 -33.5t34.5 -50.5t13 -61.5q0 -89 -43.5 -164t-118 -119t-162.5 -44 q-105 0 -179 69t-74 166v307q0 30 -30 30h-45v9h55q23 0 42 4.5t33.5 17t14.5 31.5v4h8v-85v-317q-9 -21 -9 -40q0 -46 26.5 -84t72.5 -60.5t100 -22.5q53 0 102 18t87.5 49t65.5 74t38 93q-19 -36 -56 -58t-81 -22q-80 0 -129 39t-49 103zM134 800q20 0 32 -11.5t12 -32.5 q0 -20 -11.5 -32.5t-32.5 -12.5q-20 0 -32.5 12t-12.5 33q0 20 12 32t33 12z" />
<glyph unicode="ll" horiz-adv-x="682" d="M326 304v427q0 30 -30 30h-47v9h57q37 0 63.5 12.5t26.5 40.5v4h8v-85v-464q0 -44 27.5 -71t72.5 -27q56 0 95.5 37t39.5 89q0 48 -35 81.5t-85 33.5q-19 0 -32 12.5t-13 30.5h20q33 0 63.5 -12.5t52 -33.5t34.5 -50.5t13 -61.5q0 -89 -43.5 -164t-118 -119t-162.5 -44 q-105 0 -179 69t-74 166v517q0 30 -30 30h-45v9h55q23 0 42 4.5t33.5 17t14.5 31.5v4h8v-85v-527q-9 -21 -9 -40q0 -46 26.5 -84t72.5 -60.5t100 -22.5q107 0 189 66.5t104 167.5q-19 -36 -56 -58t-81 -22q-80 0 -129 39t-49 103z" />
<glyph unicode="tt" horiz-adv-x="793" d="M141 244v308h-131v27h75q41 0 71.5 32.5t41.5 63.5t11 47v117h10v-217q0 -36 -13 -42v-1h165q41 0 71.5 32.5t41.5 63.5t11 47v117h10v-217q0 -36 -13 -42v-1h262v-27h-249v-274q0 -44 27.5 -71t72.5 -27q56 0 95.5 37t39.5 89q0 48 -35 81.5t-85 33.5q-19 0 -32 12.5 t-13 30.5h20q67 0 115 -46.5t48 -111.5q0 -135 -95 -231t-229 -96q-132 0 -212.5 73t-80.5 192zM219 552v-307q-9 -21 -9 -40q0 -59 29.5 -103.5t84 -69t125.5 -24.5q53 0 102 18t87.5 49t65.5 74t38 93q-19 -36 -56 -58t-81 -22q-80 0 -129 39t-49 103v248h-208z" />
<glyph unicode="et" horiz-adv-x="1127" d="M41 297q0 124 89 212t215 88q120 0 192.5 -65.5t72.5 -172.5v-5q0 -12 -8.5 -20.5t-21.5 -8.5h-1l-274 3q-31 0 -53 -20.5t-22 -49.5v-56q-18 0 -30.5 13t-12.5 31q0 29 16 52.5t43 37.5t59 14h214q8 0 8 9q0 99 -51 159.5t-135 60.5q-96 0 -155.5 -73t-59.5 -193 q0 -159 131.5 -255.5t346.5 -96.5q164 0 292.5 63.5t170.5 161.5q-21 -29 -55 -46.5t-73 -17.5q-80 0 -129 39t-49 103v288h-131v27h75q41 0 71.5 32.5t41.5 63.5t11 47v117h10v-217q0 -36 -13 -42v-1h262v-27h-249v-314q0 -44 27.5 -71t72.5 -27q56 0 95.5 37t39.5 89 q0 48 -35 81.5t-85 33.5q-19 0 -32 12.5t-13 30.5h20q67 0 115 -46.5t48 -111.5q0 -91 -67.5 -169t-183.5 -123t-252 -45q-163 0 -287.5 45.5t-192.5 129.5t-68 193z" />
<glyph unicode="Hi" horiz-adv-x="929" d="M18 0v9h35q35 0 44 12t9 50v577q0 38 -9 50t-44 12h-35v9h246v-9h-26q-35 0 -44.5 -12t-9.5 -50v-261h274v261q0 38 -9.5 50t-44.5 12h-26v9h247v-9h-36q-35 0 -44 -12t-9 -50v-499q0 -90 51.5 -145.5t134.5 -55.5q49 0 83.5 31.5t34.5 76.5q0 40 -25 66t-67 29h-91v9h35 q36 0 44.5 8t8.5 44v309q0 30 -30 30h-47v9h57q37 0 63.5 12.5t26.5 40.5v4h8v-85v-320q0 -36 9 -44t45 -8h35v-9h-125q29 -12 45.5 -37t16.5 -58q0 -57 -44.5 -97t-107.5 -40q-108 0 -173.5 75t-65.5 198v177h-274v-298q0 -38 9.5 -50t44.5 -12h26v-9h-246zM783 820 q20 0 32 -11.5t12 -32.5q0 -13 -5 -23t-15 -16t-24 -6q-20 0 -32.5 12t-12.5 33q0 20 12 32t33 12z" />
<glyph unicode="ct" horiz-adv-x="1127" d="M839 552v-314q0 -44 27.5 -71t72.5 -27q56 0 95.5 37t39.5 89q0 48 -35 81.5t-85 33.5q-19 0 -32 12.5t-13 30.5h20q67 0 115 -46.5t48 -111.5q0 -91 -67.5 -169t-183.5 -123t-252 -45q-163 0 -287.5 46t-192.5 129.5t-68 192.5q0 81 42.5 150.5t116 109.5t160.5 40 q108 0 183 -64q7 -7 11 -20l7 2q-2 10 -3 29l-2 73h9l9 -289l-18 -1l-3 93q-4 66 -64.5 113t-136.5 47q-100 0 -161 -73.5t-61 -193.5q0 -159 129.5 -255.5t344.5 -96.5q164 0 292.5 63.5t170.5 161.5q-21 -29 -55 -46.5t-73 -17.5q-80 0 -129 39t-49 103v288h-131v27h75 q41 0 71.5 32.5t41.5 63.5t11 47v117h10v-217q0 -36 -13 -42v-1h262v-27h-249z" />
<glyph unicode="ls" horiz-adv-x="742" d="M82 233v498q0 30 -30 30h-47v9h57q23 0 42 4.5t33.5 17t14.5 31.5v4h8v-85v-558q0 -84 66.5 -135.5t175.5 -51.5q104 0 168 43.5t64 115.5q0 19 -8.5 34.5t-20.5 26.5t-34 22t-39 17.5t-45 16.5q-34 11 -54 19t-47.5 22.5t-42.5 30t-26.5 39t-11.5 51.5q0 73 54 117.5 t143 44.5q74 0 133 -44q11 -8 16 -23l7 2q-2 8 -4 32l-3 53h10l11 -236l-18 -1l-2 42q-2 31 -11.5 58.5t-27.5 50t-46.5 35.5t-64.5 13q-61 0 -94 -31.5t-33 -90.5q0 -17 8 -31.5t19.5 -24.5t32.5 -20.5t37.5 -17t43.5 -15.5q29 -10 47 -17t43.5 -19t41 -24.5t31 -29.5 t23 -38.5t7.5 -47.5q0 -87 -84.5 -140t-223.5 -53q-144 0 -231.5 70t-87.5 184z" />
<glyph unicode="is" horiz-adv-x="755" d="M95 233v288q0 30 -30 30h-45v9h55q23 0 42 4.5t33.5 17t14.5 31.5v4h8v-85v-348q0 -84 66.5 -135.5t175.5 -51.5q104 0 168 43.5t64 115.5q0 18 -8.5 34t-20.5 27t-34 22t-39 17.5t-45 16.5q-28 9 -44.5 15.5t-41 17.5t-39 22.5t-29 27.5t-21.5 35.5t-7 43.5 q0 73 54 117.5t143 44.5q74 0 133 -44q11 -8 16 -23l7 2q-2 8 -4 32l-3 53h10l11 -236l-18 -1l-2 42q-2 42 -18 76.5t-50.5 57.5t-81.5 23q-61 0 -94 -31.5t-33 -90.5q0 -17 8.5 -31.5t19.5 -24.5t32.5 -20.5t38 -17t44.5 -16.5q28 -9 46 -16t43.5 -19t41 -24.5t30.5 -29.5 t22.5 -38.5t7.5 -47.5q0 -87 -84.5 -140t-223.5 -53q-144 0 -231.5 70t-87.5 184zM133 820q20 0 32 -11.5t12 -32.5q0 -13 -5 -23t-15 -16t-24 -6q-20 0 -32.5 12t-12.5 33q0 20 12 32t33 12z" />
<glyph unicode="Ts" horiz-adv-x="911" d="M102 0v9h76q36 0 44.5 8.5t8.5 44.5v637q-23 2 -41 2h-19q-38 0 -61 -4.5t-40 -17t-24.5 -35t-9.5 -58.5l-3 -41l-18 1l15 232l11 -1l-5 -58h152q49 0 193.5 -3.5t212.5 -3.5q61 0 108 18t73 51t26 76h11q0 -86 -64.5 -138.5t-169.5 -52.5q-23 0 -49.5 1.5t-56.5 4.5 t-53 5.5t-58 7t-52 7.5v-630q0 -36 8.5 -44.5t44.5 -8.5h34v-9h-294zM825 532l-8 129l11 1l17 -281l-18 -1l-3 42q-2 31 -11.5 58t-26 50t-44 36t-63.5 13t-64 -12.5t-43 -36t-15 -53.5q0 -24 10.5 -43.5t33 -35.5t42 -26.5t53.5 -25.5q33 -15 53 -25t47.5 -28.5t43 -37.5 t27 -47t11.5 -61q0 -46 -27.5 -81t-77 -54.5t-114.5 -19.5q-83 0 -143 49.5t-60 118.5v35q18 0 34 -14.5t16 -32.5q0 -38 20 -69.5t55.5 -50t77.5 -18.5q65 0 104.5 33.5t39.5 87.5q0 22 -8.5 41t-20.5 32.5t-34 27.5t-39 22.5t-45 20.5q-22 10 -36 17t-33.5 17.5t-32 20.5 t-26.5 23.5t-22 28t-13.5 33.5t-5.5 40q0 64 53 103t139 39q41 0 69.5 -11.5t56.5 -32.5q8 -6 14 -23z" />
<glyph unicode="At" horiz-adv-x="1167" d="M160 213h381l-170 417q-8 18 -8 40h-9q0 -12 -12 -40zM879 552v-314q0 -44 27.5 -71t72.5 -27q56 0 95.5 37t39.5 89q0 48 -35 81.5t-85 33.5q-19 0 -32 12.5t-13 30.5h20q67 0 115 -46.5t48 -111.5q0 -119 -83 -203t-201 -84q-101 0 -180 54.5t-119 151.5l-4 10h-393 l-54 -124q-5 -12 -5 -23q0 -17 13 -28t35 -11h49v-9h-182v9h16q28 0 55 62l281 648h77v-12q0 -36 9 -58l186 -456q35 -85 93.5 -135t137.5 -50q89 0 158.5 53.5t92.5 136.5q-20 -35 -56 -55.5t-79 -20.5q-80 0 -129 39t-49 103v288h-131v27h75q41 0 71.5 32.5t41.5 63.5 t11 47v117h10v-217q0 -36 -13 -42v-1h262v-27h-249z" />
<glyph unicode="cs" horiz-adv-x="1068" d="M641 -23q144 0 231.5 49t87.5 130q0 19 -8.5 34.5t-20.5 26.5t-34 22t-39 17.5t-45 16.5q-34 11 -54 19t-47.5 23t-42.5 30t-26.5 38.5t-11.5 51.5q0 73 54 117.5t143 44.5q74 0 133 -44q11 -8 16 -23l7 2q-2 8 -4 32l-3 53h10l11 -236l-18 -1l-2 42q-3 65 -41.5 111 t-108.5 46q-61 0 -94 -31.5t-33 -90.5q0 -17 8 -31.5t19.5 -24.5t32.5 -20.5t37.5 -17t44.5 -15.5q35 -12 56 -20.5t50 -24.5t45.5 -32.5t28.5 -42t12 -56.5q0 -96 -112 -154.5t-296 -58.5q-266 0 -428 101.5t-162 267.5q0 121 84 195t222 74q91 0 166 -64q7 -7 11 -20l7 2 q-2 10 -3 29l-2 73h9l9 -289l-18 -1l-3 93q-2 63 -57.5 111.5t-127.5 48.5q-101 0 -154.5 -63.5t-53.5 -184.5q0 -105 64 -186t181 -125t270 -44z" />
<glyph unicode="ak" horiz-adv-x="1256" d="M35 151q0 82 57 132.5t151 50.5q61 0 104.5 -33.5t43.5 -80.5q0 -19 -12.5 -32t-30.5 -13v47q0 39 -31 66.5t-74 27.5q-58 0 -93 -44.5t-35 -117.5q0 -61 39 -98t102 -37q81 0 138 60.5t57 146.5v202q0 68 -49 109.5t-129 41.5q-72 0 -112 -37.5t-43 -98.5l-3 -62h-18 l11 236h10l-3 -53q-2 -24 -4 -32l7 -2q5 15 16 23q59 44 138 44q116 0 186.5 -50t70.5 -132v-241q0 -71 48.5 -121t116.5 -50q54 0 88.5 32.5t34.5 80.5q0 40 -25 66t-67 29h-91v9h35q20 0 29 1t15.5 7t7.5 15t1 29v459q0 30 -30 30h-47v9h57q37 0 63.5 12.5t26.5 40.5v4h8 v-85v-420q81 0 92 14l158 179q18 20 18 38q0 27 -52 27h-9v9h221v-9h-12q-84 0 -145 -69l-160 -181v-4q45 -10 77.5 -26.5t50.5 -33t29.5 -41.5t15.5 -43.5t8 -46.5q8 -63 27 -92.5t61 -29.5q13 0 23.5 4.5t18 13t11.5 20.5t4 26q0 26 -12.5 44.5t-31.5 28t-43 12.5 q0 15 39 15q23 -14 40 -41t17 -59q0 -40 -25.5 -64t-67.5 -24q-67 0 -97 40.5t-45 125.5q-5 29 -9.5 47t-16.5 41.5t-29 37t-46.5 23t-70.5 9.5h-39v-41q0 -33 14 -84q12 -45 12 -72q0 -38 -18 -69t-50.5 -49.5t-73.5 -18.5q-88 0 -150 58t-62 140h-5l-5 -23 q-14 -56 -54 -94.5t-82 -53t-82 -14.5q-94 0 -151.5 43.5t-57.5 115.5z" />
<glyph unicode="akt" horiz-adv-x="1761" d="M35 151q0 82 57 132.5t151 50.5q61 0 104.5 -33.5t43.5 -80.5q0 -19 -12.5 -32t-30.5 -13v47q0 39 -31 66.5t-74 27.5q-58 0 -93 -44.5t-35 -117.5q0 -61 39 -98t102 -37q81 0 138 60.5t57 146.5v202q0 68 -49 109.5t-129 41.5q-48 0 -83 -18t-52.5 -48t-19.5 -70l-3 -62 h-18l11 236h10l-3 -53q-2 -24 -4 -32l7 -2q5 15 16 23q59 44 138 44q116 0 186.5 -50t70.5 -132v-241q0 -71 48.5 -121t116.5 -50q54 0 88.5 32.5t34.5 80.5q0 26 -11.5 47t-32 33.5t-48.5 14.5h-91v9h35q36 0 44.5 8t8.5 44v459q0 30 -30 30h-47v9h57q37 0 63.5 12.5 t26.5 40.5v4h8v-85v-420q54 0 65 14l158 179q18 20 18 38q0 27 -52 27h-9v9h226v-9h-17q-84 0 -145 -69l-160 -181v-4q49 -6 105 -40.5t104 -81.5q9 -9 28.5 -29t31.5 -31t31.5 -30t34.5 -30.5t35 -26.5t38 -24.5t38 -18t40.5 -12.5t41.5 -4q120 0 200 61.5t100 165.5 q-19 -37 -56.5 -60t-82.5 -23q-80 0 -129 39t-49 103v278h-131v27h75q41 0 71.5 32.5t41.5 63.5t11 47v117h10v-217q0 -36 -13 -42v-1h262v-27h-249v-304q0 -44 27.5 -71t72.5 -27q56 0 95.5 37t39.5 89q0 48 -35 81.5t-85 33.5q-19 0 -32 12.5t-13 30.5h20q67 0 115 -46.5 t48 -111.5q0 -138 -89 -222.5t-235 -84.5q-46 0 -90 9.5t-79 23t-72.5 37t-62 41.5t-55.5 48t-46 46t-41 44q-9 10 -13 14q-65 71 -100 71h-43v-41q0 -33 14 -84q12 -45 12 -72q0 -38 -18 -69t-50.5 -49.5t-73.5 -18.5q-88 0 -150 58t-62 140h-5l-5 -23q-14 -56 -54 -94.5 t-82 -53t-82 -14.5q-94 0 -151.5 43.5t-57.5 115.5z" />
<glyph unicode="at" horiz-adv-x="1098" d="M529 415v-200q0 -93 60.5 -150t159.5 -57q102 0 183 51.5t109 132.5q-20 -32 -55 -51t-76 -19q-80 0 -129 39t-49 103v288h-121v27h65q41 0 71.5 32.5t41.5 63.5t11 47v117h10v-217q0 -36 -13 -42v-1h262v-27h-249v-314q0 -44 27.5 -71t72.5 -27q56 0 95.5 37t39.5 89 q0 48 -35 81.5t-85 33.5q-19 0 -32 12.5t-13 30.5h20q67 0 115 -46.5t48 -111.5q0 -78 -44 -144t-119 -104.5t-164 -38.5q-115 0 -187 62t-76 163h-4l-7 -50q-11 -43 -36.5 -75.5t-57.5 -50.5t-63.5 -27t-60.5 -9q-94 0 -151.5 43.5t-57.5 115.5q0 82 57 132.5t151 50.5 q61 0 104.5 -33.5t43.5 -80.5q0 -19 -12.5 -32t-30.5 -13v47q0 39 -31 66.5t-74 27.5q-58 0 -93 -44.5t-35 -117.5q0 -61 39 -98t102 -37q81 0 138 60.5t57 146.5v202q0 68 -49 109.5t-129 41.5q-48 0 -83 -18t-52.5 -48t-19.5 -70l-3 -62h-18l11 236h10l-3 -53 q-2 -24 -4 -32l7 -2q5 15 16 23q59 44 138 44q116 0 186.5 -50t70.5 -132z" />
<glyph unicode="Re" horiz-adv-x="1226" d="M935 388q-27 0 -46 -17.5t-19 -41.5v-57q-18 0 -30.5 13t-12.5 32q0 38 31.5 65.5t76.5 27.5h146q8 0 8 9q0 72 -43.5 116t-114.5 44q-89 0 -143.5 -56.5t-54.5 -149.5q0 -63 28 -117t76.5 -85t104.5 -31q148 0 225 101l13 -12q-26 -34 -62 -58t-80.5 -36.5t-95.5 -12.5 q-120 0 -205.5 69t-85.5 166q0 65 38 120.5t103.5 87.5t142.5 32q106 0 170.5 -49t64.5 -129v-5q0 -12 -9 -20.5t-22 -8.5zM1196 88q-70 -61 -169 -98t-206 -37q-123 0 -243.5 53t-218.5 165l-21 25q-24 28 -36.5 41.5t-30.5 25.5t-34 12h-12v17h46q84 0 135.5 56.5 t51.5 148.5q0 84 -55 144t-132 60h-104v-1q17 -17 17 -52v-586q0 -36 9 -44.5t45 -8.5h58v-9h-278v9h35q36 0 44.5 8.5t8.5 44.5v595q0 36 -8.5 44.5t-44.5 8.5h-35v9h261q120 0 193 -61t73 -161q0 -57 -28 -104.5t-76 -76.5t-108 -35l-20 -1v-6q51 -5 108 -68 q74 -82 157 -133.5t152.5 -71t139.5 -19.5q57 0 112.5 13t97 33t68 36.5t43.5 30.5z" />
<glyph unicode="Th" horiz-adv-x="1126" d="M102 0v9h76q36 0 44.5 8.5t8.5 44.5v639h-60q-38 0 -61 -4.5t-40 -17t-24.5 -35t-9.5 -58.5l-3 -41l-18 1l15 232l11 -1l-5 -58h132q196 0 424 19q22 1 43 5v33q0 12 -4.5 21t-13 14.5t-19 8.5t-23.5 3q-9 0 -15.5 6.5t-6.5 15.5h10q34 0 57 -18.5t23 -50.5v-31 q47 10 82 29.5t55.5 49.5t20.5 66h11q0 -29 -7.5 -54.5t-22 -46t-35.5 -37t-47 -28t-57 -17.5v-85q0 -113 -18 -230h7q3 27 16 65q22 64 71.5 102t111.5 38q80 0 124 -41t44 -110v-326q-9 -21 -9 -40q0 -28 17.5 -45t46.5 -17q26 0 42 16t16 43q0 26 -12.5 44.5t-31.5 28 t-43 12.5q0 15 39 15q23 -14 40 -41t17 -59q0 -39 -30 -63.5t-72 -24.5q-22 0 -40.5 10t-31 28t-19.5 41.5t-7 50.5v310q0 76 -23.5 113.5t-74.5 37.5q-78 0 -129 -68t-51 -176v-274q0 -36 9 -44.5t45 -8.5h35v-9h-255v9h35q36 0 44.5 8.5t8.5 44.5v594q31 0 47.5 11.5 t20.5 37.5q-26 -4 -55 -4h-269v-639q0 -36 8.5 -44.5t44.5 -8.5h34v-9h-294z" />
<glyph unicode="he" horiz-adv-x="1229" d="M960 388q-27 0 -46 -17.5t-19 -41.5v-57q-18 0 -30.5 13t-12.5 32q0 38 31.5 65.5t76.5 27.5h146q8 0 8 9q0 72 -43.5 116t-114.5 44q-89 0 -143.5 -56.5t-54.5 -149.5q0 -63 28 -117t76.5 -85t104.5 -31q148 0 225 101l13 -12q-26 -34 -62 -58t-80.5 -36.5t-95.5 -12.5 q-120 0 -205.5 69t-85.5 166q0 99 83.5 169.5t200.5 70.5q106 0 170.5 -49t64.5 -129v-5q0 -12 -9 -20.5t-22 -8.5zM18 0v9h35q36 0 44.5 8.5t8.5 44.5v669q0 30 -30 30h-47v9h57q23 0 42 4.5t33.5 17t14.5 31.5v4h8v-175q0 -98 -18 -260h7q3 27 16 65q22 64 71.5 102 t111.5 38q80 0 124 -41t44 -110v-206q0 -116 95 -187t250 -71q57 0 112.5 13t97 33t68 36.5t43.5 30.5l5 -7q-70 -61 -169 -98t-206 -37q-168 0 -271 85.5t-103 224.5v166q0 76 -23.5 113.5t-74.5 37.5q-78 0 -129 -68t-51 -176v-274q0 -36 9 -44.5t45 -8.5h35v-9h-255z" />
<glyph unicode="The" horiz-adv-x="1688" d="M1419 388q-27 0 -46 -17.5t-19 -41.5v-57q-18 0 -30.5 13t-12.5 32q0 38 31.5 65.5t76.5 27.5h146q8 0 8 9q0 72 -43.5 116t-114.5 44q-89 0 -143.5 -56.5t-54.5 -149.5q0 -96 61.5 -164.5t147.5 -68.5q148 0 225 101l13 -12q-26 -34 -62 -58t-80.5 -36.5t-95.5 -12.5 q-120 0 -205.5 69t-85.5 166q0 99 83.5 169.5t200.5 70.5q106 0 170.5 -49t64.5 -129v-5q0 -12 -9 -20.5t-22 -8.5zM102 0v9h76q36 0 44.5 8.5t8.5 44.5v639h-60q-38 0 -61 -4.5t-40 -17t-24.5 -35t-9.5 -58.5l-3 -41l-18 1l15 232l11 -1l-5 -58h132q196 0 424 19q22 1 43 5 v33q0 23 -17 35.5t-43 12.5q-9 0 -15.5 6t-6.5 15h10q34 0 57 -18.5t23 -50.5v-31q72 15 115 53t43 92h11q0 -72 -45.5 -120t-123.5 -63v-85q0 -113 -18 -230h7q3 27 16 65q22 64 71.5 102t111.5 38q80 0 124 -41t44 -110v-206q0 -116 95 -187t250 -71q57 0 112.5 13t97 33 t68 36.5t43.5 30.5l5 -7q-70 -61 -169 -98t-206 -37q-168 0 -271 85.5t-103 224.5v166q0 50 -10 83t-31.5 50.5t-56.5 17.5q-78 0 -129 -68t-51 -176v-274q0 -36 9 -44.5t45 -8.5h35v-9h-255v9h35q36 0 44.5 8.5t8.5 44.5v594q21 0 35 5t22 16t11 28q-26 -4 -55 -4h-269 v-639q0 -36 8.5 -44.5t44.5 -8.5h34v-9h-294z" />
<glyph unicode="Ke" horiz-adv-x="1230" d="M666 357q0 99 83.5 169.5t200.5 70.5q106 0 170.5 -49t64.5 -129v-5q0 -12 -9 -20.5t-22 -8.5l-204 3q-27 0 -46 -17.5t-19 -42.5v-56q-18 0 -30.5 13t-12.5 31q0 39 31.5 66.5t76.5 27.5h146q8 0 8 9q0 72 -43.5 116t-114.5 44q-89 0 -143.5 -56.5t-54.5 -149.5 q0 -62 28 -115t76.5 -84t104.5 -31q82 0 150.5 44.5t68.5 98.5h18q0 -40 -34 -78.5t-89.5 -62t-113.5 -23.5q-120 0 -205.5 69t-85.5 166zM18 0v9h35q36 0 44.5 10t8.5 52v586q0 36 -8.5 44.5t-44.5 8.5h-35v9h229v-9h-9q-19 0 -28.5 -1t-16 -7t-8 -15t-1.5 -28v-227 q54 0 65 14l158 199q18 22 18 38q0 27 -52 27h-9v9h226v-9h-17q-24 0 -48 -6t-51.5 -22t-47.5 -41l-159 -201l1 -4q28 -6 54 -20.5t45.5 -30.5t42.5 -43t37.5 -47t38.5 -54t38.5 -54t40.5 -50.5t46.5 -49t51.5 -41t61.5 -34.5t70.5 -20.5t83 -8.5q54 0 108 13.5t95 33.5 t67.5 36t42.5 29l5 -7q-61 -53 -157 -94.5t-197 -41.5q-40 0 -77 6.5t-67.5 16t-61.5 27t-53.5 33t-48.5 40.5t-42.5 43t-39.5 47t-35 46t-33 47q-24 35 -37.5 53t-35 43t-37 37.5t-36.5 22t-42 9.5h-12v-352q0 -42 9 -52t45 -10h35v-9h-255z" />
<glyph unicode="ep" horiz-adv-x="1415" d="M41 297q0 124 89 212t215 88q79 0 139 -29.5t93 -83.5t33 -125v-5q0 -8 -4 -14.5t-11.5 -10.5t-15.5 -4l-274 3q-31 0 -53 -20.5t-22 -48.5v-57q-18 0 -30.5 13t-12.5 32q0 28 16 51.5t43 37.5t59 14h214q8 0 8 9q0 99 -51 159.5t-135 60.5q-96 0 -155.5 -73t-59.5 -193 q0 -132 62.5 -213t163.5 -81q48 0 90.5 9t75.5 22.5t64 37t53 45.5t45 54.5t38.5 58t35.5 61.5v195q0 7 -2.5 12.5t-6.5 10t-10.5 7t-13.5 2.5h-4l-59 -5l-1 6l77 16q32 6 53 25t21 48v4h8v-131q0 -32 -5 -77h6q25 41 49.5 70t57.5 55t75.5 39t93.5 13q83 0 147 -37.5 t99 -106t35 -158.5q0 -125 -87.5 -214t-211.5 -89q-82 0 -140 52t-58 126q0 70 53.5 119t129.5 49h20q0 -18 -13 -30.5t-32 -12.5q-63 0 -101.5 -34.5t-38.5 -90.5q0 -66 52.5 -113t127.5 -47q95 0 153.5 83.5t58.5 219.5q0 106 -55.5 181t-134.5 75q-62 0 -113.5 -23 t-84.5 -57t-67 -86v-501q0 -36 9 -44.5t45 -8.5h35v-9h-255v9h35q19 0 28.5 1.5t15.5 7.5t7.5 15.5t1.5 28.5v369q-29 -50 -52 -84t-60 -74t-76.5 -64t-96 -40.5t-122.5 -16.5q-138 0 -222 84t-84 221z" />
<glyph unicode="&#x7a;a" horiz-adv-x="1035" d="M875 384v64q0 64 -29 98t-84 34q-72 0 -114.5 -38.5t-45.5 -98.5l-3 -22h-18l11 196h10l-3 -53q-2 -24 -4 -32l7 -2q5 15 16 23q59 44 143 44q95 0 144.5 -41.5t49.5 -120.5v-284q0 -31 5.5 -41t27.5 -10q3 0 9.5 0.5t10.5 0.5l17 1l1 -9q-62 -6 -111 -22v8 q0 25 -9.5 82.5t-9.5 72.5h-10q-40 -162 -168 -162q-85 0 -137 39.5t-52 104.5q0 76 73.5 122t194.5 46h78zM875 366h-73q-84 0 -135 -41.5t-51 -108.5q0 -53 31.5 -85t82.5 -32q58 0 101.5 53.5t43.5 153.5v60zM0 0v9q24 0 72 78l259 420q13 23 33.5 40t38.5 22v3h-193 q-76 0 -108.5 -23t-36.5 -94l-1 -20l-7 1l11 212l7 -1l-3 -67q9 9 26 9h389v-9q-21 0 -69 -78l-259 -418q-33 -52 -48 -63v-3h38q73 0 281 -39.5t308 -39.5q186 0 262 84l6 -6q-142 -157 -327 -157q-78 0 -179 35t-194 70t-153 35h-153z" />
<glyph unicode="&#x7a;o" horiz-adv-x="1120" d="M805 102q-124 0 -200 68t-76 180q0 102 81 174.5t195 72.5q123 0 198.5 -68t75.5 -179q0 -103 -80.5 -175.5t-193.5 -72.5zM808 120q83 0 133.5 58t50.5 153q0 103 -56 175.5t-135 72.5q-83 0 -134 -58t-51 -153q0 -103 56.5 -175.5t135.5 -72.5zM0 0v9q24 0 72 78 l259 420q13 23 33.5 40t38.5 22v3h-193q-76 0 -108.5 -23t-36.5 -94l-1 -20l-7 1l11 212l7 -1l-3 -67q9 9 26 9h389v-9q-21 0 -69 -78l-259 -418q-33 -52 -48 -63v-3h38q74 0 311.5 -34.5t337.5 -34.5q186 0 262 84l6 -6q-142 -157 -327 -157q-78 0 -194 32.5t-224 65 t-168 32.5h-153z" />
<glyph unicode="&#x7a;e" horiz-adv-x="1100" d="M819 388q-27 0 -46 -17.5t-19 -42.5v-56q-18 0 -30.5 13t-12.5 31q0 39 31.5 66.5t76.5 27.5h146q8 0 8 9q0 48 -19.5 84t-55.5 56t-83 20q-89 0 -143.5 -59.5t-54.5 -156.5q0 -66 28 -122t76.5 -88.5t104.5 -32.5q73 0 131 26.5t95 74.5l12 -12q-85 -107 -238 -107 q-120 0 -205.5 72t-85.5 173q0 68 38 125.5t103.5 91t142.5 33.5q106 0 170.5 -49t64.5 -129v-5q0 -12 -9 -20.5t-22 -8.5zM0 0v9q24 0 72 78l259 420q13 23 33.5 40t38.5 22v3h-193q-76 0 -108.5 -23t-36.5 -94l-1 -20l-7 1l11 212l7 -1l-3 -67q9 9 26 9h389v-9 q-21 0 -69 -78l-259 -418q-33 -52 -48 -63v-3h38q74 0 311.5 -34.5t337.5 -34.5q186 0 262 84l6 -6q-142 -157 -327 -157q-78 0 -194 32.5t-224 65t-168 32.5h-153z" />
<glyph unicode="&#x7a;i" horiz-adv-x="975" d="M0 0v9q24 0 72 78l259 420q12 23 32.5 40t39.5 22v3h-193q-77 0 -109 -23t-36 -94l-2 -20l-6 1l11 212l7 -1l-3 -67q9 9 26 9h389v-9q-21 0 -69 -78l-259 -418q-33 -52 -48 -63v-3h37q55 0 223.5 -24.5t243.5 -24.5q126 0 211.5 57.5t107.5 155.5q-13 -24 -33.5 -42 t-47.5 -28t-56 -10q-82 0 -132.5 40.5t-50.5 106.5v272q0 30 -30 30h-47v9h57q37 0 63.5 12.5t26.5 40.5v4h8v-85v-309q0 -46 29 -74.5t76 -28.5q56 0 95.5 37t39.5 89q0 48 -35 81.5t-85 33.5q-19 0 -32 12.5t-13 30.5h20q67 0 115 -46.5t48 -111.5q0 -156 -103 -251 t-271 -95q-59 0 -142 25t-160.5 50t-122.5 25h-151zM652 800q20 0 32 -11.5t12 -32.5q0 -13 -5 -23t-15 -16t-24 -6q-20 0 -32.5 12t-12.5 33q0 20 12 32t33 12z" />
<glyph unicode="&#x7a;u" horiz-adv-x="1076" d="M548 589h245v-9h-44q-36 0 -44.5 -8.5t-8.5 -44.5v-289q0 -58 31 -88t90 -30q43 0 75 12t49 26.5t41 42.5v308q0 39 -11.5 55t-45.5 16h-37v9h175v-9h-16q-21 0 -34 -17t-13 -44v-325q-26 -31 -44.5 -47t-55 -30.5t-83.5 -14.5q-90 0 -144.5 47.5t-54.5 124.5v253 q0 36 -9 44.5t-45 8.5h-16v9zM0 0v9q24 0 72 78l259 420q13 23 33.5 40t38.5 22v3h-193q-76 0 -108.5 -23t-36.5 -94l-1 -20l-7 1l11 212l7 -1l-3 -67q9 9 26 9h389v-9q-21 0 -69 -78l-259 -418q-33 -52 -48 -63v-3h33q75 0 304 -34.5t320 -34.5q186 0 262 84l6 -6 q-142 -157 -327 -157q-71 0 -181 32.5t-215 65t-165 32.5h-148z" />
<glyph unicode="&#x7a;n" horiz-adv-x="1174" d="M0 0v9q24 0 72 78l259 420q12 23 32.5 40t39.5 22v3h-193q-77 0 -109 -23t-36 -94l-2 -20l-6 1l11 212l7 -1l-3 -67q9 9 26 9h389v-9q-21 0 -69 -78l-259 -418q-33 -52 -48 -63v-3h37q55 0 223.5 -24.5t243.5 -24.5q139 0 196 84l5 -6q-107 -157 -245 -157q-47 0 -109 17 t-112 38t-106.5 38t-92.5 17h-151zM525 100v9h35q19 0 28.5 1.5t15.5 7.5t7.5 15.5t1.5 28.5v340q0 7 -2.5 12.5t-6.5 10t-10.5 7t-13.5 2.5h-4l-59 -5l-1 6l77 16q32 6 53 25t21 48v4h8v-131q0 -87 -2 -105h7q3 27 16 65q22 64 71.5 102t111.5 38q80 0 124 -41t44 -110 v-326q-9 -21 -9 -40q0 -28 17.5 -45t46.5 -17q26 0 42 16t16 43q0 38 -24.5 59t-62.5 26q0 15 39 15q23 -14 40 -41t17 -59q0 -40 -25.5 -64t-66.5 -24q-45 0 -76.5 38t-31.5 92v310q0 151 -98 151q-78 0 -129 -68t-51 -176v-174q0 -36 9 -44.5t45 -8.5h35v-9h-255z" />
<glyph unicode="Zo" horiz-adv-x="1080" d="M0 0v9q13 0 33.5 20t38.5 58l262 550q11 23 31.5 39.5t39.5 21.5v3h-195q-77 0 -109 -22.5t-36 -93.5l-1 -20l-7 1l11 212l7 -1l-3 -67q9 9 26 9h389v-9q-11 0 -30.5 -19.5t-38.5 -58.5l-262 -548q-21 -43 -48 -63v-3h36q74 0 306.5 -34.5t329.5 -34.5q181 0 257 84l6 -6 q-142 -157 -322 -157q-76 0 -188.5 32.5t-218.5 65t-166 32.5h-148zM765 102q-124 0 -200 68t-76 180q0 102 81 174.5t195 72.5q123 0 198.5 -68t75.5 -179q0 -103 -80.5 -175.5t-193.5 -72.5zM768 120q83 0 133.5 58t50.5 153q0 103 -56 175.5t-135 72.5q-83 0 -134 -58 t-51 -153q0 -103 56.5 -175.5t135.5 -72.5z" />
<glyph unicode="Za" horiz-adv-x="995" d="M835 398v50q0 32 -7.5 56.5t-21.5 41.5t-35.5 25.5t-48.5 8.5q-72 0 -113.5 -38t-46.5 -99l-1 -12h-20l11 186h10l-3 -53q-2 -24 -4 -32l7 -2q5 15 16 23q59 44 143 44q95 0 144.5 -41.5t49.5 -120.5v-254q0 -31 5.5 -41t27.5 -10l20 1l17 1l1 -9q-62 -6 -111 -22v8 q0 29 -11 90q-7 44 -8 65h-10q-40 -162 -168 -162q-85 0 -137 38t-52 100q0 71 73.5 114.5t194.5 43.5h78zM835 380h-73q-84 0 -135 -38.5t-51 -101.5q0 -25 8 -45.5t23 -35t36.5 -22.5t46.5 -8q58 0 101.5 53.5t43.5 153.5v44zM0 0v9q13 0 33.5 20t38.5 58l262 550 q11 23 31.5 39.5t39.5 21.5v3h-195q-77 0 -109 -22.5t-36 -93.5l-1 -20l-7 1l11 212l7 -1l-3 -67q9 9 26 9h389v-9q-11 0 -30.5 -19.5t-38.5 -58.5l-262 -548q-21 -43 -48 -63v-3h36q74 0 275 -34.5t298 -34.5q176 0 252 84l6 -6q-52 -57 -106 -92.5t-104.5 -50 t-106.5 -14.5q-50 0 -109.5 13.5t-115 32.5t-109 38t-106.5 32.5t-93 13.5h-125z" />
<glyph unicode="Ze" horiz-adv-x="1078" d="M785 388q-27 0 -46 -17.5t-19 -42.5v-56q-18 0 -30.5 13t-12.5 31q0 39 31.5 66.5t76.5 27.5h146q8 0 8 9q0 48 -19.5 84t-55.5 56t-83 20q-89 0 -143.5 -59.5t-54.5 -156.5q0 -101 61.5 -172t147.5 -71q73 0 131 26.5t95 74.5l12 -12q-85 -107 -238 -107 q-120 0 -205.5 72t-85.5 173q0 68 38 125.5t103.5 91t142.5 33.5q70 0 123.5 -22t82.5 -62.5t29 -93.5v-5q0 -12 -9 -20.5t-22 -8.5zM0 0v9q13 0 33.5 20t38.5 58l262 550q11 23 31.5 39.5t39.5 21.5v3h-195q-77 0 -109 -22.5t-36 -93.5l-1 -20l-7 1l11 212l7 -1l-3 -67 q9 9 26 9h389v-9q-11 0 -30.5 -19.5t-38.5 -58.5l-262 -548q-21 -43 -48 -63v-3h36q74 0 306.5 -34.5t329.5 -34.5q181 0 257 84l6 -6q-142 -157 -322 -157q-76 0 -188.5 32.5t-218.5 65t-166 32.5h-148z" />
<glyph unicode="Zu" horiz-adv-x="1012" d="M484 589h245v-9h-44q-36 0 -44.5 -8.5t-8.5 -44.5v-289q0 -58 31 -88t90 -30q43 0 75 12t49 26.5t41 42.5v308q0 39 -11.5 55t-45.5 16h-37v9h175v-9h-16q-21 0 -34 -17t-13 -44v-325q-26 -31 -44.5 -47t-55 -30.5t-83.5 -14.5q-90 0 -144.5 47.5t-54.5 124.5v253 q0 36 -9 44.5t-45 8.5h-16v9zM0 0v9q13 0 33.5 20t38.5 58l262 550q11 23 32 40t40 22v3h-196q-76 0 -108.5 -23t-36.5 -94l-1 -20l-7 1l11 212l7 -1l-3 -67q9 9 26 9h389v-9q-11 0 -30.5 -19.5t-38.5 -58.5l-262 -548q-21 -43 -48 -63v-3h36q74 0 290 -34.5t313 -34.5 q176 0 252 84l6 -6q-142 -157 -317 -157q-76 0 -186 32.5t-213.5 65t-163.5 32.5h-125z" />
<glyph unicode="&#x7a;&#x7a;" horiz-adv-x="971" d="M0 0v9q24 0 72 78l259 420q12 22 32.5 39t39.5 22v3h-193q-77 0 -109 -22.5t-36 -93.5l-2 -20l-6 1l11 212l7 -1l-3 -67q9 9 26 9h389v-9q-21 0 -69 -78l-259 -418q-33 -52 -48 -63v-3h37q55 0 283.5 -24.5t303.5 -24.5q139 0 196 84l5 -6q-107 -157 -245 -157 q-59 0 -171 27.5t-218 55t-151 27.5h-151zM492 111v9q41 0 89 78l190 309q14 22 34 39t38 22v3h-143q-77 0 -109 -22.5t-36 -93.5l-1 -20l-7 1l11 212l7 -1l-3 -67q9 9 26 9h339v-9q-21 0 -69 -78l-190 -307q-32 -51 -49 -63v-3h164q75 0 106 21.5t35 87.5l2 37l10 -1 l-9 -153q-10 -10 -24 -10h-411z" />
<glyph unicode="Le" horiz-adv-x="930" d="M371 357q0 99 83.5 169.5t200.5 70.5q106 0 170.5 -49t64.5 -129v-5q0 -12 -9 -20.5t-22 -8.5l-204 3q-27 0 -46 -17.5t-19 -42.5v-56q-18 0 -30.5 13t-12.5 31q0 39 31.5 66.5t76.5 27.5h146q8 0 8 9q0 48 -19.5 84t-55.5 56t-83 20q-44 0 -81 -15t-62.5 -41.5t-40 -65 t-14.5 -84.5q0 -63 28 -117t76.5 -85t104.5 -31q73 0 131 26.5t95 74.5l12 -12q-85 -107 -238 -107q-120 0 -205.5 69t-85.5 166zM18 40v9h35q35 0 44 11.5t9 48.5v549q0 36 -8.5 44t-44.5 8h-35v9h255v-9h-35q-36 0 -45 -8t-9 -44v-547q0 -30 -22 -52v-1h54q55 0 223 -31 t243 -31q140 0 197 84l4 -6q-106 -156 -245 -156q-38 0 -85.5 12.5t-91 30.5t-86.5 36t-84.5 30.5t-71.5 12.5h-201z" />
<glyph unicode="Lo" horiz-adv-x="960" d="M645 122q-124 0 -200 65.5t-76 172.5q0 98 81 167.5t195 69.5q123 0 198.5 -65t75.5 -172q0 -99 -80.5 -168.5t-193.5 -69.5zM648 140q83 0 133.5 55.5t50.5 145.5q0 99 -56 168.5t-135 69.5q-83 0 -134 -55.5t-51 -145.5q0 -99 56.5 -168.5t135.5 -69.5zM18 40v9h35 q35 0 44 11.5t9 48.5v549q0 36 -8.5 44t-44.5 8h-35v9h255v-9h-35q-36 0 -45 -8t-9 -44v-547q0 -30 -22 -52v-1h54q55 0 223 -31t243 -31q140 0 197 84l4 -6q-106 -156 -245 -156q-38 0 -85.5 12.5t-91 30.5t-86.5 36t-84.5 30.5t-71.5 12.5h-201z" />
<glyph unicode="i&#x142;" horiz-adv-x="707" d="M95 214v307q0 30 -30 30h-45v9h55q23 0 42 4.5t33.5 17t14.5 31.5v4h8v-85v-317q-9 -21 -9 -40q0 -46 26.5 -84t72.5 -60.5t100 -22.5q53 0 102 18t87.5 49t65.5 74t38 93q-19 -36 -56 -58t-81 -22q-80 0 -129 39t-49 103v135l-74 -55l-17 21l91 68v258q0 30 -30 30h-47 v9h57q37 0 63.5 12.5t26.5 40.5v4h8v-85v-211l186 139l16 -21l-202 -151v-220q0 -44 27.5 -71t72.5 -27q56 0 95.5 37t39.5 89q0 48 -35 81.5t-85 33.5q-19 0 -32 12.5t-13 30.5h20q67 0 115 -46.5t48 -111.5q0 -89 -43.5 -164t-118 -119t-162.5 -44q-105 0 -179 69t-74 166 zM134 800q20 0 32 -11.5t12 -32.5q0 -13 -5 -23t-15 -16t-24 -6q-20 0 -32.5 12t-12.5 33q0 20 12 32t33 12z" />
<glyph unicode="&#x142;&#x142;" horiz-adv-x="743" d="M131 214v116l-97 -73l-17 21l114 85v368q0 30 -30 30h-45v9h55q37 0 63.5 12.5t26.5 40.5v4h8v-85v-321l168 126v184q0 30 -30 30h-47v9h57q37 0 63.5 12.5t26.5 40.5v4h8v-85v-137l145 108l16 -21l-161 -120v-294q0 -44 27.5 -71t72.5 -27q56 0 95.5 37t39.5 89 q0 48 -35 81.5t-85 33.5q-19 0 -32 12.5t-13 30.5h20q67 0 115 -46.5t48 -111.5q0 -135 -95 -231t-229 -96q-105 0 -179 69t-74 166zM377 304v209l-168 -125v-173q-9 -21 -9 -40q0 -46 26.5 -84t72.5 -60.5t100 -22.5q70 0 132.5 30.5t104 84t56.5 119.5q-13 -24 -33.5 -42 t-47.5 -28t-56 -10q-80 0 -129 39t-49 103z" />
<glyph unicode="e&#x142;" horiz-adv-x="1127" d="M41 297q0 124 89 212t215 88q120 0 192.5 -65.5t72.5 -172.5v-5q0 -12 -8.5 -20.5t-21.5 -8.5h-1l-274 3q-31 0 -53 -20.5t-22 -49.5v-56q-18 0 -30.5 13t-12.5 31q0 29 16 52.5t43 37.5t59 14h214q8 0 8 9q0 99 -51 159.5t-135 60.5q-96 0 -155.5 -73t-59.5 -193 q0 -159 131.5 -255.5t346.5 -96.5q164 0 292.5 63.5t170.5 161.5q-21 -29 -55 -46.5t-73 -17.5q-80 0 -129 39t-49 103v175l-74 -55l-17 21l91 68v258q0 30 -30 30h-47v9h57q37 0 63.5 12.5t26.5 40.5v4h8v-85v-211l186 139l16 -21l-202 -151v-260q0 -44 27.5 -71t72.5 -27 q56 0 95.5 37t39.5 89q0 48 -35 81.5t-85 33.5q-19 0 -32 12.5t-13 30.5h20q67 0 115 -46.5t48 -111.5q0 -91 -67.5 -169t-183.5 -123t-252 -45q-163 0 -287.5 45.5t-192.5 129.5t-68 193z" />
<glyph unicode="Ak" horiz-adv-x="1381" d="M1278 -11q-67 0 -97 40.5t-45 125.5q-5 29 -9.5 47t-16.5 41.5t-29 37t-46.5 23t-70.5 9.5h-39v-41q0 -33 14 -84q12 -45 12 -72q0 -39 -16.5 -68t-47 -45t-69.5 -16q-36 0 -70.5 9.5t-71.5 31t-70 64.5t-58 103h-396l-54 -124q-5 -12 -5 -23q0 -17 13 -28t35 -11h49v-9 h-182v9h16q17 0 29.5 15.5t25.5 46.5l281 648h77v-12q0 -36 9 -58l182 -446q41 -101 84 -149.5t108 -48.5q55 0 88.5 30.5t33.5 80.5q0 40 -25 66t-67 29h-91v9h35q20 0 29 1t15.5 7t7.5 15t1 29v459q0 30 -30 30h-47v9h57q37 0 63.5 12.5t26.5 40.5v4h8v-85v-420 q81 0 92 14l158 179q18 20 18 38q0 27 -52 27h-9v9h221v-9h-12q-84 0 -145 -69l-160 -181v-4q45 -10 77.5 -26.5t50.5 -33t29.5 -41.5t15.5 -43.5t8 -46.5q5 -42 14 -67.5t27 -40t47 -14.5q26 0 41.5 17.5t15.5 46.5q0 38 -24.5 59t-62.5 26q0 15 39 15q23 -14 40 -41 t17 -59q0 -40 -25.5 -64t-67.5 -24zM160 213h381l-170 417q-8 18 -8 40h-9q0 -12 -12 -40z" />
<glyph unicode="Akt" horiz-adv-x="1886" d="M160 213h381l-170 417q-8 18 -8 40h-9q0 -12 -12 -40zM8 0v9h16q17 0 29.5 15.5t25.5 46.5l281 648h77v-12q0 -36 9 -58l182 -446q41 -101 84 -149.5t108 -48.5q55 0 88.5 30.5t33.5 80.5q0 40 -25 66t-67 29h-91v9h35q20 0 29 1t15.5 7t7.5 15t1 29v459q0 30 -30 30h-47 v9h57q37 0 63.5 12.5t26.5 40.5v4h8v-85v-420q54 0 65 14l158 179q18 20 18 38q0 27 -52 27h-9v9h226v-9h-17q-84 0 -145 -69l-160 -181v-4q49 -6 105 -40.5t104 -81.5q8 -8 32 -32.5t36 -35.5l36 -33t40 -33.5t40 -27.5t44 -24t44 -14t47 -6q120 0 200 61.5t100 165.5 q-19 -37 -56.5 -60t-82.5 -23q-80 0 -129 39t-49 103v278h-131v27h75q41 0 71.5 32.5t41.5 63.5t11 47v117h10v-217q0 -36 -13 -42v-1h262v-27h-249v-304q0 -44 27.5 -71t72.5 -27q56 0 95.5 37t39.5 89q0 48 -35 81.5t-85 33.5q-19 0 -32 12.5t-13 30.5h20q67 0 115 -46.5 t48 -111.5q0 -138 -89 -222.5t-235 -84.5q-46 0 -90 9.5t-79 23t-72.5 37t-62 41.5t-55.5 48t-46 46t-41 44q-9 10 -13 14q-65 71 -100 71h-43v-41q0 -33 14 -84q12 -45 12 -72q0 -39 -16.5 -68t-47 -45t-69.5 -16q-36 0 -70.5 9.5t-71.5 31t-70 64.5t-58 103h-396l-54 -124 q-5 -12 -5 -23q0 -17 13 -28t35 -11h49v-9h-182z" />
<glyph unicode="lit" horiz-adv-x="1127" d="M1092 136q0 -60 -45 -102t-108 -42q-80 0 -129 39t-49 103v418h-211v27h155q41 0 71.5 32.5t41.5 63.5t11 47v117h10v-217q0 -36 -13 -42v-1h262v-27h-249v-444q0 -44 27.5 -71t72.5 -27q56 0 95.5 37t39.5 89q0 48 -35 81.5t-85 33.5q-19 0 -32 12.5t-13 30.5h20 q67 0 115 -46.5t48 -111.5zM328 304v217q0 30 -30 30h-43v9h53q37 0 63.5 12.5t26.5 40.5v4h8v-85v-254q0 -44 27.5 -71t72.5 -27q56 0 95.5 37t39.5 89q0 14 -6 27t-16 22.5t-24 15t-30 5.5q-9 0 -16.5 4.5t-12 12t-4.5 16.5h15q46 0 79 -30.5t33 -72.5q0 -89 -43.5 -164 t-118 -119t-162.5 -44q-105 0 -179 69t-74 166v517q0 30 -30 30h-47v9h57q23 0 42 4.5t33.5 17t14.5 31.5v4h8v-85v-527q-9 -21 -9 -40q0 -46 26.5 -84t72.5 -60.5t100 -22.5q53 0 102 18t87.5 49t65.5 74t38 93q-13 -24 -33.5 -42t-47.5 -28t-56 -10q-80 0 -129 39t-49 103 zM367 820q20 0 32 -11.5t12 -32.5q0 -13 -5 -23t-15 -16t-24 -6q-20 0 -32.5 12t-12.5 33q0 20 12 32t33 12z" />
<glyph unicode="An" horiz-adv-x="1373" d="M8 0v9h16q17 0 29.5 15.5t25.5 46.5l281 648h77v-12q0 -36 9 -58l182 -446q41 -101 84 -149.5t108 -48.5q52 0 84.5 30.5t32.5 80.5q0 20 -6.5 37t-18.5 29t-29 19.5t-38 9.5h-91v9h35q36 0 44.5 8t8.5 44v230q0 14 -9 23t-24 9h-4l-59 -5l-1 6l77 16q32 6 53 25t21 48v4 h8v-131q0 -87 -2 -105h7q3 27 16 65q22 64 71.5 102t111.5 38q40 0 72 -11t53 -30.5t32 -47.5t11 -62v-384q0 -36 8.5 -44.5t44.5 -8.5h36v-9h-255v9h97v2q-9 9 -9 26v392q0 76 -23.5 113.5t-74.5 37.5q-78 0 -129 -68t-51 -176v-64q0 -33 14 -84q12 -45 12 -72 q0 -58 -35.5 -93.5t-92.5 -35.5q-36 0 -70.5 9.5t-71.5 31t-70 64.5t-58 103h-396l-54 -124q-5 -12 -5 -23q0 -17 13 -28t35 -11h49v-9h-182zM160 213h381l-170 417q-8 18 -8 40h-9q0 -12 -12 -40z" />
<glyph unicode="Am" horiz-adv-x="1628" d="M8 0v9h16q17 0 29.5 15.5t25.5 46.5l281 648h77v-12q0 -36 9 -58l182 -446q41 -101 84 -149.5t108 -48.5q52 0 84.5 30.5t32.5 80.5q0 40 -25 66t-67 29h-91v9h35q20 0 29 1t15.5 7t7.5 15t1 29v230q0 14 -9 23t-24 9h-4l-59 -5l-1 6l77 16q70 14 70 73v4h8v-131 q0 -72 -2 -92h9q6 42 16 69q47 123 158 123q73 0 103 -35t30 -97v-60h4q1 15 6.5 36.5t10.5 36.5t8 20q26 49 61 74t87 25q44 0 77 -15t52.5 -45.5t19.5 -72.5v-402q0 -36 9 -44.5t45 -8.5h26v-9h-225v9h76v2q-9 9 -9 26v418q0 59 -22 92t-58 33q-68 0 -110 -63.5 t-42 -167.5v-287q0 -36 9 -44.5t45 -8.5h26v-9h-216v9h67v2q-9 9 -9 26v418q0 59 -22 92t-58 33q-68 0 -110 -63.5t-42 -167.5v-77q0 -33 14 -84q12 -45 12 -72q0 -58 -35.5 -93.5t-92.5 -35.5q-36 0 -70.5 9.5t-71.5 31t-70 64.5t-58 103h-396l-54 -124q-5 -12 -5 -23 q0 -17 13 -28t35 -11h49v-9h-182zM160 213h381l-170 417q-8 18 -8 40h-9q0 -12 -12 -40z" />
<glyph unicode="Ant" horiz-adv-x="1860" d="M8 0v9h16q17 0 29.5 15.5t25.5 46.5l281 648h77v-12q0 -36 9 -58l182 -446q41 -101 84 -149.5t108 -48.5q52 0 84.5 30.5t32.5 80.5q0 20 -6.5 37t-18.5 29t-29 19.5t-38 9.5h-91v9h35q36 0 44.5 8t8.5 44v230q0 14 -9 23t-24 9h-4l-59 -5l-1 6l77 16q32 6 53 25t21 48v4 h8v-131q0 -87 -2 -105h7q3 27 16 65q22 64 71.5 102t111.5 38q80 0 124 -41t44 -110v-201q-9 -21 -9 -40q0 -89 65.5 -143t173.5 -54q107 0 189 66.5t104 167.5q-19 -36 -56 -58t-81 -22q-80 0 -129 39t-49 103v248h-131v27h75q32 0 57.5 19t39 45t20.5 47.5t7 31.5v117h10 v-217q0 -36 -13 -42v-1h262v-27h-249v-274q0 -44 27.5 -71t72.5 -27q56 0 95.5 37t39.5 89q0 48 -35 81.5t-85 33.5q-19 0 -32 12.5t-13 30.5h20q67 0 115 -46.5t48 -111.5q0 -89 -43.5 -164t-118 -119t-162.5 -44q-132 0 -212.5 73t-80.5 192v185q0 76 -23 113.5t-75 37.5 q-77 0 -128.5 -68t-51.5 -176v-64q0 -33 14 -84q12 -45 12 -72q0 -58 -35.5 -93.5t-92.5 -35.5q-36 0 -70.5 9.5t-71.5 31t-70 64.5t-58 103h-396l-54 -124q-5 -12 -5 -23q0 -17 13 -28t35 -11h49v-9h-182zM160 213h381l-170 417q-8 18 -8 40h-9q0 -12 -12 -40z" />
<glyph unicode="Amt" horiz-adv-x="2124" d="M8 0v9h16q17 0 29.5 15.5t25.5 46.5l281 648h77v-12q0 -36 9 -58l182 -446q41 -101 84 -149.5t108 -48.5q52 0 84.5 30.5t32.5 80.5q0 26 -11.5 47t-32 33.5t-48.5 14.5h-91v9h35q36 0 44.5 8t8.5 44v230q0 14 -9 23t-24 9h-4l-59 -5l-1 6l77 16q21 4 36 13t24.5 24.5 t9.5 35.5v4h8v-131q0 -72 -2 -92h9q6 42 16 69q47 123 158 123q73 0 103 -35t30 -97v-60h4q1 22 10.5 52.5t14.5 40.5q52 99 148 99q67 0 108 -35t41 -98v-219q-9 -21 -9 -40q0 -89 65.5 -143t173.5 -54q107 0 189 66.5t104 167.5q-13 -24 -33.5 -42t-47.5 -28t-56 -10 q-80 0 -129 39t-49 103v248h-131v27h75q32 0 57.5 19t39 45t20.5 47.5t7 31.5v117h10v-217q0 -36 -13 -42v-1h262v-27h-249v-274q0 -44 27.5 -71t72.5 -27q56 0 95.5 37t39.5 89q0 48 -35 81.5t-85 33.5q-19 0 -32 12.5t-13 30.5h20q67 0 115 -46.5t48 -111.5 q0 -89 -43.5 -164t-118 -119t-162.5 -44q-132 0 -212.5 73t-80.5 192v211q0 59 -22 92t-58 33q-68 0 -110 -63.5t-42 -167.5v-287q0 -36 9 -44.5t45 -8.5h26v-9h-216v9h67v2q-9 9 -9 26v418q0 59 -22 92t-58 33q-68 0 -110 -63.5t-42 -167.5v-77q0 -33 14 -84q12 -45 12 -72 q0 -58 -35.5 -93.5t-92.5 -35.5q-36 0 -70.5 9.5t-71.5 31t-70 64.5t-58 103h-396l-54 -124q-5 -12 -5 -23q0 -17 13 -28t35 -11h49v-9h-182zM160 213h381l-170 417q-8 18 -8 40h-9q0 -12 -12 -40z" />
<glyph unicode="el" horiz-adv-x="1082" d="M804 742v-504q0 -44 27.5 -71t72.5 -27q56 0 95.5 37t39.5 89q0 31 -16 57.5t-43.5 42t-60.5 15.5q-19 0 -32 12.5t-13 30.5h20q67 0 115 -46.5t48 -111.5q0 -91 -64 -169t-174 -123t-240 -45q-120 0 -220 26.5t-170 74.5t-109 116.5t-39 150.5q0 124 89 212t215 88 q79 0 139 -29.5t93 -83.5t33 -125v-5q0 -12 -8.5 -20.5t-21.5 -8.5h-1l-274 4q-31 0 -53 -21t-22 -49v-57q-18 0 -30.5 13t-12.5 32q0 28 16 51.5t43 37.5t59 14h214q8 0 8 9q0 99 -51 159.5t-135 60.5q-96 0 -155.5 -73t-59.5 -193q0 -159 128.5 -255.5t339.5 -96.5 q157 0 279 64.5t161 163.5q-21 -31 -55.5 -49t-74.5 -18q-80 0 -129 39t-49 103v467q0 30 -30 30h-47v9h57q37 0 63.5 12.5t26.5 40.5v4h8v-85z" />
<glyph unicode="cl" horiz-adv-x="1066" d="M41 297q0 124 93.5 212t225.5 88q108 0 183 -64q7 -7 11 -20l7 2q-2 10 -3 29l-2 73h9l9 -289l-18 -1l-3 93q-4 66 -64.5 113t-136.5 47q-100 0 -161 -73.5t-61 -193.5q0 -159 124.5 -255.5t328.5 -96.5q156 0 276 64t159 164q-21 -31 -55.5 -49t-74.5 -18q-80 0 -129 39 t-49 103v467q0 30 -30 30h-47v9h57q37 0 63.5 12.5t26.5 40.5v4h8v-85v-504q0 -44 27.5 -71t72.5 -27q56 0 95.5 37t39.5 89q0 48 -35 81.5t-85 33.5q-19 0 -32 12.5t-13 30.5h20q67 0 115 -46.5t48 -111.5q0 -92 -63 -169.5t-172 -122.5t-238 -45q-157 0 -276.5 46 t-185 129.5t-65.5 192.5z" />
<glyph unicode="Al" horiz-adv-x="1162" d="M160 213h381l-170 417q-8 18 -8 40h-9q0 -12 -12 -40zM8 0v9h16q28 0 55 62l281 648h77v-12q0 -36 9 -58l186 -456q35 -85 93.5 -135t137.5 -50q89 0 158.5 53.5t92.5 136.5q-20 -35 -56 -55.5t-79 -20.5q-80 0 -129 39t-49 103v467q0 30 -30 30h-47v9h57q37 0 63.5 12.5 t26.5 40.5v4h8v-85v-504q0 -44 27.5 -71t72.5 -27q56 0 95.5 37t39.5 89q0 48 -35 81.5t-85 33.5q-19 0 -32 12.5t-13 30.5h20q67 0 115 -46.5t48 -111.5q0 -119 -83 -203t-201 -84q-101 0 -180 54.5t-119 151.5l-4 10h-393l-54 -124q-5 -12 -5 -23q0 -17 13 -28t35 -11h49 v-9h-182z" />
<glyph unicode="itt" horiz-adv-x="1187" d="M95 244v277q0 30 -30 30h-45v9h55q23 0 42 4.5t33.5 17t14.5 31.5v4h8v-85v-287q-9 -21 -9 -40q0 -59 29.5 -103.5t84 -69t125.5 -24.5q70 0 132.5 30.5t104 84t56.5 119.5q-13 -24 -33.5 -42t-47.5 -28t-56 -10q-80 0 -129 39t-49 103v248h-131v27h75q41 0 71.5 32.5 t41.5 63.5t11 47v117h10v-217q0 -36 -13 -42v-1h319q41 0 71.5 32.5t41.5 63.5t11 47v117h10v-217q0 -36 -13 -42v-1h262v-27h-249v-444q0 -44 27.5 -71t72.5 -27q56 0 95.5 37t39.5 89q0 48 -35 81.5t-85 33.5q-19 0 -32 12.5t-13 30.5h20q67 0 115 -46.5t48 -111.5 q0 -60 -45 -102t-108 -42q-80 0 -129 39t-49 103v418h-362v-274q0 -44 27.5 -71t72.5 -27q56 0 95.5 37t39.5 89q0 48 -35 81.5t-85 33.5q-19 0 -32 12.5t-13 30.5h20q67 0 115 -46.5t48 -111.5q0 -135 -95 -231t-229 -96q-132 0 -212.5 73t-80.5 192zM133 820 q20 0 32 -11.5t12 -32.5q0 -13 -5 -23t-15 -16t-24 -6q-20 0 -32.5 12t-12.5 33q0 20 12 32t33 12z" />
<glyph unicode="es" horiz-adv-x="1128" d="M37 328q0 111 89 190t215 79q120 0 192.5 -65.5t72.5 -172.5v-5q0 -12 -8.5 -20.5t-21.5 -8.5h-1l-269 3q-31 0 -53 -20.5t-22 -49.5v-56q-18 0 -30.5 13t-12.5 31q0 29 16 52.5t43 37.5t59 14h209q8 0 8 9q0 99 -51 159.5t-135 60.5q-63 0 -112 -30.5t-75.5 -87 t-26.5 -129.5q0 -111 65.5 -196.5t185 -132t275.5 -46.5q167 0 269 52t102 137q0 25 -11.5 45t-34.5 35t-45.5 25t-56 21.5t-53.5 19.5t-47.5 23t-42.5 30t-26.5 38.5t-11.5 51.5q0 73 54 117.5t143 44.5q74 0 133 -44q11 -8 16 -23l7 2q-2 8 -4 32l-3 53h10l11 -236l-18 -1 l-2 42q-2 31 -11.5 58.5t-27.5 50t-46.5 35.5t-64.5 13q-61 0 -94 -31.5t-33 -90.5q0 -17 8 -31.5t19.5 -24.5t32.5 -20.5t37.5 -17t44.5 -15.5q33 -12 56 -21.5t50.5 -25.5t44.5 -34.5t29 -45.5t12 -59q0 -101 -126 -163t-332 -62q-270 0 -435 107.5t-165 283.5z" />
<glyph unicode="R&#xf6;" horiz-adv-x="1230" d="M822 782q20 0 32.5 -11.5t12.5 -32.5q0 -20 -12 -32t-33 -12q-20 0 -32 11.5t-12 32.5q0 20 11.5 32t32.5 12zM1018 782q20 0 32 -11.5t12 -32.5q0 -20 -11.5 -32t-32.5 -12q-20 0 -32.5 11.5t-12.5 32.5q0 20 12 32t33 12zM1196 88q-71 -61 -169.5 -98.5t-205.5 -37.5 q-123 0 -243.5 53t-218.5 166l-21 25q-24 28 -36.5 41.5t-30.5 25.5t-34 12h-12v17h46q84 0 135.5 56.5t51.5 148.5q0 84 -55 144t-132 60h-104v-1q17 -17 17 -52v-586q0 -36 9 -44.5t45 -8.5h58v-9h-278v9h35q36 0 44.5 8.5t8.5 44.5v595q0 36 -8.5 44.5t-44.5 8.5h-35v9 h261q120 0 193 -61t73 -161q0 -86 -60 -146t-152 -70l-20 -1v-6q52 -6 109 -68q107 -120 222.5 -172t225.5 -52q57 0 112.5 13t97 33t68 36.5t43.5 30.5zM915 122q-114 0 -195 69.5t-81 168.5q0 107 76 172t200 65q113 0 193.5 -69.5t80.5 -167.5q0 -107 -75.5 -172.5 t-198.5 -65.5zM918 140q76 0 130 59t54 142q0 107 -52.5 172.5t-138.5 65.5q-77 0 -131 -59t-54 -142q0 -107 53 -172.5t139 -65.5z" />
<glyph unicode="R&#xe4;" horiz-adv-x="1144" d="M762 782q20 0 32.5 -11.5t12.5 -32.5q0 -20 -12 -32t-33 -12q-20 0 -32 11.5t-12 32.5q0 20 11.5 32t32.5 12zM958 782q20 0 32 -11.5t12 -32.5q0 -20 -11.5 -32t-32.5 -12q-20 0 -32.5 11.5t-12.5 32.5q0 20 12 32t33 12zM987 384v64q0 64 -29 98t-84 34q-48 0 -84 -18 t-55 -49t-21 -70l-3 -22h-18l11 196h10l-3 -53q-2 -24 -4 -32l7 -2q5 15 16 23q59 44 143 44q95 0 144.5 -41.5t49.5 -120.5v-284q0 -31 5.5 -41t27.5 -10q3 0 9.5 0.5t10.5 0.5l17 1l1 -9q-62 -6 -111 -22v8q0 25 -9.5 82.5t-9.5 72.5h-10q-40 -162 -168 -162 q-85 0 -137 39.5t-52 104.5q0 76 73.5 122t194.5 46h78zM987 366h-73q-84 0 -135 -41.5t-51 -108.5q0 -53 31.5 -85t82.5 -32q58 0 101.5 53.5t43.5 153.5v60zM18 0v9h35q36 0 44.5 8.5t8.5 44.5v595q0 36 -8.5 44.5t-44.5 8.5h-35v9h261q120 0 193 -61t73 -161 q0 -88 -68.5 -147.5t-163.5 -68.5l-20 -1v-6q27 -3 57 -25.5t78 -68.5l17 -17q27 -26 42 -40t45 -40.5t52.5 -42.5t56 -36t63 -31.5t66 -19.5t72.5 -8q131 0 261 41l28 9l2 -9l-27 -9q-202 -64 -330 -64q-43 0 -85.5 10t-76.5 24t-71.5 39t-62.5 45t-57.5 51.5t-48 48.5 t-41.5 46q-7 8 -11 12q-28 31 -42 45.5t-32 27.5t-31 13h-12v17h46q86 0 146.5 57.5t60.5 147.5q0 92 -51.5 148t-135.5 56h-104v-1q17 -17 17 -52v-586q0 -36 9 -44.5t45 -8.5h58v-9h-278z" />
<glyph unicode="R&#xeb;" horiz-adv-x="1226" d="M817 782q20 0 32.5 -11.5t12.5 -32.5q0 -20 -12 -32t-33 -12q-20 0 -32 11.5t-12 32.5q0 20 11.5 32t32.5 12zM1013 782q20 0 32 -11.5t12 -32.5q0 -20 -11.5 -32t-32.5 -12q-20 0 -32.5 11.5t-12.5 32.5q0 20 12 32t33 12zM935 388q-27 0 -46 -17.5t-19 -42.5v-56 q-18 0 -30.5 13t-12.5 31q0 39 31.5 66.5t76.5 27.5h146q8 0 8 9q0 72 -43.5 116t-114.5 44q-89 0 -143.5 -56.5t-54.5 -149.5q0 -63 28 -117t76.5 -85t104.5 -31q148 0 226 101l12 -12q-40 -52 -101 -79.5t-137 -27.5q-120 0 -205.5 69t-85.5 166q0 99 83.5 169.5 t200.5 70.5q106 0 170.5 -49t64.5 -129v-5q0 -12 -9 -20.5t-22 -8.5zM1196 88q-70 -61 -169 -98t-206 -37q-123 0 -243.5 53t-218.5 165l-21 25q-24 28 -36.5 41.5t-30.5 25.5t-34 12h-12v17h46q84 0 135.5 56.5t51.5 148.5q0 84 -55 144t-132 60h-104v-1q17 -17 17 -52 v-586q0 -36 9 -44.5t45 -8.5h58v-9h-278v9h35q36 0 44.5 8.5t8.5 44.5v595q0 36 -8.5 44.5t-44.5 8.5h-35v9h261q120 0 193 -61t73 -161q0 -86 -60 -146t-152 -70l-20 -1v-6q51 -5 108 -68q109 -120 224.5 -172t224.5 -52q57 0 112.5 13t97 33t68 36.5t43.5 30.5z" />
<glyph unicode="K&#xf6;" horiz-adv-x="1230" d="M822 782q20 0 32.5 -11.5t12.5 -32.5q0 -20 -12 -32t-33 -12q-20 0 -32 11.5t-12 32.5q0 20 11.5 32t32.5 12zM1018 782q20 0 32 -11.5t12 -32.5q0 -20 -11.5 -32t-32.5 -12q-20 0 -32.5 11.5t-12.5 32.5q0 20 12 32t33 12zM915 122q-114 0 -195 69.5t-81 168.5 q0 107 76 172t200 65q113 0 193.5 -69.5t80.5 -167.5q0 -107 -75.5 -172.5t-198.5 -65.5zM918 140q76 0 130 59t54 142q0 107 -52.5 172.5t-138.5 65.5q-77 0 -131 -59t-54 -142q0 -107 53 -172.5t139 -65.5zM1196 88q-61 -53 -157 -94.5t-197 -41.5q-51 0 -97.5 11 t-82.5 25.5t-73 42t-61 49.5t-54.5 59t-46.5 58.5t-43 60.5q-24 35 -37.5 53t-35 43t-37 37.5t-36.5 22t-42 9.5h-12v-352q0 -42 9 -52t45 -10h35v-9h-255v9h35q36 0 44.5 10t8.5 52v586q0 36 -8.5 44.5t-44.5 8.5h-35v9h229v-9h-9q-36 0 -45 -8.5t-9 -42.5v-227q54 0 65 14 l158 199q18 22 18 38q0 27 -52 27h-9v9h226v-9h-17q-38 0 -78 -16.5t-69 -52.5l-159 -201l1 -4q34 -8 64 -25.5t58.5 -48t47 -54.5t48.5 -67q24 -34 38.5 -54t40.5 -50.5t46.5 -49t51.5 -41t61.5 -34.5t70.5 -20.5t83 -8.5q54 0 108 13.5t95 33.5t67.5 36t42.5 29z" />
<glyph unicode="K&#xe4;" horiz-adv-x="1194" d="M1027 398v50q0 32 -7.5 56.5t-21.5 41.5t-35.5 25.5t-48.5 8.5q-72 0 -113.5 -38t-46.5 -99l-1 -12h-20l11 186h10l-3 -53q-2 -24 -4 -32l7 -2q5 15 16 23q59 44 143 44q95 0 144.5 -41.5t49.5 -120.5v-254q0 -31 5.5 -41t27.5 -10l20 1l17 1l1 -9q-62 -6 -111 -22v8 q0 29 -11 90q-7 44 -8 65h-10q-41 -162 -168 -162q-85 0 -137 38t-52 100q0 71 73.5 114.5t194.5 43.5h78zM1027 380h-73q-84 0 -135 -38.5t-51 -101.5q0 -25 8 -45.5t23 -35t36.5 -22.5t46.5 -8q58 0 101.5 53.5t43.5 153.5v44zM18 0v9h35q36 0 44.5 10t8.5 52v586 q0 36 -8.5 44.5t-44.5 8.5h-35v9h229v-9h-9q-36 0 -45 -8t-9 -43v-227q54 0 65 14l158 199q18 22 18 38q0 27 -52 27h-9v9h226v-9h-17q-38 0 -78 -16.5t-69 -52.5l-159 -201l1 -4q18 -4 34.5 -10.5t31.5 -16t28.5 -20t27 -24.5t25.5 -27.5t25 -30.5t23 -31.5t23 -34.5 q29 -44 53.5 -75t63 -68.5t77.5 -60.5t93.5 -39t116.5 -16q143 0 273 41l28 9l2 -9l-27 -9q-202 -64 -330 -64q-36 0 -69 4.5t-62.5 14.5t-55.5 21t-51 29.5t-44 33t-41 38.5t-36 40t-34 43t-30 41.5t-29 42.5q-28 41 -46.5 65.5t-43 50t-48.5 37.5t-50 12h-12v-352 q0 -42 9 -52t45 -10h35v-9h-255zM817 782q13 0 23 -5t16 -15t6 -24q0 -20 -12 -32t-33 -12q-20 0 -32 11.5t-12 32.5q0 20 11.5 32t32.5 12zM1013 782q20 0 32 -11.5t12 -32.5q0 -13 -5 -23t-15 -15.5t-24 -5.5q-13 0 -23 5t-16 15t-6 24q0 20 12 32t33 12z" />
<glyph unicode="R&#xf3;" horiz-adv-x="1230" d="M1196 88q-71 -61 -169.5 -98.5t-205.5 -37.5q-123 0 -243.5 53t-218.5 166l-21 25q-24 28 -36.5 41.5t-30.5 25.5t-34 12h-12v17h46q84 0 135.5 56.5t51.5 148.5q0 84 -55 144t-132 60h-104v-1q17 -17 17 -52v-586q0 -36 9 -44.5t45 -8.5h58v-9h-278v9h35q36 0 44.5 8.5 t8.5 44.5v595q0 36 -8.5 44.5t-44.5 8.5h-35v9h261q120 0 193 -61t73 -161q0 -86 -60 -146t-152 -70l-20 -1v-6q52 -6 109 -68q107 -120 222.5 -172t225.5 -52q57 0 112.5 13t97 33t68 36.5t43.5 30.5zM915 122q-114 0 -195 69.5t-81 168.5q0 107 76 172t200 65 q113 0 193.5 -69.5t80.5 -167.5q0 -107 -75.5 -172.5t-198.5 -65.5zM918 140q76 0 130 59t54 142q0 107 -52.5 172.5t-138.5 65.5q-77 0 -131 -59t-54 -142q0 -107 53 -172.5t139 -65.5zM871 657l-9 8l118 139q4 5 10 5q5 0 10 -4l16 -13l-24 -30z" />
<glyph unicode="K&#xf3;" horiz-adv-x="1230" d="M871 657l-9 8l118 139q4 5 10 5q5 0 10 -4l16 -13l-24 -30zM915 122q-114 0 -195 69.5t-81 168.5q0 107 76 172t200 65q113 0 193.5 -69.5t80.5 -167.5q0 -107 -75.5 -172.5t-198.5 -65.5zM918 140q76 0 130 59t54 142q0 107 -52.5 172.5t-138.5 65.5q-77 0 -131 -59 t-54 -142q0 -107 53 -172.5t139 -65.5zM1196 88q-61 -53 -157 -94.5t-197 -41.5q-51 0 -97.5 11t-82.5 25.5t-73 42t-61 49.5t-54.5 59t-46.5 58.5t-43 60.5q-24 35 -37.5 53t-35 43t-37 37.5t-36.5 22t-42 9.5h-12v-352q0 -42 9 -52t45 -10h35v-9h-255v9h35q36 0 44.5 10 t8.5 52v586q0 36 -8.5 44.5t-44.5 8.5h-35v9h229v-9h-9q-36 0 -45 -8.5t-9 -42.5v-227q54 0 65 14l158 199q18 22 18 38q0 27 -52 27h-9v9h226v-9h-17q-38 0 -78 -16.5t-69 -52.5l-159 -201l1 -4q34 -8 64 -25.5t58.5 -48t47 -54.5t48.5 -67q24 -34 38.5 -54t40.5 -50.5 t46.5 -49t51.5 -41t61.5 -34.5t70.5 -20.5t83 -8.5q54 0 108 13.5t95 33.5t67.5 36t42.5 29z" />
<glyph unicode="&#x17c;a" horiz-adv-x="1037" d="M264 770q20 0 32 -11.5t12 -32.5q0 -20 -11.5 -32.5t-32.5 -12.5q-20 0 -32.5 12t-12.5 33q0 20 12 32t33 12zM875 384v64q0 64 -29 98t-84 34q-72 0 -114.5 -38.5t-45.5 -98.5l-3 -22h-18l11 196h10l-3 -53q-2 -24 -4 -32l7 -2q5 15 16 23q59 44 143 44 q95 0 144.5 -41.5t49.5 -120.5v-284q0 -31 5.5 -41t27.5 -10q3 0 9.5 0.5t10.5 0.5l17 1l1 -9q-62 -6 -111 -22v8q0 25 -9.5 82.5t-9.5 72.5h-10q-40 -162 -168 -162q-85 0 -137 39.5t-52 104.5q0 76 73.5 122t194.5 46h78zM875 366h-73q-84 0 -135 -41.5t-51 -108.5 q0 -53 31.5 -85t82.5 -32q58 0 101.5 53.5t43.5 153.5v60zM0 0v9q24 0 72 78l259 420q13 23 33.5 40t38.5 22v3h-193q-76 0 -108.5 -23t-36.5 -94l-1 -20l-7 1l11 212l7 -1l-3 -67q9 9 26 9h389v-9q-21 0 -69 -78l-259 -418q-33 -52 -48 -63v-3h38q73 0 281 -39.5t308 -39.5 q186 0 262 84l6 -6q-142 -157 -327 -157q-78 0 -179 35t-194 70t-153 35h-153z" />
<glyph unicode="&#x17c;o" horiz-adv-x="1120" d="M264 770q20 0 32 -11.5t12 -32.5q0 -20 -11.5 -32.5t-32.5 -12.5q-20 0 -32.5 12t-12.5 33q0 20 12 32t33 12zM805 102q-124 0 -200 68t-76 180q0 102 81 174.5t195 72.5q123 0 198.5 -68t75.5 -179q0 -103 -80.5 -175.5t-193.5 -72.5zM808 120q83 0 133.5 58t50.5 153 q0 103 -56 175.5t-135 72.5q-83 0 -134 -58t-51 -153q0 -103 56.5 -175.5t135.5 -72.5zM0 0v9q24 0 72 78l259 420q13 23 33.5 40t38.5 22v3h-193q-76 0 -108.5 -23t-36.5 -94l-1 -20l-7 1l11 212l7 -1l-3 -67q9 9 26 9h389v-9q-21 0 -69 -78l-259 -418q-33 -52 -48 -63v-3 h38q74 0 311.5 -34.5t337.5 -34.5q186 0 262 84l6 -6q-142 -157 -327 -157q-78 0 -194 32.5t-224 65t-168 32.5h-153z" />
<glyph unicode="&#x17c;e" horiz-adv-x="1100" d="M264 770q20 0 32 -11.5t12 -32.5q0 -20 -11.5 -32.5t-32.5 -12.5q-20 0 -32.5 12t-12.5 33q0 20 12 32t33 12zM819 388q-27 0 -46 -17.5t-19 -42.5v-56q-18 0 -30.5 13t-12.5 31q0 39 31.5 66.5t76.5 27.5h146q8 0 8 9q0 48 -19.5 84t-55.5 56t-83 20q-89 0 -143.5 -59.5 t-54.5 -156.5q0 -66 28 -122t76.5 -88.5t104.5 -32.5q73 0 131 26.5t95 74.5l12 -12q-85 -107 -238 -107q-120 0 -205.5 72t-85.5 173q0 104 83.5 177t200.5 73q106 0 170.5 -49t64.5 -129v-5q0 -12 -9 -20.5t-22 -8.5zM0 0v9q24 0 72 78l259 420q13 23 33.5 40t38.5 22v3 h-193q-76 0 -108.5 -23t-36.5 -94l-1 -20l-7 1l11 212l7 -1l-3 -67q9 9 26 9h389v-9q-21 0 -69 -78l-259 -418q-33 -52 -48 -63v-3h38q74 0 311.5 -34.5t337.5 -34.5q186 0 262 84l6 -6q-142 -157 -327 -157q-78 0 -194 32.5t-224 65t-168 32.5h-153z" />
<glyph unicode="&#x17c;&#xf3;" horiz-adv-x="1120" d="M766 657l-9 8l118 139q4 5 10 5q5 0 10 -4l16 -13l-24 -30zM805 102q-124 0 -200 68t-76 180q0 102 81 174.5t195 72.5q123 0 198.5 -68t75.5 -179q0 -103 -80.5 -175.5t-193.5 -72.5zM808 120q83 0 133.5 58t50.5 153q0 103 -56 175.5t-135 72.5q-83 0 -134 -58 t-51 -153q0 -103 56.5 -175.5t135.5 -72.5zM0 0v9q24 0 72 78l259 420q13 23 33.5 40t38.5 22v3h-193q-76 0 -108.5 -23t-36.5 -94l-1 -20l-7 1l11 212l7 -1l-3 -67q9 9 26 9h389v-9q-21 0 -69 -78l-259 -418q-33 -52 -48 -63v-3h38q74 0 311.5 -34.5t337.5 -34.5 q186 0 262 84l6 -6q-142 -157 -327 -157q-78 0 -194 32.5t-224 65t-168 32.5h-153zM264 770q20 0 32 -11.5t12 -32.5q0 -20 -11.5 -32.5t-32.5 -12.5q-20 0 -32.5 12t-12.5 33q0 20 12 32t33 12z" />
<glyph unicode="&#x7a;&#xf3;" horiz-adv-x="1120" d="M805 102q-124 0 -200 68t-76 180q0 102 81 174.5t195 72.5q123 0 198.5 -68t75.5 -179q0 -103 -80.5 -175.5t-193.5 -72.5zM808 120q83 0 133.5 58t50.5 153q0 103 -56 175.5t-135 72.5q-83 0 -134 -58t-51 -153q0 -103 56.5 -175.5t135.5 -72.5zM0 0v9q24 0 72 78 l259 420q13 23 33.5 40t38.5 22v3h-193q-76 0 -108.5 -23t-36.5 -94l-1 -20l-7 1l11 212l7 -1l-3 -67q9 9 26 9h389v-9q-21 0 -69 -78l-259 -418q-33 -52 -48 -63v-3h38q74 0 311.5 -34.5t337.5 -34.5q186 0 262 84l6 -6q-142 -157 -327 -157q-78 0 -194 32.5t-224 65 t-168 32.5h-153zM766 657l-9 8l118 139q4 5 10 5q5 0 10 -4l16 -13l-24 -30z" />
<glyph unicode="&#x17c;n" horiz-adv-x="1174" d="M264 770q20 0 32 -11.5t12 -32.5q0 -20 -11.5 -32.5t-32.5 -12.5q-20 0 -32.5 12t-12.5 33q0 20 12 32t33 12zM0 0v9q24 0 72 78l259 420q12 23 32.5 40t39.5 22v3h-193q-77 0 -109 -23t-36 -94l-2 -20l-6 1l11 212l7 -1l-3 -67q9 9 26 9h389v-9q-21 0 -69 -78l-259 -418 q-33 -52 -48 -63v-3h37q55 0 223.5 -24.5t243.5 -24.5q139 0 196 84l5 -6q-107 -157 -245 -157q-47 0 -109 17t-112 38t-106.5 38t-92.5 17h-151zM525 100v9h35q19 0 28.5 1.5t15.5 7.5t7.5 15.5t1.5 28.5v340q0 14 -9 23t-24 9h-4l-59 -5l-1 6l77 16q32 6 53 25t21 48v4h8 v-131q0 -87 -2 -105h7q3 27 16 65q22 64 71.5 102t111.5 38q80 0 124 -41t44 -110v-326q-9 -21 -9 -40q0 -28 17.5 -45t46.5 -17q26 0 42 16t16 43q0 38 -24.5 59t-62.5 26q0 15 39 15q23 -14 40 -41t17 -59q0 -40 -25.5 -64t-66.5 -24q-45 0 -76.5 38t-31.5 92v310 q0 151 -98 151q-78 0 -129 -68t-51 -176v-174q0 -36 9 -44.5t45 -8.5h35v-9h-255z" />
<glyph unicode="&#x17a;n" horiz-adv-x="1174" d="M0 0v9q24 0 72 78l259 420q12 23 32.5 40t39.5 22v3h-193q-77 0 -109 -23t-36 -94l-2 -20l-6 1l11 212l7 -1l-3 -67q9 9 26 9h389v-9q-21 0 -69 -78l-259 -418q-33 -52 -48 -63v-3h37q55 0 223.5 -24.5t243.5 -24.5q139 0 196 84l5 -6q-107 -157 -245 -157q-47 0 -109 17 t-112 38t-106.5 38t-92.5 17h-151zM525 100v9h35q19 0 28.5 1.5t15.5 7.5t7.5 15.5t1.5 28.5v340q0 14 -9 23t-24 9h-4l-59 -5l-1 6l77 16q32 6 53 25t21 48v4h8v-131q0 -87 -2 -105h7q3 27 16 65q22 64 71.5 102t111.5 38q80 0 124 -41t44 -110v-326q-9 -21 -9 -40 q0 -28 17.5 -45t46.5 -17q26 0 42 16t16 43q0 38 -24.5 59t-62.5 26q0 15 39 15q23 -14 40 -41t17 -59q0 -40 -25.5 -64t-66.5 -24q-45 0 -76.5 38t-31.5 92v310q0 151 -98 151q-78 0 -129 -68t-51 -176v-174q0 -36 9 -44.5t45 -8.5h35v-9h-255zM217 627l-9 8l118 139 q4 5 10 5q5 0 10 -4l16 -13l-24 -30z" />
<glyph unicode="i&#x15b;" horiz-adv-x="755" d="M468 657l-9 8l118 139q4 5 10 5q5 0 10 -4l16 -13l-24 -30zM95 233v288q0 30 -30 30h-45v9h55q37 0 63.5 12.5t26.5 40.5v4h8v-85v-348q0 -84 66.5 -135.5t175.5 -51.5q104 0 168 43.5t64 115.5q0 18 -8.5 34t-20.5 27t-34 22t-39 17.5t-45 16.5q-34 11 -54 19 t-47.5 22.5t-42.5 30t-26.5 39t-11.5 51.5q0 73 54 117.5t143 44.5q74 0 133 -44q11 -8 16 -23l7 2q-2 8 -4 32l-3 53h10l11 -236l-18 -1l-2 42q-2 42 -18 76.5t-50.5 57.5t-81.5 23q-61 0 -94 -31.5t-33 -90.5q0 -17 8.5 -31.5t19.5 -24.5t32.5 -20.5t38 -17t44.5 -16.5 q28 -9 46 -16t43.5 -19t41 -24.5t30.5 -29.5t22.5 -38.5t7.5 -47.5q0 -87 -84.5 -140t-223.5 -53q-144 0 -231.5 70t-87.5 184zM133 820q20 0 32 -11.5t12 -32.5q0 -20 -11.5 -32.5t-32.5 -12.5q-20 0 -32.5 12t-12.5 33q0 20 12 32t33 12z" />
<glyph unicode="e&#x15b;" horiz-adv-x="1128" d="M835 657l-9 8l118 139q4 5 10 5q5 0 10 -4l16 -13l-24 -30zM37 328q0 111 89 190t215 79q120 0 192.5 -65.5t72.5 -172.5v-5q0 -12 -8.5 -20.5t-21.5 -8.5h-1l-269 3q-31 0 -53 -20.5t-22 -49.5v-56q-18 0 -30.5 13t-12.5 31q0 29 16 52.5t43 37.5t59 14h209q8 0 8 9 q0 99 -51 159.5t-135 60.5q-63 0 -112 -30.5t-75.5 -87t-26.5 -129.5q0 -111 65.5 -196.5t185 -132t275.5 -46.5q167 0 269 52t102 137q0 25 -11.5 45t-34.5 35t-45.5 25t-56 21.5t-53.5 19.5t-47.5 23t-42.5 30t-26.5 38.5t-11.5 51.5q0 73 54 117.5t143 44.5q74 0 133 -44 q11 -8 16 -23l7 2q-2 8 -4 32l-3 53h10l11 -236l-18 -1l-2 42q-2 42 -18 76.5t-50.5 57.5t-81.5 23q-61 0 -94 -31.5t-33 -90.5q0 -17 8 -31.5t19.5 -24.5t32.5 -20.5t37.5 -17t44.5 -15.5q33 -12 56 -21.5t50.5 -25.5t44.5 -34.5t29 -45.5t12 -59q0 -101 -126 -163 t-332 -62q-270 0 -435 107.5t-165 283.5z" />
<glyph unicode="u&#x144;" horiz-adv-x="1260" d="M833 116q0 -57 -44.5 -97t-107.5 -40q-89 0 -152 78.5t-63 189.5h-5l-4 -51q-15 -103 -69.5 -153.5t-129.5 -50.5q-76 0 -122.5 39.5t-46.5 111.5v378q0 30 -30 30h-47v9h57q37 0 64.5 12.5t27.5 40.5v4h8v-85v-380q0 -68 26.5 -105t71.5 -37q81 0 130 70t49 185v262 q0 36 -9 44.5t-45 8.5h-17v9l155 4v-8q-4 -24 -4 -53v-318q0 -87 48.5 -149t116.5 -62q55 0 94 33t39 80q0 16 -4.5 30t-12 25t-19 19.5t-25.5 14t-31 6.5h-91v9h35q19 0 28.5 1.5t15.5 7.5t7.5 15.5t1.5 28.5v229q0 14 -9 23t-24 9h-4l-59 -5l-1 6l77 16q32 6 53 25t21 48 v4h8v-131q0 -87 -2 -105h7q3 27 16 65q22 64 71.5 102t111.5 38q80 0 124 -41t44 -110v-384q0 -36 8.5 -44.5t44.5 -8.5h36v-9h-255v9h97v2q-9 9 -9 26v392q0 151 -98 151q-78 0 -129 -68t-51 -176v-63q0 -36 9 -44.5t45 -8.5h35v-9h-125q29 -12 45.5 -37t16.5 -58zM903 657 l-9 8l118 139q4 5 10 5q5 0 10 -4l16 -13l-24 -30z" />
<glyph unicode="&#x105;t" horiz-adv-x="1098" d="M718 -196l5 -17q-45 -14 -72 -14q-51 0 -82 25t-31 65q0 37 37 71.5t91 51.5q-86 17 -138 75t-55 143h-4l-7 -50q-11 -43 -36.5 -75.5t-57.5 -50.5t-63.5 -27t-60.5 -9q-94 0 -151.5 43.5t-57.5 115.5q0 82 57 132.5t151 50.5q61 0 104.5 -33.5t43.5 -80.5 q0 -19 -12.5 -32t-30.5 -13v47q0 39 -31 66.5t-74 27.5q-58 0 -93 -44.5t-35 -117.5q0 -61 39 -98t102 -37q81 0 138 60.5t57 146.5v202q0 68 -49 109.5t-129 41.5q-48 0 -83 -18t-52.5 -48t-19.5 -70l-3 -62h-18l11 236h10l-3 -53q-2 -24 -4 -32l7 -2q5 15 16 23 q59 44 138 44q116 0 186.5 -50t70.5 -132v-200q0 -93 60.5 -150t159.5 -57q102 0 183 51.5t109 132.5q-20 -32 -55 -51t-76 -19q-80 0 -129 39t-49 103v288h-121v27h65q41 0 71.5 32.5t41.5 63.5t11 47v117h10v-217q0 -36 -13 -42v-1h262v-27h-249v-314q0 -44 27.5 -71 t72.5 -27q56 0 95.5 37t39.5 89q0 48 -35 81.5t-85 33.5q-19 0 -32 12.5t-13 30.5h20q67 0 115 -46.5t48 -111.5q0 -119 -96 -203t-231 -84q-63 0 -108 -33t-45 -79q0 -33 21 -53.5t56 -20.5q24 0 58 11z" />
<glyph unicode="&#x119;p" horiz-adv-x="1415" d="M458 -196l5 -17q-45 -14 -72 -14q-51 0 -82 25t-31 65q0 42 26.5 75.5t68.5 54.5q-15 -1 -31 -1q-135 0 -218 84t-83 221q0 124 89 212t215 88q120 0 192.5 -65.5t72.5 -172.5v-5q0 -12 -9 -20.5t-22 -8.5l-274 4q-31 0 -53 -21t-22 -49v-57q-18 0 -30.5 13t-12.5 32 q0 28 16 51.5t43 37.5t59 14h214q8 0 8 9q0 99 -51 159.5t-135 60.5q-96 0 -155.5 -73t-59.5 -193q0 -132 60.5 -213t158.5 -81q49 0 92.5 9t77 22.5t65 36.5t54 45.5t46 54.5t39 58t35.5 62v195q0 7 -2.5 12.5t-6.5 10t-10.5 7t-13.5 2.5h-4l-59 -5l-1 6l77 16q32 6 53 25 t21 48v4h8v-131q0 -32 -5 -77h6q25 41 49.5 70t57.5 55t75.5 39t93.5 13q83 0 147 -37.5t99 -106t35 -158.5q0 -125 -87.5 -214t-211.5 -89q-82 0 -140 52t-58 126q0 70 53.5 119t129.5 49h20q0 -18 -13 -30.5t-32 -12.5q-63 0 -101.5 -34.5t-38.5 -90.5q0 -66 52.5 -113 t127.5 -47q95 0 153.5 83.5t58.5 219.5q0 106 -55.5 181t-134.5 75q-62 0 -113.5 -23t-84.5 -57t-67 -86v-501q0 -36 9 -44.5t45 -8.5h35v-9h-255v9h35q19 0 28.5 1.5t15.5 7.5t7.5 15.5t1.5 28.5v369q-20 -34 -35.5 -59t-38 -54.5t-45.5 -51.5t-51.5 -43.5t-62.5 -36.5 t-73 -23q-51 -12 -88 -48t-37 -88q0 -33 21 -53.5t56 -20.5q24 0 58 11z" />
<glyph unicode="&#x105;k" horiz-adv-x="1256" d="M679 -196l5 -17q-45 -14 -72 -14q-51 0 -82 25t-31 65q0 28 15.5 53.5t43 44t62.5 27.5q-65 19 -106.5 71t-41.5 118h-5l-5 -23q-14 -56 -54 -94.5t-82 -53t-82 -14.5q-94 0 -151.5 43.5t-57.5 115.5q0 82 57 132.5t151 50.5q61 0 104.5 -33.5t43.5 -80.5 q0 -19 -12.5 -32t-30.5 -13v47q0 39 -31 66.5t-74 27.5q-58 0 -93 -44.5t-35 -117.5q0 -61 39 -98t102 -37q81 0 138 60.5t57 146.5v202q0 68 -49 109.5t-129 41.5q-72 0 -112 -37.5t-43 -98.5l-3 -62h-18l11 236h10l-3 -53q-2 -24 -4 -32l7 -2q5 15 16 23q59 44 138 44 q116 0 186.5 -50t70.5 -132v-241q0 -71 48.5 -121t116.5 -50q54 0 88.5 32.5t34.5 80.5q0 40 -25 66t-67 29h-91v9h35q20 0 29 1t15.5 7t7.5 15t1 29v459q0 30 -30 30h-47v9h57q37 0 63.5 12.5t26.5 40.5v4h8v-85v-420q81 0 92 14l158 179q18 20 18 38q0 27 -52 27h-9v9h221 v-9h-12q-84 0 -145 -69l-160 -181v-4q45 -10 77.5 -26.5t50.5 -33t29.5 -41.5t15.5 -43.5t8 -46.5q8 -63 27 -92.5t61 -29.5q26 0 41.5 17.5t15.5 46.5q0 26 -12.5 44.5t-31.5 28t-43 12.5q0 15 39 15q23 -14 40 -41t17 -59q0 -40 -25.5 -64t-67.5 -24q-67 0 -97 40.5 t-45 125.5q-5 29 -9.5 47t-16.5 41.5t-29 37t-46.5 23t-70.5 9.5h-39v-41q0 -33 14 -84q12 -45 12 -72q0 -38 -18 -69t-50.5 -49.5t-73.5 -18.5q-58 0 -99 -33t-41 -79q0 -33 21 -53.5t56 -20.5q24 0 58 11z" />
<glyph unicode="&#x144;s" horiz-adv-x="1081" d="M273 657l-9 8l118 139q4 5 10 5q5 0 10 -4l16 -13l-24 -30zM18 0v9h35q19 0 28.5 1.5t15.5 7.5t7.5 15.5t1.5 28.5v440q0 7 -2.5 12.5t-6.5 10t-10.5 7t-13.5 2.5h-4l-59 -5l-1 6l77 16q32 6 53 25t21 48v4h8v-131q0 -87 -2 -105h7q3 27 16 65q22 64 71.5 102t111.5 38 q80 0 124 -41t44 -110v-235q0 -99 60.5 -164t162.5 -65t156 42t54 122q0 18 -5.5 34t-17.5 28.5t-24.5 21.5t-33 18.5t-35.5 15.5t-39 14q-33 11 -52.5 19t-45.5 22t-40.5 29t-25 37.5t-10.5 49.5q0 73 54 117.5t143 44.5q74 0 133 -44q11 -8 16 -23l7 2q-2 8 -4 32l-3 53 h10l11 -236l-18 -1l-2 42q-3 65 -41.5 111t-108.5 46q-61 0 -94 -31.5t-33 -90.5q0 -17 8 -31.5t19 -24t32 -20.5t36.5 -17t43.5 -16q20 -7 31.5 -11.5t30 -12.5t30 -14t27.5 -16t25.5 -19t20 -21.5t16.5 -26t10 -30.5t4 -35q0 -89 -78.5 -143.5t-206.5 -54.5 q-58 0 -111 19.5t-89.5 50.5t-61.5 62t-39 62v271q0 151 -98 151q-78 0 -129 -68t-51 -176v-274q0 -36 9 -44.5t45 -8.5h35v-9h-255z" />
<glyph unicode="&#x7a;&#x17c;" horiz-adv-x="971" d="M734 770q20 0 32 -11.5t12 -32.5q0 -20 -11.5 -32.5t-32.5 -12.5q-20 0 -32.5 12t-12.5 33q0 20 12 32t33 12zM0 0v9q24 0 72 78l259 420q12 22 32.5 39t39.5 22v3h-193q-77 0 -109 -22.5t-36 -93.5l-2 -20l-6 1l11 212l7 -1l-3 -67q9 9 26 9h389v-9q-21 0 -69 -78 l-259 -418q-33 -52 -48 -63v-3h37q55 0 283.5 -24.5t303.5 -24.5q139 0 196 84l5 -6q-107 -157 -245 -157q-59 0 -171 27.5t-218 55t-151 27.5h-151zM492 111v9q41 0 89 78l190 309q14 22 34 39t38 22v3h-143q-77 0 -109 -22.5t-36 -93.5l-1 -20l-7 1l11 212l7 -1l-3 -67 q9 9 26 9h339v-9q-21 0 -69 -78l-190 -307q-32 -51 -49 -63v-3h164q75 0 106 21.5t35 87.5l2 37l10 -1l-9 -153q-10 -10 -24 -10h-411z" />
<glyph unicode="&#x17b;e" horiz-adv-x="1080" d="M264 900q20 0 32 -11.5t12 -32.5q0 -20 -11.5 -32.5t-32.5 -12.5q-20 0 -32.5 12t-12.5 33q0 20 12 32t33 12zM785 388q-27 0 -46 -17.5t-19 -42.5v-56q-18 0 -30.5 13t-12.5 31q0 39 31.5 66.5t76.5 27.5h146q8 0 8 9q0 48 -19.5 84t-55.5 56t-83 20q-89 0 -143.5 -59.5 t-54.5 -156.5q0 -101 61.5 -172t147.5 -71q73 0 131 26.5t95 74.5l12 -12q-85 -107 -238 -107q-120 0 -205.5 72t-85.5 173q0 104 83.5 177t200.5 73q70 0 123.5 -22t82.5 -62.5t29 -93.5v-5q0 -12 -9 -20.5t-22 -8.5zM0 0v9q13 0 33.5 20t38.5 58l262 550q11 23 31.5 39.5 t39.5 21.5v3h-195q-77 0 -109 -22.5t-36 -93.5l-1 -20l-7 1l11 212l7 -1l-3 -67q9 9 26 9h389v-9q-11 0 -30.5 -19.5t-38.5 -58.5l-262 -548q-21 -43 -48 -63v-3h36q74 0 306.5 -34.5t329.5 -34.5q181 0 257 84l6 -6q-142 -157 -322 -157q-76 0 -188.5 32.5t-218.5 65 t-166 32.5h-148z" />
<glyph unicode="&#x17b;a" horiz-adv-x="995" d="M264 900q20 0 32 -11.5t12 -32.5q0 -20 -11.5 -32.5t-32.5 -12.5q-20 0 -32.5 12t-12.5 33q0 20 12 32t33 12zM835 398v50q0 64 -29 98t-84 34q-72 0 -113.5 -38t-46.5 -99l-1 -12h-20l11 186h10l-3 -53q-2 -24 -4 -32l7 -2q5 15 16 23q59 44 143 44q95 0 144.5 -41.5 t49.5 -120.5v-254q0 -31 5.5 -41t27.5 -10l20 1l17 1l1 -9q-62 -6 -111 -22v8q0 29 -11 90q-7 44 -8 65h-10q-40 -162 -168 -162q-85 0 -137 38t-52 100q0 71 73.5 114.5t194.5 43.5h78zM835 380h-73q-84 0 -135 -38.5t-51 -101.5q0 -50 31.5 -80.5t82.5 -30.5 q58 0 101.5 53.5t43.5 153.5v44zM0 0v9q13 0 33.5 20t38.5 58l262 550q11 23 31.5 39.5t39.5 21.5v3h-195q-77 0 -109 -22.5t-36 -93.5l-1 -20l-7 1l11 212l7 -1l-3 -67q9 9 26 9h389v-9q-11 0 -30.5 -19.5t-38.5 -58.5l-262 -548q-21 -43 -48 -63v-3h36q74 0 275 -34.5 t298 -34.5q176 0 252 84l6 -6q-142 -157 -317 -157q-76 0 -178.5 32.5t-198.5 65t-156 32.5h-125z" />
<glyph unicode="&#x17b;o" horiz-adv-x="1080" d="M0 0v9q13 0 33.5 20t38.5 58l262 550q11 23 31.5 39.5t39.5 21.5v3h-195q-77 0 -109 -22.5t-36 -93.5l-1 -20l-7 1l11 212l7 -1l-3 -67q9 9 26 9h389v-9q-11 0 -30.5 -19.5t-38.5 -58.5l-262 -548q-21 -43 -48 -63v-3h36q74 0 306.5 -34.5t329.5 -34.5q181 0 257 84l6 -6 q-142 -157 -322 -157q-76 0 -188.5 32.5t-218.5 65t-166 32.5h-148zM765 102q-124 0 -200 68t-76 180q0 102 81 174.5t195 72.5q123 0 198.5 -68t75.5 -179q0 -103 -80.5 -175.5t-193.5 -72.5zM768 120q83 0 133.5 58t50.5 153q0 103 -56 175.5t-135 72.5q-83 0 -134 -58 t-51 -153q0 -103 56.5 -175.5t135.5 -72.5zM264 900q20 0 32 -11.5t12 -32.5q0 -20 -11.5 -32.5t-32.5 -12.5q-20 0 -32.5 12t-12.5 33q0 20 12 32t33 12z" />
<glyph unicode="xt" horiz-adv-x="1027" d="M238 292l-113 210q-24 45 -42.5 61.5t-40.5 16.5h-14v9h179v-9h-54v-2q11 -4 26 -20.5t25 -34.5l95 -178l98 160q27 44 27 55q0 20 -45 20h-35v9h172v-9h-7q-24 0 -45 -16.5t-48 -61.5l-106 -176l72 -133q51 -93 124.5 -149t166.5 -56q104 0 186 51.5t111 131.5 q-14 -21 -33.5 -36.5t-45 -24t-52.5 -8.5q-80 0 -129 39t-49 103v308h-111v27h55q41 0 71.5 32.5t41.5 63.5t11 47v117h10v-217q0 -36 -13 -42v-1h262v-27h-249v-334q0 -44 27.5 -71t72.5 -27q56 0 95.5 37t39.5 89q0 48 -35 81.5t-85 33.5q-19 0 -32 12.5t-13 30.5h20 q67 0 115 -46.5t48 -111.5q0 -119 -98 -203t-236 -84q-118 0 -205.5 54.5t-154.5 171.5l-49 88l-107 -186q-26 -45 -26 -58q0 -8 5 -12.5t14.5 -6t26.5 -1.5h34v-9h-189v9h9q33 0 56.5 16.5t49.5 61.5z" />
<glyph unicode="xi" horiz-adv-x="837" d="M7 0v9h9q33 0 56.5 16.5t49.5 61.5l116 205l-113 210q-24 45 -42.5 61.5t-40.5 16.5h-14v9h179v-9h-54v-2q11 -4 26 -20.5t25 -34.5l95 -178l98 160q27 44 27 55q0 20 -45 20h-35v9h177v-9h-12q-24 0 -45 -16.5t-48 -61.5l-106 -176l73 -138q18 -34 33.5 -60t41 -58.5 t52 -53t63 -35t77.5 -14.5q45 0 76.5 28.5t31.5 69t-25 66.5t-67 29h-91v9h35q20 0 29 1t15.5 7t7.5 15.5t1 28.5v300q0 30 -30 30h-47v9h57q37 0 63.5 12.5t26.5 40.5v4h8v-85v-311q0 -36 9 -44t45 -8h35v-9h-125q29 -12 45.5 -37t16.5 -58q0 -53 -41.5 -90t-100.5 -37 q-33 0 -63 6t-54.5 15t-48.5 25.5t-41 31t-36.5 38t-31.5 40t-28.5 44.5t-25 43.5t-23.5 44.5l-24 47l-107 -186q-26 -45 -26 -58q0 -8 5 -12.5t14.5 -6t26.5 -1.5h34v-9h-189zM701 820q20 0 32 -11.5t12 -32.5q0 -13 -5 -23t-15 -16t-24 -6q-20 0 -32.5 12t-12.5 33 q0 20 12 32t33 12z" />
<glyph unicode="ux" horiz-adv-x="1174" d="M89 143v378q0 30 -30 30h-47v9h57q23 0 42.5 4.5t34.5 17t15 31.5v4h8v-85v-380q0 -64 27 -103t71 -39q81 0 130 70t49 185v103q0 53 -14 104q-12 45 -12 72q0 48 38 77.5t100 29.5q43 0 83 -11t70 -26.5t60 -43.5t49 -50t42.5 -59t35 -57.5t30.5 -57.5l98 159 q27 44 27 55q0 20 -45 20h-35v9h177v-9h-12q-24 0 -45 -16.5t-48 -61.5l-106 -176l128 -239q21 -45 39 -61t44 -16h17v-10h-242v10h21q29 0 41 5.5t12 18.5q0 8 -19 49l-102 190l-107 -186q-26 -45 -26 -58q0 -12 10 -16t36 -4h34v-9h-189v9h9q33 0 56.5 16.5t49.5 61.5 l116 205l-47 88q-126 242 -287 242q-47 0 -75.5 -21.5t-28.5 -56.5q0 -39 27 -63.5t70 -28.5v-381q0 -36 9 -44.5t45 -8.5h17v-9q-69 -3 -135 -18v8q4 27 4 57v140h-9q-15 -103 -69.5 -153.5t-129.5 -50.5q-76 0 -122.5 41.5t-46.5 109.5z" />
<glyph unicode="k&#x142;" horiz-adv-x="1115" d="M18 0v9h35q36 0 44.5 8t8.5 44v670q0 30 -30 30h-47v9h57q23 0 42 4.5t33.5 17t14.5 31.5v4h8v-85v-420q54 0 65 14l158 179q18 20 18 38q0 27 -52 27h-9v9h246v-9h-32q-23 0 -48 -6.5t-52.5 -22.5t-49.5 -40l-160 -181v-4q49 -6 103.5 -40.5t103.5 -81.5q7 -8 36.5 -37 t42 -41t40.5 -37t47 -37t45 -27t50.5 -21t49.5 -6q112 0 187 61.5t93 166.5q-18 -38 -55.5 -61t-83.5 -23q-80 0 -129 39t-49 103v155l-102 -76l-17 21l119 89v258q0 30 -30 30h-47v9h57q37 0 63.5 12.5t26.5 40.5v4h8v-85v-211l186 139l16 -21l-202 -151v-240 q0 -44 27.5 -71t72.5 -27q56 0 95.5 37t39.5 89q0 48 -35 81.5t-85 33.5q-19 0 -32 12.5t-13 30.5h20q67 0 115 -46.5t48 -111.5q0 -138 -83.5 -222.5t-220.5 -84.5q-44 0 -87 9.5t-77 22.5t-70 36t-60 41t-55 47.5t-46 45.5t-40 44l-6 6t-5 5.5t-5 5.5q-65 71 -100 71h-41 v-252q0 -36 9 -44t45 -8h35v-9h-255z" />
<glyph unicode="kl" horiz-adv-x="1080" d="M13 0v9h35q36 0 44.5 8t8.5 44v670q0 30 -30 30h-47v9h57q23 0 42 4.5t33.5 17t14.5 31.5v4h8v-85v-420q54 0 65 14l158 179q18 20 18 38q0 27 -52 27h-9v9h241v-9h-27q-37 0 -77.5 -17t-72.5 -52l-160 -181v-4q49 -6 103.5 -40.5t103.5 -81.5q10 -10 43 -43.5 t48.5 -48.5t47.5 -41.5t54.5 -39t53 -23t59.5 -10.5q106 0 177 59t88 159q-19 -38 -56 -61t-83 -23q-82 0 -132.5 40.5t-50.5 106.5v452q0 16 -7 23t-23 7h-47v9h57q37 0 63.5 12.5t26.5 40.5v4h8v-85v-489q0 -46 29 -74.5t76 -28.5q56 0 95.5 37t39.5 89q0 48 -35 81.5 t-85 33.5q-19 0 -32 12.5t-13 30.5h20q67 0 115 -46.5t48 -111.5q0 -134 -79.5 -215.5t-209.5 -81.5q-33 0 -65.5 5.5t-59 13t-56 22t-49.5 25.5t-46.5 32t-40.5 32.5t-38 36t-33 33.5t-31.5 34t-26.5 29q-65 71 -100 71h-41v-252q0 -36 9 -44t45 -8h35v-9h-255z" />
<glyph unicode="&#x7a;l" horiz-adv-x="960" d="M0 0v9q24 0 72 78l259 420q12 23 32.5 40t39.5 22v3h-193q-77 0 -109 -23t-36 -94l-2 -20l-6 1l11 212l7 -1l-3 -67q9 9 26 9h394v-9q-10 0 -30.5 -20t-43.5 -58l-259 -418q-33 -52 -48 -63v-3h37q55 0 223.5 -24.5t243.5 -24.5q121 0 202.5 57.5t102.5 156.5 q-19 -37 -56 -59t-82 -22q-82 0 -132.5 40.5t-50.5 106.5v482q0 30 -30 30h-47v9h57q37 0 63.5 12.5t26.5 40.5v4h8v-85v-519q0 -46 29 -74.5t76 -28.5q56 0 95.5 37t39.5 89q0 48 -35 81.5t-85 33.5q-19 0 -32 12.5t-13 30.5h20q67 0 115 -46.5t48 -111.5q0 -156 -99 -251 t-260 -95q-59 0 -142 25t-160.5 50t-122.5 25h-151z" />
<glyph unicode="&#x17a;l" horiz-adv-x="960" d="M0 0v9q24 0 72 78l259 420q12 23 32.5 40t39.5 22v3h-193q-77 0 -109 -23t-36 -94l-2 -20l-6 1l11 212l7 -1l-3 -67q9 9 26 9h394v-9q-10 0 -30.5 -20t-43.5 -58l-259 -418q-33 -52 -48 -63v-3h37q55 0 223.5 -24.5t243.5 -24.5q121 0 202.5 57.5t102.5 156.5 q-19 -37 -56 -59t-82 -22q-82 0 -132.5 40.5t-50.5 106.5v482q0 30 -30 30h-47v9h57q37 0 63.5 12.5t26.5 40.5v4h8v-85v-519q0 -46 29 -74.5t76 -28.5q56 0 95.5 37t39.5 89q0 48 -35 81.5t-85 33.5q-19 0 -32 12.5t-13 30.5h20q67 0 115 -46.5t48 -111.5q0 -156 -99 -251 t-260 -95q-59 0 -142 25t-160.5 50t-122.5 25h-151zM217 626l-9 8l118 139q4 5 10 5q5 0 10 -4l16 -13l-24 -30z" />
<glyph unicode="&#x7a;&#x142;" horiz-adv-x="995" d="M0 0v9q24 0 72 78l259 420q12 23 32.5 40t39.5 22v3h-193q-77 0 -109 -23t-36 -94l-2 -20l-6 1l11 212l7 -1l-3 -67q9 9 26 9h389v-9q-21 0 -69 -78l-259 -418q-33 -52 -48 -63v-3h37q55 0 223.5 -24.5t243.5 -24.5q126 0 215 57t113 154q-13 -23 -33.5 -40.5t-47 -27.5 t-55.5 -10q-82 0 -132.5 40.5t-50.5 106.5v178l-112 -84l-17 21l129 96v271q0 30 -30 30h-47v9h57q37 0 63.5 12.5t26.5 40.5v4h8v-85v-223l176 131l16 -21l-192 -144v-262q0 -46 29 -74.5t76 -28.5q56 0 95.5 37t39.5 89q0 48 -35 81.5t-85 33.5q-19 0 -32 12.5t-13 30.5 h20q67 0 115 -46.5t48 -111.5q0 -155 -107.5 -250.5t-276.5 -95.5q-59 0 -142 25t-160.5 50t-122.5 25h-151z" />
<glyph unicode="gluk" horiz-adv-x="2482" d="M335 580q-89 0 -143 -46t-54 -121q0 -89 57.5 -152.5t139.5 -63.5q92 0 148 52t56 137q0 80 -60 137t-144 57zM85 -18q0 -40 78 -66.5t197 -26.5q103 0 179 28.5t76 69.5q0 11 -4.5 18.5t-14.5 12.5t-20 8t-28 4t-30.5 1.5t-34.5 0.5h-37t-36 1.5t-37 4t-33.5 7.5 t-31.5 12.5t-25.5 18.5t-21 25.5t-12.5 34t-5 43.5v10q-86 20 -135 75.5t-49 134.5q0 54 36.5 99.5t100 72t137.5 26.5q148 0 226 -71q-1 10 -1 19q0 33 15 61t44 44l17 10q8 -14 8 -29q0 -20 -17 -30q-13 -7 -23 -19t-15.5 -26.5t-5.5 -30.5q0 -20 10 -37q25 -40 25 -89 q0 -91 -83 -155.5t-200 -64.5q-38 0 -72 6v-6q0 -42 33 -55.5t96 -13.5h62q40 0 67.5 -3.5t55.5 -15t42.5 -38t14.5 -66.5q0 -66 -82 -115.5t-191 -49.5q-126 0 -209.5 46t-83.5 114q0 45 36 76.5t87 31.5h20q0 -18 -13 -30.5t-32 -12.5q-33 0 -56.5 -19t-23.5 -46z M1408 196v313q0 39 -11.5 55t-45.5 16h-37v9h185v-9h-16q-24 0 -36.5 -8t-16.5 -22.5t-4 -40.5v-320q-79 -87 -193 -87q-59 0 -104.5 21.5t-70 60.5t-24.5 90v253q0 19 -1.5 28.5t-8 15.5t-15.5 7.5t-29 1.5h-31v9h260v-9h-44q-36 0 -44.5 -8.5t-8.5 -44.5v-289 q0 -38 14 -64.5t41 -40t66 -13.5q105 0 175 76zM760 254v477q0 30 -30 30h-45v9h55q37 0 63.5 12.5t26.5 40.5v4h8v-85v-467q-9 -21 -9 -40q0 -84 58.5 -154.5t160 -111.5t220.5 -41q120 0 220.5 29t158.5 79t58 110q0 40 -25 66t-67 29h-87v9h35q20 0 29 1t15.5 7t7.5 15 t1 29v429q0 30 -30 30h-47v9h57q37 0 63.5 12.5t26.5 40.5v4h8v-85v-420q54 0 65 14l158 179q18 20 18 38q0 27 -52 27h-9v9h221v-13h-12q-87 0 -145 -65l-160 -181v-4q49 -6 104 -44t99 -88q16 -18 39.5 -50.5t40 -52t41 -41t56.5 -32t72 -10.5q86 0 138.5 53t52.5 140 q0 58 -41 99t-99 41q-19 0 -32 12.5t-13 30.5h20q76 0 129.5 -53.5t53.5 -129.5q0 -100 -61.5 -161t-162.5 -61q-54 0 -100.5 13.5t-77.5 33.5t-61 50t-48.5 56t-42.5 58.5t-41 50.5q-30 32 -58.5 52t-46.5 20h-45v-11q0 -33 14 -84q12 -45 12 -72q0 -67 -62.5 -124 t-169.5 -90t-233 -33q-135 0 -247.5 45t-179 127t-66.5 183z" />
<glyph unicode="www" horiz-adv-x="2625" d="M1517 -4l-56 -5l-147 492l-147 -488l-56 -4l-199 527q-35 92 -98 92h-15v9h174v-13q0 -31 17 -74l168 -427q6 -15 6 -36h10q0 13 7 36l123 409l-1 4q-11 37 -22 49.5t-37 12.5h-78v9h224v-9h-40v-2q20 -7 31 -46l128 -427q6 -20 6 -36h14q0 18 10 42l120 285q10 25 10 51 q0 43 -26.5 73t-72.5 30h-17v9h18q52 0 85 -33t33 -81q0 -26 -11 -52zM2291 -9l-147 492l-147 -488l-56 -4l-199 527q-35 92 -98 92h-15v9h174v-13q0 -31 17 -74l168 -427q6 -15 6 -36h10q0 13 7 36l123 409l-1 4q-11 37 -22 49.5t-37 12.5h-63v9h224v-9h-55v-2 q19 -7 31 -46l128 -427q6 -20 6 -36h14q0 16 9 39l159 411q7 18 7 29q0 32 -50 32h-38v9h170v-9h-15q-22 0 -32.5 -13.5t-22.5 -48.5l-199 -522zM687 -4l-56 -5l-147 492l-147 -488l-56 -4l-199 527q-15 39 -24.5 50.5t-33.5 11.5h-15v9h144v-14q0 -19 7 -43l168 -427 q6 -15 6 -36h10q0 13 7 36l123 409l-1 4q-11 37 -22 49.5t-37 12.5h-78v9h224v-9h-40v-2q20 -7 31 -46l128 -427q6 -20 6 -36h14q0 18 10 42l120 285q10 25 10 51q0 43 -26.5 73t-72.5 30h-17v9h18q52 0 85 -33t33 -81q0 -26 -11 -52z" />
<glyph unicode="ms" horiz-adv-x="1345" d="M18 0v9h35q36 0 44.5 8.5t8.5 44.5v440q0 14 -9 23t-24 9h-4l-59 -5l-1 6l77 16q21 4 36 13t24.5 24.5t9.5 35.5v4h8v-131q0 -72 -2 -92h9q6 42 16 69q47 123 158 123q73 0 103 -35t30 -97v-60h4q1 22 10.5 52.5t14.5 40.5q12 24 26.5 41.5t32 31t40 20t49.5 6.5 q44 0 77 -15t52.5 -45.5t19.5 -72.5v-252q1 -100 61 -165t162 -65t156 42t54 122q0 22 -9 40.5t-22 31t-36 24.5t-41 19t-47 17q-27 9 -43.5 15.5t-39.5 17t-37 22t-27.5 26.5t-20 34t-6.5 42q0 73 54 117.5t143 44.5q74 0 133 -44q11 -8 16 -23l7 2q-2 8 -4 32l-3 53h10 l11 -236l-18 -1l-2 42q-3 65 -41.5 111t-108.5 46q-61 0 -94 -31.5t-33 -90.5q0 -17 8 -31.5t19 -24t32 -20.5t36.5 -17t43.5 -16q25 -9 40 -15t38.5 -16.5t37.5 -20t31 -24t26 -30t15.5 -36t6.5 -44.5q0 -89 -78.5 -143.5t-206.5 -54.5q-58 0 -110.5 19.5t-89.5 50.5 t-61.5 62t-39.5 62v297q0 59 -22 92t-58 33q-68 0 -110 -63.5t-42 -167.5v-287q0 -36 9 -44.5t45 -8.5h26v-9h-216v9h67v2q-9 9 -9 26v418q0 59 -22 92t-58 33q-68 0 -110 -63.5t-42 -167.5v-287q0 -36 9 -44.5t45 -8.5h35v-9h-255z" />
<glyph unicode="&#xe4;t" horiz-adv-x="1098" d="M202 782q20 0 32.5 -11.5t12.5 -32.5q0 -20 -12 -32t-33 -12q-20 0 -32 11.5t-12 32.5q0 20 11.5 32t32.5 12zM398 782q20 0 32 -11.5t12 -32.5q0 -20 -11.5 -32t-32.5 -12q-20 0 -32.5 11.5t-12.5 32.5q0 20 12 32t33 12zM529 415v-200q0 -93 60.5 -150t159.5 -57 q102 0 183 51.5t109 132.5q-20 -32 -55 -51t-76 -19q-80 0 -129 39t-49 103v288h-121v27h65q41 0 71.5 32.5t41.5 63.5t11 47v117h10v-217q0 -36 -13 -42v-1h262v-27h-249v-314q0 -44 27.5 -71t72.5 -27q56 0 95.5 37t39.5 89q0 48 -35 81.5t-85 33.5q-19 0 -32 12.5 t-13 30.5h20q67 0 115 -46.5t48 -111.5q0 -119 -96 -203t-231 -84q-115 0 -187 62t-76 163h-4l-7 -50q-14 -56 -54 -94.5t-82 -53t-82 -14.5q-94 0 -151.5 43.5t-57.5 115.5q0 82 57 132.5t151 50.5q61 0 104.5 -33.5t43.5 -80.5q0 -19 -12.5 -32t-30.5 -13v47 q0 39 -31 66.5t-74 27.5q-58 0 -93 -44.5t-35 -117.5q0 -61 39 -98t102 -37q81 0 138 60.5t57 146.5v202q0 68 -49 109.5t-129 41.5q-48 0 -83 -18t-52.5 -48t-19.5 -70l-3 -62h-18l11 236h10l-3 -53q-2 -24 -4 -32l7 -2q5 15 16 23q59 44 138 44q116 0 186.5 -50t70.5 -132 z" />
<glyph unicode="&#xfc;n" horiz-adv-x="1260" d="M833 116q0 -57 -44.5 -97t-107.5 -40q-89 0 -152 78.5t-63 189.5h-5l-4 -51q-15 -103 -69.5 -153.5t-129.5 -50.5q-76 0 -122.5 39.5t-46.5 111.5v378q0 30 -30 30h-47v9h57q37 0 64.5 12.5t27.5 40.5v4h8v-85v-380q0 -68 26.5 -105t71.5 -37q81 0 130 70t49 185v262 q0 36 -9 44.5t-45 8.5h-17v9l155 4v-8q-4 -24 -4 -53v-318q0 -87 48.5 -149t116.5 -62q55 0 94 33t39 80q0 16 -4.5 30t-12 25t-19 19.5t-25.5 14t-31 6.5h-91v9h35q19 0 28.5 1.5t15.5 7.5t7.5 15.5t1.5 28.5v229q0 14 -9 23t-24 9h-4l-59 -5l-1 6l77 16q32 6 53 25t21 48 v4h8v-131q0 -87 -2 -105h7q3 27 16 65q22 64 71.5 102t111.5 38q80 0 124 -41t44 -110v-384q0 -36 8.5 -44.5t44.5 -8.5h36v-9h-255v9h97v2q-9 9 -9 26v392q0 151 -98 151q-78 0 -129 -68t-51 -176v-63q0 -36 9 -44.5t45 -8.5h35v-9h-125q29 -12 45.5 -37t16.5 -58zM202 782 q20 0 32.5 -11.5t12.5 -32.5q0 -20 -12 -32t-33 -12q-20 0 -32 11.5t-12 32.5q0 20 11.5 32t32.5 12zM398 782q20 0 32 -11.5t12 -32.5q0 -20 -11.5 -32t-32.5 -12q-20 0 -32.5 11.5t-12.5 32.5q0 20 12 32t33 12z" />
<glyph unicode="&#x17e;e" horiz-adv-x="1100" d="M278 686h-28l-102 100l18 20l49 -49q14 -14 25 -27.5t16.5 -22t5.5 -10.5h4q0 12 48 60l49 49l18 -20zM819 388q-27 0 -46 -17.5t-19 -42.5v-56q-18 0 -30.5 13t-12.5 31q0 39 31.5 66.5t76.5 27.5h146q8 0 8 9q0 48 -19.5 84t-55.5 56t-83 20q-89 0 -143.5 -59.5 t-54.5 -156.5q0 -66 28 -122t76.5 -88.5t104.5 -32.5q73 0 131 26.5t95 74.5l12 -12q-85 -107 -238 -107q-120 0 -205.5 72t-85.5 173q0 104 83.5 177t200.5 73q106 0 170.5 -49t64.5 -129v-5q0 -12 -9 -20.5t-22 -8.5zM0 0v9q24 0 72 78l259 420q13 23 33.5 40t38.5 22v3 h-193q-76 0 -108.5 -23t-36.5 -94l-1 -20l-7 1l11 212l7 -1l-3 -67q9 9 26 9h389v-9q-21 0 -69 -78l-259 -418q-33 -52 -48 -63v-3h38q74 0 311.5 -34.5t337.5 -34.5q186 0 262 84l6 -6q-142 -157 -327 -157q-78 0 -194 32.5t-224 65t-168 32.5h-153z" />
<glyph unicode="n&#xed;" horiz-adv-x="927" d="M106 62v440q0 14 -9 23t-24 9h-4l-59 -5l-1 6l77 16q21 4 37 13t26.5 24.5t10.5 35.5v4h8v-131q0 -87 -2 -105h7q3 27 16 65q22 64 71.5 102t111.5 38q80 0 124 -41t44 -110v-252q0 -84 46.5 -135t123.5 -51q49 0 83.5 31.5t34.5 76.5q0 40 -25 66t-67 29h-81v9h35 q36 0 44.5 8t8.5 44v249q0 30 -30 30h-47v9h57q37 0 63.5 12.5t26.5 40.5v4h8v-85v-260q0 -36 9 -44t45 -8h35v-9h-135q29 -12 45.5 -37t16.5 -58q0 -37 -20.5 -68.5t-55.5 -50t-76 -18.5q-100 0 -161.5 72.5t-61.5 191.5v186q0 151 -98 151q-78 0 -129 -68t-51 -176v-274 q0 -36 9 -44.5t45 -8.5h35v-9h-255v9h35q19 0 28.5 1.5t15.5 7.5t7.5 15.5t1.5 28.5zM722 657l-9 8l118 139q4 5 10 5q5 0 10 -4l16 -13l-24 -30z" />
<glyph unicode="K&#xe9;" horiz-adv-x="1230" d="M883 657l-9 8l118 139q4 5 10 5q5 0 10 -4l16 -13l-24 -30zM666 357q0 99 83.5 169.5t200.5 70.5q106 0 170.5 -49t64.5 -129v-5q0 -12 -9 -20.5t-22 -8.5l-204 3q-27 0 -46 -17.5t-19 -42.5v-56q-18 0 -30.5 13t-12.5 31q0 39 31.5 66.5t76.5 27.5h146q8 0 8 9 q0 72 -43.5 116t-114.5 44q-89 0 -143.5 -56.5t-54.5 -149.5q0 -62 28 -115t76.5 -84t104.5 -31q82 0 150.5 44.5t68.5 98.5h18q0 -40 -34 -78.5t-89.5 -62t-113.5 -23.5q-120 0 -205.5 69t-85.5 166zM18 0v9h35q36 0 44.5 10t8.5 52v586q0 36 -8.5 44.5t-44.5 8.5h-35v9 h229v-9h-9q-19 0 -28.5 -1t-16 -7t-8 -15t-1.5 -28v-227q54 0 65 14l158 199q18 22 18 38q0 27 -52 27h-9v9h226v-9h-17q-38 0 -78 -16.5t-69 -52.5l-159 -201l1 -4q34 -8 64 -25.5t58.5 -48t47 -54.5t48.5 -67q24 -34 38.5 -54t40.5 -50.5t46.5 -49t51.5 -41t61.5 -34.5 t70.5 -20.5t83 -8.5q54 0 108 13.5t95 33.5t67.5 36t42.5 29l5 -7q-61 -53 -157 -94.5t-197 -41.5q-51 0 -97.5 11t-82.5 25.5t-73 42t-61 49.5t-54.5 59t-46.5 58.5t-43 60.5q-24 35 -37.5 53t-35 43t-37 37.5t-36.5 22t-42 9.5h-12v-352q0 -42 9 -52t45 -10h35v-9h-255z " />
<glyph unicode="&#xe9;s" horiz-adv-x="1128" d="M303 657l-9 8l118 139q4 5 10 5q5 0 10 -4l16 -13l-24 -30zM37 328q0 111 89 190t215 79q120 0 192.5 -65.5t72.5 -172.5v-5q0 -12 -8.5 -20.5t-21.5 -8.5h-1l-269 3q-31 0 -53 -20.5t-22 -49.5v-56q-18 0 -30.5 13t-12.5 31q0 29 16 52.5t43 37.5t59 14h209q8 0 8 9 q0 99 -51 159.5t-135 60.5q-63 0 -112 -30.5t-75.5 -87t-26.5 -129.5q0 -111 65.5 -196.5t185 -132t275.5 -46.5q167 0 269 52t102 137q0 25 -11.5 45t-34.5 35t-45.5 25t-56 21.5t-53.5 19.5t-47.5 23t-42.5 30t-26.5 38.5t-11.5 51.5q0 73 54 117.5t143 44.5q74 0 133 -44 q11 -8 16 -23l7 2q-2 8 -4 32l-3 53h10l11 -236l-18 -1l-2 42q-2 42 -18 76.5t-50.5 57.5t-81.5 23q-61 0 -94 -31.5t-33 -90.5q0 -17 8 -31.5t19.5 -24.5t32.5 -20.5t37.5 -17t44.5 -15.5q33 -12 56 -21.5t50.5 -25.5t44.5 -34.5t29 -45.5t12 -59q0 -101 -126 -163 t-332 -62q-270 0 -435 107.5t-165 283.5z" />
<glyph unicode="&#xe1;t" horiz-adv-x="1098" d="M253 657l-9 8l118 139q4 5 10 5q5 0 10 -4l16 -13l-24 -30zM529 415v-200q0 -93 60.5 -150t159.5 -57q102 0 183 51.5t109 132.5q-20 -32 -55 -51t-76 -19q-80 0 -129 39t-49 103v288h-121v27h65q41 0 71.5 32.5t41.5 63.5t11 47v117h10v-217q0 -36 -13 -42v-1h262v-27 h-249v-314q0 -44 27.5 -71t72.5 -27q56 0 95.5 37t39.5 89q0 48 -35 81.5t-85 33.5q-19 0 -32 12.5t-13 30.5h20q67 0 115 -46.5t48 -111.5q0 -119 -96 -203t-231 -84q-115 0 -187 62t-76 163h-4l-7 -50q-14 -56 -54 -94.5t-82 -53t-82 -14.5q-94 0 -151.5 43.5t-57.5 115.5 q0 82 57 132.5t151 50.5q61 0 104.5 -33.5t43.5 -80.5q0 -19 -12.5 -32t-30.5 -13v47q0 39 -31 66.5t-74 27.5q-58 0 -93 -44.5t-35 -117.5q0 -61 39 -98t102 -37q81 0 138 60.5t57 146.5v202q0 68 -49 109.5t-129 41.5q-48 0 -83 -18t-52.5 -48t-19.5 -70l-3 -62h-18 l11 236h10l-3 -53q-2 -24 -4 -32l7 -2q5 15 16 23q59 44 138 44q116 0 186.5 -50t70.5 -132z" />
<glyph unicode="&#xe9;t" horiz-adv-x="1127" d="M303 657l-9 8l118 139q4 5 10 5q5 0 10 -4l16 -13l-24 -30zM41 297q0 124 89 212t215 88q79 0 139 -29.5t93 -83.5t33 -125v-5q0 -12 -8.5 -20.5t-21.5 -8.5h-1l-274 3q-31 0 -53 -20.5t-22 -49.5v-56q-18 0 -30.5 13t-12.5 31q0 29 16 52.5t43 37.5t59 14h214q8 0 8 9 q0 99 -51 159.5t-135 60.5q-96 0 -155.5 -73t-59.5 -193q0 -159 131.5 -255.5t346.5 -96.5q164 0 292.5 63.5t170.5 161.5q-21 -29 -55 -46.5t-73 -17.5q-80 0 -129 39t-49 103v288h-131v27h75q41 0 71.5 32.5t41.5 63.5t11 47v117h10v-217q0 -36 -13 -42v-1h262v-27h-249 v-314q0 -44 27.5 -71t72.5 -27q56 0 95.5 37t39.5 89q0 48 -35 81.5t-85 33.5q-19 0 -32 12.5t-13 30.5h20q67 0 115 -46.5t48 -111.5q0 -91 -67.5 -169t-183.5 -123t-252 -45q-163 0 -287.5 45.5t-192.5 129.5t-68 193z" />
<glyph unicode="&#xe9;l" horiz-adv-x="1082" d="M303 657l-9 8l118 139q4 5 10 5q5 0 10 -4l16 -13l-24 -30zM804 742v-504q0 -44 27.5 -71t72.5 -27q56 0 95.5 37t39.5 89q0 48 -35 81.5t-85 33.5q-19 0 -32 12.5t-13 30.5h20q67 0 115 -46.5t48 -111.5q0 -91 -64 -169t-174 -123t-240 -45q-120 0 -220 26.5t-170 74.5 t-109 116.5t-39 150.5q0 124 89 212t215 88q79 0 139 -29.5t93 -83.5t33 -125v-5q0 -12 -8.5 -20.5t-21.5 -8.5h-1l-274 3q-31 0 -53 -20.5t-22 -49.5v-56q-18 0 -30.5 13t-12.5 31q0 29 16 52.5t43 37.5t59 14h214q8 0 8 9q0 99 -51 159.5t-135 60.5q-96 0 -155.5 -73 t-59.5 -193q0 -159 128.5 -255.5t339.5 -96.5q157 0 279 64.5t161 163.5q-21 -31 -55.5 -49t-74.5 -18q-80 0 -129 39t-49 103v467q0 30 -30 30h-47v9h57q37 0 63.5 12.5t26.5 40.5v4h8v-85z" />
<glyph unicode="&#xed;t" horiz-adv-x="747" d="M95 244v277q0 30 -30 30h-45v9h55q23 0 42 4.5t33.5 17t14.5 31.5v4h8v-85v-287q-9 -21 -9 -40q0 -59 29.5 -103.5t84 -69t125.5 -24.5q70 0 132.5 30.5t104 84t56.5 119.5q-13 -24 -33.5 -42t-47.5 -28t-56 -10q-80 0 -129 39t-49 103v248h-131v27h75q41 0 71.5 32.5 t41.5 63.5t11 47v117h10v-217q0 -36 -13 -42v-1h262v-27h-249v-274q0 -44 27.5 -71t72.5 -27q56 0 95.5 37t39.5 89q0 48 -35 81.5t-85 33.5q-19 0 -32 12.5t-13 30.5h20q67 0 115 -46.5t48 -111.5q0 -135 -95 -231t-229 -96q-132 0 -212.5 73t-80.5 192zM87 657l-9 8 l118 139q4 5 10 5q4 0 10 -4l12 -10l-24 -30z" />
<glyph unicode="&#x7a;&#xe1;" horiz-adv-x="1035" d="M875 384v64q0 64 -29 98t-84 34q-72 0 -114.5 -38.5t-45.5 -98.5l-3 -22h-18l11 196h10l-3 -53q-2 -24 -4 -32l7 -2q5 15 16 23q59 44 143 44q95 0 144.5 -41.5t49.5 -120.5v-284q0 -31 5.5 -41t27.5 -10q3 0 9.5 0.5t10.5 0.5l17 1l1 -9q-62 -6 -111 -22v8 q0 25 -9.5 82.5t-9.5 72.5h-10q-40 -162 -168 -162q-85 0 -137 39.5t-52 104.5q0 76 73.5 122t194.5 46h78zM875 366h-73q-84 0 -135 -41.5t-51 -108.5q0 -53 31.5 -85t82.5 -32q58 0 101.5 53.5t43.5 153.5v60zM0 0v9q24 0 72 78l259 420q13 23 33.5 40t38.5 22v3h-193 q-76 0 -108.5 -23t-36.5 -94l-1 -20l-7 1l11 212l7 -1l-3 -67q9 9 26 9h389v-9q-21 0 -69 -78l-259 -418q-33 -52 -48 -63v-3h38q73 0 281 -39.5t308 -39.5q186 0 262 84l6 -6q-142 -157 -327 -157q-78 0 -179 35t-194 70t-153 35h-153zM703 657l-9 8l118 139q4 5 10 5 q5 0 10 -4l16 -13l-24 -30z" />
<glyph unicode="k&#xf6;" horiz-adv-x="1231" d="M828 782q20 0 32.5 -11.5t12.5 -32.5q0 -20 -12 -32t-33 -12q-20 0 -32 11.5t-12 32.5q0 20 11.5 32t32.5 12zM1024 782q20 0 32 -11.5t12 -32.5q0 -20 -11.5 -32t-32.5 -12q-20 0 -32.5 11.5t-12.5 32.5q0 20 12 32t33 12zM915 122q-114 0 -195 69.5t-81 168.5 q0 107 76 172t200 65q113 0 193.5 -69.5t80.5 -167.5q0 -107 -75.5 -172.5t-198.5 -65.5zM918 140q76 0 130 59t54 142q0 107 -52.5 172.5t-138.5 65.5q-77 0 -131 -59t-54 -142q0 -107 53 -172.5t139 -65.5zM18 0v9h35q36 0 44.5 8t8.5 44v670q0 30 -30 30h-47v9h57 q37 0 63.5 12.5t26.5 40.5v4h8v-85v-420q70 0 82 15l141 178q18 22 18 38q0 27 -52 27h-9v9h226v-9h-17q-38 0 -78 -16t-69 -53l-143 -181l1 -4q15 -2 35 -13t40 -26t37.5 -31t30.5 -30q112 -124 226.5 -184t216.5 -60q57 0 112.5 13t97 33t68 36.5t43.5 30.5l5 -7 q-70 -61 -169 -98t-206 -37q-118 0 -240.5 61t-221.5 177l-21 25q-33 39 -72 68t-70 29h-12v-252q0 -36 9 -44t45 -8h35v-9h-255z" />
<glyph unicode="&#x101;t" horiz-adv-x="1098" d="M436 726h-273l2 26h273zM529 415v-200q0 -93 60.5 -150t159.5 -57q102 0 183 51.5t109 132.5q-20 -32 -55 -51t-76 -19q-80 0 -129 39t-49 103v288h-121v27h65q41 0 71.5 32.5t41.5 63.5t11 47v117h10v-217q0 -36 -13 -42v-1h262v-27h-249v-314q0 -44 27.5 -71t72.5 -27 q56 0 95.5 37t39.5 89q0 48 -35 81.5t-85 33.5q-19 0 -32 12.5t-13 30.5h20q67 0 115 -46.5t48 -111.5q0 -119 -96 -203t-231 -84q-115 0 -187 62t-76 163h-4l-7 -50q-14 -56 -54 -94.5t-82 -53t-82 -14.5q-94 0 -151.5 43.5t-57.5 115.5q0 82 57 132.5t151 50.5 q61 0 104.5 -33.5t43.5 -80.5q0 -19 -12.5 -32t-30.5 -13v47q0 39 -31 66.5t-74 27.5q-58 0 -93 -44.5t-35 -117.5q0 -61 39 -98t102 -37q81 0 138 60.5t57 146.5v202q0 68 -49 109.5t-129 41.5q-48 0 -83 -18t-52.5 -48t-19.5 -70l-3 -62h-18l11 236h10l-3 -53 q-2 -24 -4 -32l7 -2q5 15 16 23q59 44 138 44q116 0 186.5 -50t70.5 -132z" />
<glyph unicode="&#x113;t" horiz-adv-x="1127" d="M436 726h-273l2 26h273zM41 297q0 124 89 212t215 88q79 0 139 -29.5t93 -83.5t33 -125v-5q0 -12 -8.5 -20.5t-21.5 -8.5h-1l-274 3q-31 0 -53 -20.5t-22 -49.5v-56q-18 0 -30.5 13t-12.5 31q0 29 16 52.5t43 37.5t59 14h214q8 0 8 9q0 99 -51 159.5t-135 60.5 q-96 0 -155.5 -73t-59.5 -193q0 -159 131.5 -255.5t346.5 -96.5q164 0 292.5 63.5t170.5 161.5q-21 -29 -55 -46.5t-73 -17.5q-80 0 -129 39t-49 103v288h-131v27h75q41 0 71.5 32.5t41.5 63.5t11 47v117h10v-217q0 -36 -13 -42v-1h262v-27h-249v-314q0 -44 27.5 -71 t72.5 -27q56 0 95.5 37t39.5 89q0 48 -35 81.5t-85 33.5q-19 0 -32 12.5t-13 30.5h20q67 0 115 -46.5t48 -111.5q0 -91 -67.5 -169t-183.5 -123t-252 -45q-163 0 -287.5 45.5t-192.5 129.5t-68 193z" />
<glyph unicode="&#x101;k" horiz-adv-x="1256" d="M436 726h-273l2 26h273zM35 151q0 82 57 132.5t151 50.5q61 0 104.5 -33.5t43.5 -80.5q0 -19 -12.5 -32t-30.5 -13v47q0 39 -31 66.5t-74 27.5q-58 0 -93 -44.5t-35 -117.5q0 -61 39 -98t102 -37q81 0 138 60.5t57 146.5v202q0 68 -49 109.5t-129 41.5q-48 0 -83 -18 t-52.5 -48t-19.5 -70l-3 -62h-18l11 236h10l-3 -53q-2 -24 -4 -32l7 -2q5 15 16 23q59 44 138 44q116 0 186.5 -50t70.5 -132v-241q0 -71 48.5 -121t116.5 -50q54 0 88.5 32.5t34.5 80.5q0 26 -11.5 47t-32 33.5t-48.5 14.5h-91v9h35q36 0 44.5 8t8.5 44v459q0 30 -30 30 h-47v9h57q37 0 63.5 12.5t26.5 40.5v4h8v-85v-420q81 0 92 14l158 179q18 20 18 38q0 27 -52 27h-9v9h221v-9h-12q-84 0 -145 -69l-160 -181v-4q45 -10 77.5 -26.5t50.5 -33t29.5 -41.5t15.5 -43.5t8 -46.5q8 -63 27 -92.5t61 -29.5q26 0 41.5 17.5t15.5 46.5q0 38 -24.5 59 t-62.5 26q0 15 39 15q23 -14 40 -41t17 -59q0 -40 -25.5 -64t-67.5 -24q-67 0 -97 40.5t-45 125.5q-5 29 -9.5 47t-16.5 41.5t-29 37t-46.5 23t-70.5 9.5h-39v-41q0 -33 14 -84q12 -45 12 -72q0 -38 -18 -69t-50.5 -49.5t-73.5 -18.5q-88 0 -150 58t-62 140h-5l-5 -23 q-14 -56 -54 -94.5t-82 -53t-82 -14.5q-94 0 -151.5 43.5t-57.5 115.5z" />
<glyph unicode="&#x117;s" horiz-adv-x="1128" d="M345 800q20 0 32 -11.5t12 -32.5q0 -20 -11.5 -32.5t-32.5 -12.5q-20 0 -32.5 12t-12.5 33q0 20 12 32t33 12zM37 328q0 111 89 190t215 79q120 0 192.5 -65.5t72.5 -172.5v-5q0 -12 -8.5 -20.5t-21.5 -8.5h-1l-269 3q-31 0 -53 -20.5t-22 -49.5v-56q-18 0 -30.5 13 t-12.5 31q0 29 16 52.5t43 37.5t59 14h209q8 0 8 9q0 99 -51 159.5t-135 60.5q-63 0 -112 -30.5t-75.5 -87t-26.5 -129.5q0 -111 65.5 -196.5t185 -132t275.5 -46.5q167 0 269 52t102 137q0 25 -11.5 45t-34.5 35t-45.5 25t-56 21.5t-53.5 19.5t-47.5 23t-42.5 30 t-26.5 38.5t-11.5 51.5q0 73 54 117.5t143 44.5q74 0 133 -44q11 -8 16 -23l7 2q-2 8 -4 32l-3 53h10l11 -236l-18 -1l-2 42q-2 42 -18 76.5t-50.5 57.5t-81.5 23q-61 0 -94 -31.5t-33 -90.5q0 -17 8 -31.5t19.5 -24.5t32.5 -20.5t37.5 -17t44.5 -15.5q33 -12 56 -21.5 t50.5 -25.5t44.5 -34.5t29 -45.5t12 -59q0 -101 -126 -163t-332 -62q-270 0 -435 107.5t-165 283.5z" />
<glyph unicode="i&#x161;" horiz-adv-x="755" d="M95 233v288q0 30 -30 30h-45v9h55q37 0 63.5 12.5t26.5 40.5v4h8v-85v-348q0 -84 66.5 -135.5t175.5 -51.5q104 0 168 43.5t64 115.5q0 18 -8.5 34t-20.5 27t-34 22t-39 17.5t-45 16.5q-34 11 -54 19t-47.5 22.5t-42.5 30t-26.5 39t-11.5 51.5q0 73 54 117.5t143 44.5 q74 0 133 -44q11 -8 16 -23l7 2q-2 8 -4 32l-3 53h10l11 -236l-18 -1l-2 42q-2 42 -18 76.5t-50.5 57.5t-81.5 23q-61 0 -94 -31.5t-33 -90.5q0 -17 8.5 -31.5t19.5 -24.5t32.5 -20.5t38 -17t44.5 -16.5q28 -9 46 -16t43.5 -19t41 -24.5t30.5 -29.5t22.5 -38.5t7.5 -47.5 q0 -87 -84.5 -140t-223.5 -53q-144 0 -231.5 70t-87.5 184zM133 820q20 0 32 -11.5t12 -32.5q0 -20 -11.5 -32.5t-32.5 -12.5q-20 0 -32.5 12t-12.5 33q0 20 12 32t33 12zM529 686h-28l-102 100l18 20l49 -49q14 -14 25 -27.5t16.5 -22t5.5 -10.5h4q0 12 48 60l49 49l18 -20 z" />
<glyph unicode="&#xe8;s" horiz-adv-x="1128" d="M397 657l-121 105l-24 30l16 13q5 4 10 4q6 0 10 -5l118 -139zM37 328q0 111 89 190t215 79q120 0 192.5 -65.5t72.5 -172.5v-5q0 -12 -8.5 -20.5t-21.5 -8.5h-1l-269 3q-31 0 -53 -20.5t-22 -49.5v-56q-18 0 -30.5 13t-12.5 31q0 29 16 52.5t43 37.5t59 14h209q8 0 8 9 q0 99 -51 159.5t-135 60.5q-63 0 -112 -30.5t-75.5 -87t-26.5 -129.5q0 -111 65.5 -196.5t185 -132t275.5 -46.5q167 0 269 52t102 137q0 25 -11.5 45t-34.5 35t-45.5 25t-56 21.5t-53.5 19.5t-47.5 23t-42.5 30t-26.5 38.5t-11.5 51.5q0 73 54 117.5t143 44.5q74 0 133 -44 q11 -8 16 -23l7 2q-2 8 -4 32l-3 53h10l11 -236l-18 -1l-2 42q-2 42 -18 76.5t-50.5 57.5t-81.5 23q-61 0 -94 -31.5t-33 -90.5q0 -17 8 -31.5t19.5 -24.5t32.5 -20.5t37.5 -17t44.5 -15.5q33 -12 56 -21.5t50.5 -25.5t44.5 -34.5t29 -45.5t12 -59q0 -101 -126 -163 t-332 -62q-270 0 -435 107.5t-165 283.5z" />
<glyph unicode="&#xec;t" horiz-adv-x="747" d="M95 244v277q0 30 -30 30h-45v9h55q23 0 42 4.5t33.5 17t14.5 31.5v4h8v-85v-287q-9 -21 -9 -40q0 -59 29.5 -103.5t84 -69t125.5 -24.5q70 0 132.5 30.5t104 84t56.5 119.5q-13 -24 -33.5 -42t-47.5 -28t-56 -10q-80 0 -129 39t-49 103v248h-131v27h75q41 0 71.5 32.5 t41.5 63.5t11 47v117h10v-217q0 -36 -13 -42v-1h262v-27h-249v-274q0 -44 27.5 -71t72.5 -27q56 0 95.5 37t39.5 89q0 48 -35 81.5t-85 33.5q-19 0 -32 12.5t-13 30.5h20q67 0 115 -46.5t48 -111.5q0 -135 -95 -231t-229 -96q-132 0 -212.5 73t-80.5 192zM181 657l-121 105 l-24 30l16 13q5 4 10 4q6 0 10 -5l118 -139z" />
<glyph unicode="h&#xe9;" horiz-adv-x="1229" d="M893 657l-9 8l118 139q4 5 10 5q5 0 10 -4l16 -13l-24 -30zM960 388q-27 0 -46 -17.5t-19 -42.5v-56q-18 0 -30.5 13t-12.5 31q0 39 31.5 66.5t76.5 27.5h146q8 0 8 9q0 72 -43.5 116t-114.5 44q-89 0 -143.5 -56.5t-54.5 -149.5q0 -63 28 -117t76.5 -85t104.5 -31 q148 0 225 101l14 -12q-41 -52 -102 -79.5t-137 -27.5q-120 0 -205.5 69t-85.5 166q0 99 83.5 169.5t200.5 70.5q106 0 170.5 -49t64.5 -129v-5q0 -12 -9 -20.5t-22 -8.5zM18 0v9h35q36 0 44.5 8.5t8.5 44.5v669q0 30 -30 30h-47v9h57q37 0 63.5 12.5t26.5 40.5v4h8v-175 q0 -98 -18 -260h7q3 27 16 65q22 64 71.5 102t111.5 38q80 0 124 -41t44 -110v-206q0 -46 16 -86t46 -71.5t72 -54t96 -34.5t115 -12q57 0 112.5 13t97 33t68 36.5t43.5 30.5l5 -7q-70 -61 -169 -98t-206 -37q-168 0 -271 85.5t-103 224.5v166q0 151 -98 151q-78 0 -129 -68 t-51 -176v-274q0 -36 9 -44.5t45 -8.5h35v-9h-255z" />
<glyph unicode="&#xed;s" horiz-adv-x="755" d="M95 233v288q0 30 -30 30h-45v9h55q23 0 42 4.5t33.5 17t14.5 31.5v4h8v-85v-348q0 -84 66.5 -135.5t175.5 -51.5q104 0 168 43.5t64 115.5q0 18 -8.5 34t-20.5 27t-34 22t-39 17.5t-45 16.5q-28 9 -44.5 15.5t-41 17.5t-39 22.5t-29 27.5t-21.5 35.5t-7 43.5 q0 73 54 117.5t143 44.5q74 0 133 -44q11 -8 16 -23l7 2q-2 8 -4 32l-3 53h10l11 -236l-18 -1l-2 42q-2 42 -18 76.5t-50.5 57.5t-81.5 23q-61 0 -94 -31.5t-33 -90.5q0 -17 8.5 -31.5t19.5 -24.5t32.5 -20.5t38 -17t44.5 -16.5q28 -9 46 -16t43.5 -19t41 -24.5t30.5 -29.5 t22.5 -38.5t7.5 -47.5q0 -87 -84.5 -140t-223.5 -53q-144 0 -231.5 70t-87.5 184zM87 657l-9 8l118 139q4 5 10 5q5 0 10 -4l16 -13l-24 -30z" />
<glyph unicode="L&#xed;" horiz-adv-x="740" d="M18 0v9h35q18 0 28.5 2.5t16 10t7 17.5t1.5 30v589q0 36 -8.5 44t-44.5 8h-35v9h235v-9h-15q-36 0 -45 -8t-9 -44v-587q0 -30 -22 -52v-1h346q80 0 121.5 24t46.5 91l7 93q-21 -30 -54.5 -47t-72.5 -17q-80 0 -129 39t-49 103v217q0 30 -30 30h-42v9h52q37 0 63.5 12.5 t26.5 40.5v4h8v-85v-254q0 -44 27.5 -71t72.5 -27q56 0 95.5 37t39.5 89q0 48 -35 81.5t-85 33.5q-19 0 -32 12.5t-13 30.5h20q67 0 115 -46.5t48 -111.5l-25 -357l-10 1l4 59h-1q-9 -9 -27 -9h-632zM367 657l-9 8l118 139q4 5 10 5q4 0 10 -4l12 -10l-24 -30z" />
<glyph unicode="l&#xed;" horiz-adv-x="517" d="M160 742v-558q0 -79 44 -127.5t116 -48.5q49 0 83.5 31.5t34.5 76.5q0 40 -25 66t-67 29h-81v9h25q36 0 44.5 8t8.5 44v249q0 30 -30 30h-47v9h57q37 0 63.5 12.5t26.5 40.5v4h8v-85v-260q0 -36 9 -44t45 -8h35v-9h-125q29 -12 45.5 -37t16.5 -58q0 -28 -12 -53.5 t-32.5 -43.5t-48.5 -29t-59 -11q-96 0 -154.5 70t-58.5 184v498q0 30 -30 30h-47v9h57q37 0 63.5 12.5t26.5 40.5v4h8v-85zM317 657l-9 8l118 139q4 5 10 5q4 0 10 -4l12 -10l-24 -30z" />
<glyph unicode="ti" horiz-adv-x="803" d="M141 244v308h-131v27h75q41 0 71.5 32.5t41.5 63.5t11 47v117h10v-217q0 -36 -13 -42v-1h241q70 0 70 47v4h8v-98v-254q0 -44 27.5 -71t72.5 -27q56 0 95.5 37t39.5 89q0 48 -35 81.5t-85 33.5q-19 0 -32 12.5t-13 30.5h20q67 0 115 -46.5t48 -111.5q0 -135 -95 -231 t-229 -96q-141 0 -227 73t-86 192zM219 552v-307q-9 -21 -9 -40q0 -89 71 -143t188 -54q107 0 189 66.5t104 167.5q-19 -36 -56 -58t-81 -22q-80 0 -129 39t-49 103v218q0 30 -30 30h-198zM486 800q20 0 32 -11.5t12 -32.5q0 -13 -5 -23t-15 -16t-24 -6q-20 0 -32.5 12 t-12.5 33q0 20 12 32t33 12z" />
<glyph unicode="t&#xed;" horiz-adv-x="803" d="M141 244v308h-131v27h75q41 0 71.5 32.5t41.5 63.5t11 47v117h10v-217q0 -36 -13 -42v-1h241q70 0 70 47v4h8v-98v-254q0 -44 27.5 -71t72.5 -27q56 0 95.5 37t39.5 89q0 48 -35 81.5t-85 33.5q-19 0 -32 12.5t-13 30.5h20q67 0 115 -46.5t48 -111.5q0 -135 -95 -231 t-229 -96q-141 0 -227 73t-86 192zM219 552v-307q-9 -21 -9 -40q0 -89 71 -143t188 -54q107 0 189 66.5t104 167.5q-19 -36 -56 -58t-81 -22q-80 0 -129 39t-49 103v218q0 30 -30 30h-198zM451 657l-9 8l118 139q4 5 10 5q4 0 10 -4l12 -10l-24 -30z" />
<glyph unicode="&#x17c;i" horiz-adv-x="975" d="M264 800q20 0 32 -11.5t12 -32.5q0 -20 -11.5 -32.5t-32.5 -12.5q-20 0 -32.5 12t-12.5 33q0 20 12 32t33 12zM0 0v9q24 0 72 78l259 420q12 23 32.5 40t39.5 22v3h-193q-77 0 -109 -23t-36 -94l-2 -20l-6 1l11 212l7 -1l-3 -67q9 9 26 9h389v-9q-21 0 -69 -78l-259 -418 q-33 -52 -48 -63v-3h37q55 0 223.5 -24.5t243.5 -24.5q126 0 211.5 57.5t107.5 155.5q-13 -24 -33.5 -42t-47.5 -28t-56 -10q-82 0 -132.5 40.5t-50.5 106.5v272q0 30 -30 30h-47v9h57q37 0 63.5 12.5t26.5 40.5v4h8v-85v-309q0 -46 29 -74.5t76 -28.5q56 0 95.5 37t39.5 89 q0 48 -35 81.5t-85 33.5q-19 0 -32 12.5t-13 30.5h20q67 0 115 -46.5t48 -111.5q0 -156 -103 -251t-271 -95q-59 0 -142 25t-160.5 50t-122.5 25h-151zM652 800q20 0 32 -11.5t12 -32.5q0 -20 -11.5 -32.5t-32.5 -12.5q-20 0 -32.5 12t-12.5 33q0 20 12 32t33 12z" />
<glyph unicode="&#xe5;t" horiz-adv-x="1098" d="M300 800q-22 0 -42 -19t-20 -43q0 -23 20 -42.5t42 -19.5t42 19t20 43t-20 43t-42 19zM300 827q33 0 61 -27t28 -62t-28 -62t-61 -27t-60.5 27.5t-27.5 61.5q0 35 27.5 62t60.5 27zM529 415v-200q0 -93 60.5 -150t159.5 -57q102 0 183 51.5t109 132.5q-20 -32 -55 -51 t-76 -19q-80 0 -129 39t-49 103v288h-121v27h65q41 0 71.5 32.5t41.5 63.5t11 47v117h10v-217q0 -36 -13 -42v-1h262v-27h-249v-314q0 -44 27.5 -71t72.5 -27q56 0 95.5 37t39.5 89q0 48 -35 81.5t-85 33.5q-19 0 -32 12.5t-13 30.5h20q67 0 115 -46.5t48 -111.5 q0 -119 -96 -203t-231 -84q-115 0 -187 62t-76 163h-4l-7 -50q-14 -56 -54 -94.5t-82 -53t-82 -14.5q-94 0 -151.5 43.5t-57.5 115.5q0 82 57 132.5t151 50.5q61 0 104.5 -33.5t43.5 -80.5q0 -19 -12.5 -32t-30.5 -13v47q0 39 -31 66.5t-74 27.5q-58 0 -93 -44.5t-35 -117.5 q0 -61 39 -98t102 -37q81 0 138 60.5t57 146.5v202q0 68 -49 109.5t-129 41.5q-48 0 -83 -18t-52.5 -48t-19.5 -70l-3 -62h-18l11 236h10l-3 -53q-2 -24 -4 -32l7 -2q5 15 16 23q59 44 138 44q116 0 186.5 -50t70.5 -132z" />
<glyph unicode="&#xea;t" horiz-adv-x="1127" d="M364 809l103 -100l-17 -20l-49 49q-49 49 -49 60h-4q0 -12 -48 -60l-49 -49l-17 20l102 100h28zM41 297q0 124 89 212t215 88q79 0 139 -29.5t93 -83.5t33 -125v-5q0 -12 -8.5 -20.5t-21.5 -8.5h-1l-274 3q-31 0 -53 -20.5t-22 -49.5v-56q-18 0 -30.5 13t-12.5 31 q0 29 16 52.5t43 37.5t59 14h214q8 0 8 9q0 99 -51 159.5t-135 60.5q-96 0 -155.5 -73t-59.5 -193q0 -159 131.5 -255.5t346.5 -96.5q164 0 292.5 63.5t170.5 161.5q-21 -29 -55 -46.5t-73 -17.5q-80 0 -129 39t-49 103v288h-131v27h75q41 0 71.5 32.5t41.5 63.5t11 47v117 h10v-217q0 -36 -13 -42v-1h262v-27h-249v-314q0 -44 27.5 -71t72.5 -27q56 0 95.5 37t39.5 89q0 48 -35 81.5t-85 33.5q-19 0 -32 12.5t-13 30.5h20q67 0 115 -46.5t48 -111.5q0 -91 -67.5 -169t-183.5 -123t-252 -45q-163 0 -287.5 45.5t-192.5 129.5t-68 193z" />
<glyph unicode="&#xe9;p" horiz-adv-x="1415" d="M41 297q0 124 89 212t215 88q79 0 139 -29.5t93 -83.5t33 -125v-5q0 -12 -9 -20.5t-22 -8.5l-274 3q-31 0 -53 -20.5t-22 -49.5v-56q-18 0 -30.5 13t-12.5 31q0 29 16 52.5t43 37.5t59 14h214q8 0 8 9q0 99 -51 159.5t-135 60.5q-96 0 -155.5 -73t-59.5 -193 q0 -132 62.5 -213t163.5 -81q82 0 146.5 22.5t112.5 69t77.5 88.5t65.5 108v195q0 14 -9 23t-24 9h-4l-59 -5l-1 6l77 16q32 6 53 25t21 48v4h8v-131q0 -32 -5 -77h6q25 41 49.5 70t57.5 55t75.5 39t93.5 13q126 0 203.5 -83t77.5 -219q0 -125 -87.5 -214t-211.5 -89 q-82 0 -140 52t-58 126q0 70 53.5 119t129.5 49h20q0 -18 -13 -30.5t-32 -12.5q-63 0 -101.5 -34.5t-38.5 -90.5q0 -66 52.5 -113t127.5 -47q95 0 153.5 83.5t58.5 219.5q0 106 -55.5 181t-134.5 75q-62 0 -113.5 -23t-84.5 -57t-67 -86v-501q0 -36 9 -44.5t45 -8.5h35v-9 h-255v9h35q19 0 28.5 1.5t15.5 7.5t7.5 15.5t1.5 28.5v369q-29 -50 -52 -84t-60 -74t-76.5 -64t-96 -40.5t-122.5 -16.5q-138 0 -222 84t-84 221zM303 657l-9 8l118 139q4 5 10 5q5 0 10 -4l16 -13l-24 -30z" />
<glyph unicode="&#x17e;a" horiz-adv-x="1035" d="M278 686h-28l-102 100l18 20l49 -49q14 -14 25 -27.5t16.5 -22t5.5 -10.5h4q0 12 48 60l49 49l18 -20zM875 384v64q0 64 -29 98t-84 34q-72 0 -114.5 -38.5t-45.5 -98.5l-3 -22h-18l11 196h10l-3 -53q-2 -24 -4 -32l7 -2q5 15 16 23q59 44 143 44q95 0 144.5 -41.5 t49.5 -120.5v-284q0 -31 5.5 -41t27.5 -10q3 0 9.5 0.5t10.5 0.5l17 1l1 -9q-62 -6 -111 -22v8q0 25 -9.5 82.5t-9.5 72.5h-10q-40 -162 -168 -162q-85 0 -137 39.5t-52 104.5q0 76 73.5 122t194.5 46h78zM875 366h-73q-84 0 -135 -41.5t-51 -108.5q0 -53 31.5 -85t82.5 -32 q58 0 101.5 53.5t43.5 153.5v60zM0 0v9q24 0 72 78l259 420q13 23 33.5 40t38.5 22v3h-193q-76 0 -108.5 -23t-36.5 -94l-1 -20l-7 1l11 212l7 -1l-3 -67q9 9 26 9h389v-9q-21 0 -69 -78l-259 -418q-33 -52 -48 -63v-3h38q73 0 281 -39.5t308 -39.5q186 0 262 84l6 -6 q-142 -157 -327 -157q-78 0 -179 35t-194 70t-153 35h-153z" />
<glyph unicode="&#xef;s" horiz-adv-x="755" d="M95 233v288q0 30 -30 30h-45v9h55q23 0 42 4.5t33.5 17t14.5 31.5v4h8v-85v-348q0 -84 66.5 -135.5t175.5 -51.5q104 0 168 43.5t64 115.5q0 18 -8.5 34t-20.5 27t-34 22t-39 17.5t-45 16.5q-28 9 -44.5 15.5t-41 17.5t-39 22.5t-29 27.5t-21.5 35.5t-7 43.5 q0 73 54 117.5t143 44.5q74 0 133 -44q11 -8 16 -23l7 2q-2 8 -4 32l-3 53h10l11 -236l-18 -1l-2 42q-2 42 -18 76.5t-50.5 57.5t-81.5 23q-61 0 -94 -31.5t-33 -90.5q0 -17 8.5 -31.5t19.5 -24.5t32.5 -20.5t38 -17t44.5 -16.5q28 -9 46 -16t43.5 -19t41 -24.5t30.5 -29.5 t22.5 -38.5t7.5 -47.5q0 -87 -84.5 -140t-223.5 -53q-144 0 -231.5 70t-87.5 184zM47 782q20 0 32.5 -11.5t12.5 -32.5q0 -20 -12 -32t-33 -12q-20 0 -32 11.5t-12 32.5q0 20 11.5 32t32.5 12zM243 782q13 0 23 -5t15.5 -15t5.5 -24q0 -13 -5 -23t-15 -15.5t-24 -5.5 q-20 0 -32.5 11.5t-12.5 32.5q0 20 12 32t33 12z" />
<glyph unicode="&#xe1;k" horiz-adv-x="1256" d="M35 151q0 82 57 132.5t151 50.5q61 0 104.5 -33.5t43.5 -80.5q0 -19 -12.5 -32t-30.5 -13v47q0 39 -31 66.5t-74 27.5q-58 0 -93 -44.5t-35 -117.5q0 -61 39 -98t102 -37q81 0 138 60.5t57 146.5v202q0 68 -49 109.5t-129 41.5q-48 0 -83 -18t-52.5 -48t-19.5 -70l-3 -62 h-18l11 236h10l-3 -53q-2 -24 -4 -32l7 -2q5 15 16 23q59 44 138 44q116 0 186.5 -50t70.5 -132v-241q0 -71 48.5 -121t116.5 -50q54 0 88.5 32.5t34.5 80.5q0 26 -11.5 47t-32 33.5t-48.5 14.5h-91v9h35q36 0 44.5 8t8.5 44v459q0 30 -30 30h-47v9h57q37 0 63.5 12.5 t26.5 40.5v4h8v-85v-420q81 0 92 14l158 179q18 20 18 38q0 27 -52 27h-9v9h221v-9h-12q-84 0 -145 -69l-160 -181v-4q45 -10 77.5 -26.5t50.5 -33t29.5 -41.5t15.5 -43.5t8 -46.5q8 -63 27 -92.5t61 -29.5q26 0 41.5 17.5t15.5 46.5q0 38 -24.5 59t-62.5 26q0 15 39 15 q23 -14 40 -41t17 -59q0 -40 -25.5 -64t-67.5 -24q-67 0 -97 40.5t-45 125.5q-5 29 -9.5 47t-16.5 41.5t-29 37t-46.5 23t-70.5 9.5h-39v-41q0 -33 14 -84q12 -45 12 -72q0 -38 -18 -69t-50.5 -49.5t-73.5 -18.5q-88 0 -150 58t-62 140h-5l-5 -23q-14 -56 -54 -94.5t-82 -53 t-82 -14.5q-94 0 -151.5 43.5t-57.5 115.5zM253 657l-9 8l118 139q4 5 10 5q5 0 10 -4l16 -13l-24 -30z" />
<glyph unicode="&#xe4;k" horiz-adv-x="1256" d="M202 782q20 0 32.5 -11.5t12.5 -32.5q0 -20 -12 -32t-33 -12q-20 0 -32 11.5t-12 32.5q0 20 11.5 32t32.5 12zM398 782q20 0 32 -11.5t12 -32.5q0 -20 -11.5 -32t-32.5 -12q-20 0 -32.5 11.5t-12.5 32.5q0 20 12 32t33 12zM35 151q0 82 57 132.5t151 50.5 q61 0 104.5 -33.5t43.5 -80.5q0 -19 -12.5 -32t-30.5 -13v47q0 39 -31 66.5t-74 27.5q-58 0 -93 -44.5t-35 -117.5q0 -61 39 -98t102 -37q81 0 138 60.5t57 146.5v202q0 68 -49 109.5t-129 41.5q-48 0 -83 -18t-52.5 -48t-19.5 -70l-3 -62h-18l11 236h10l-3 -53 q-2 -24 -4 -32l7 -2q5 15 16 23q59 44 138 44q116 0 186.5 -50t70.5 -132v-241q0 -71 48.5 -121t116.5 -50q54 0 88.5 32.5t34.5 80.5q0 26 -11.5 47t-32 33.5t-48.5 14.5h-91v9h35q36 0 44.5 8t8.5 44v459q0 30 -30 30h-47v9h57q37 0 63.5 12.5t26.5 40.5v4h8v-85v-420 q81 0 92 14l158 179q18 20 18 38q0 27 -52 27h-9v9h221v-9h-12q-84 0 -145 -69l-160 -181v-4q45 -10 77.5 -26.5t50.5 -33t29.5 -41.5t15.5 -43.5t8 -46.5q8 -63 27 -92.5t61 -29.5q26 0 41.5 17.5t15.5 46.5q0 38 -24.5 59t-62.5 26q0 15 39 15q23 -14 40 -41t17 -59 q0 -40 -25.5 -64t-67.5 -24q-67 0 -97 40.5t-45 125.5q-5 29 -9.5 47t-16.5 41.5t-29 37t-46.5 23t-70.5 9.5h-39v-41q0 -33 14 -84q12 -45 12 -72q0 -38 -18 -69t-50.5 -49.5t-73.5 -18.5q-88 0 -150 58t-62 140h-5l-5 -23q-14 -56 -54 -94.5t-82 -53t-82 -14.5 q-94 0 -151.5 43.5t-57.5 115.5z" />
<glyph unicode="ik" horiz-adv-x="868" d="M95 233v288q0 30 -30 30h-45v9h55q23 0 42 4.5t33.5 17t14.5 31.5v4h8v-85v-348q0 -79 46.5 -127.5t123.5 -48.5q49 0 83.5 31.5t34.5 76.5q0 40 -25 66t-67 29h-81v9h25q36 0 44.5 8t8.5 44v459q0 30 -30 30h-47v9h57q37 0 63.5 12.5t26.5 40.5v4h8v-85v-420q54 0 65 14 l158 179q18 20 18 38q0 27 -52 27h-9v9h221v-9h-12q-84 0 -145 -69l-160 -181v-4q45 -10 77.5 -26.5t50.5 -33t29.5 -41.5t15.5 -43.5t8 -46.5q8 -63 27 -92.5t61 -29.5q24 0 49 20l12 10l6 -7l-12 -10q-41 -37 -82 -37q-67 0 -97 40.5t-45 125.5q-5 29 -9.5 47t-16.5 41.5 t-29 37t-46.5 23t-70.5 9.5h-12v-41q0 -33 14 -84q12 -45 12 -72q0 -57 -44.5 -97t-107.5 -40q-100 0 -161.5 70t-61.5 184zM134 800q20 0 32 -11.5t12 -32.5q0 -13 -5 -23t-15 -16t-24 -6q-20 0 -32.5 12t-12.5 33q0 20 12 32t33 12z" />
<glyph unicode="&#xed;k" horiz-adv-x="858" d="M95 233v288q0 30 -30 30h-45v9h55q23 0 42 4.5t33.5 17t14.5 31.5v4h8v-85v-348q0 -79 46.5 -127.5t123.5 -48.5q49 0 83.5 31.5t34.5 76.5q0 40 -25 66t-67 29h-81v9h25q36 0 44.5 8t8.5 44v459q0 30 -30 30h-47v9h57q37 0 63.5 12.5t26.5 40.5v4h8v-85v-420q54 0 65 14 l158 179q18 20 18 38q0 27 -52 27h-9v9h221v-9h-12q-84 0 -145 -69l-160 -181v-4q45 -10 77.5 -26.5t50.5 -33t29.5 -41.5t15.5 -43.5t8 -46.5q8 -63 27 -92.5t61 -29.5q24 0 49 20l12 10l6 -7l-12 -10q-41 -37 -82 -37q-67 0 -97 40.5t-45 125.5q-5 29 -9.5 47t-16.5 41.5 t-29 37t-46.5 23t-70.5 9.5h-12v-41q0 -33 14 -84q12 -45 12 -72q0 -57 -44.5 -97t-107.5 -40q-100 0 -161.5 70t-61.5 184zM87 657l-9 8l118 139q4 5 10 5q4 0 10 -4l12 -10l-24 -30z" />
<glyph unicode="ff" horiz-adv-x="814" d="M199 408h284v217q0 64 49 103t129 39q29 0 56 -10t47.5 -28t33.5 -42q-35 84 -113.5 129t-179.5 45q-142 0 -228.5 -70.5t-86.5 -186.5q0 -19 9 -40v-156zM121 62v319h-91v27h91v157q0 97 46 170.5t129.5 114t193.5 40.5q88 0 162.5 -35.5t118 -97.5t43.5 -134 q0 -53 -39 -90.5t-94 -37.5h-20q0 7 2.5 13.5t6.5 12t9.5 9.5t12.5 6t14 2q37 0 63.5 25t26.5 60q0 52 -39.5 89t-95.5 37q-45 0 -72.5 -27t-27.5 -71v-243h193v-27h-193v-400q0 -56 -21 -98.5t-59 -66t-88 -23.5q-63 0 -107.5 34.5t-44.5 83.5q0 17 5 33l8 -4 q-4 -14 -4 -29q0 -24 16 -44.5t43 -32.5t59 -12q58 0 93.5 33t35.5 87q0 19 -14 40v399h-284v-344q0 -18 -8 -26v-2h64v-9h-222v9h35q29 0 41 12t12 41z" />
<glyph unicode="fi" horiz-adv-x="686" d="M471 119v403q0 30 -30 30h-45v9h55q37 0 63.5 12.5t26.5 40.5v4h8v-86v-412q-9 -21 -9 -40q0 -13 5 -24.5t14 -19.5t20.5 -13t24.5 -5q26 0 42 16t16 43q0 15 -4 29l8 4q5 -16 5 -33q0 -40 -25.5 -64t-66.5 -24q-44 0 -76 38t-32 92zM18 0v9h42q28 0 37 11.5t9 41.5v490 h-88v27h88q-3 10 -8 32t-9.5 50.5t-4.5 45.5q0 55 33 96.5t94 64.5t140 23q57 0 106 -15t77 -41t28 -56q0 -24 -15.5 -41t-37.5 -17q-20 0 -32.5 12t-12.5 33q0 18 13 31t32 13q18 0 31 -13q-8 20 -33.5 36t-63 25.5t-80.5 9.5q-97 0 -156 -44.5t-59 -116.5q0 -69 34 -128 h139v-27h-137v-515q0 -18 -8 -26v-2h84v-9h-242z" />
<glyph unicode="&#xd;" horiz-adv-x="295" />
<glyph unicode=" "  horiz-adv-x="266" />
<glyph unicode="&#x09;" horiz-adv-x="266" />
<glyph unicode="&#xa0;" horiz-adv-x="266" />
<glyph unicode="!" horiz-adv-x="230" d="M80 732q0 9 35 9q36 0 36 -9q0 -98 -13 -264t-13 -264h-18q0 98 -13.5 264t-13.5 264zM115 80q20 0 32.5 -12t12.5 -33q0 -20 -12 -32t-33 -12q-20 0 -32 11.5t-12 32.5q0 20 11.5 32.5t32.5 12.5z" />
<glyph unicode="&#x22;" horiz-adv-x="204" d="M115 618l10 143q14 -1 20.5 -2t10.5 -6t4 -14q0 -16 -6 -58l-8 -65zM35 618l10 143q14 -1 20.5 -2t10.5 -6t4 -14q0 -16 -6 -58l-8 -65z" />
<glyph unicode="#" horiz-adv-x="461" d="M134 55l-19 2l17 166h-105v19h107l16 149h-106v20h107l17 161l19 -2l-17 -159h132l17 161l19 -2l-17 -159h114v-20h-116l-15 -149h113v-19h-115l-17 -168l-19 2l17 166h-132zM168 391l-15 -149h132l16 149h-133z" />
<glyph unicode="$" horiz-adv-x="486" d="M247 -35h-17v67q-81 1 -158 54q-5 4 -14 15t-11 18l-4 -1q2 -8 4 -43l3 -63h-9l-13 273l18 1l2 -41q4 -87 56.5 -141t124.5 -54h1v295q-2 1 -7 3q-24 10 -36.5 15.5t-34.5 16.5t-34 19.5t-27 22.5t-23 28.5t-13.5 33.5t-5.5 41q0 69 49.5 113t131.5 48v68h17v-67 q73 0 132 -44q11 -8 16 -23l7 2q-2 8 -4 32l-3 53h10l11 -236l-18 -1l-2 42q-3 65 -41.5 111t-107.5 46v-253q7 -3 28.5 -11.5t29.5 -12t27.5 -13t28 -15t24.5 -16t23 -19t17.5 -21.5t15.5 -26t8.5 -30t3.5 -35q0 -86 -54 -133.5t-152 -50.5v-68zM230 424v244 q-54 -4 -82.5 -35t-28.5 -86q0 -44 28.5 -72t82.5 -51zM247 338v-287q61 5 96 43.5t35 106.5q0 27 -10 48.5t-30 37.5t-40 27t-51 24z" />
<glyph unicode="%" horiz-adv-x="647" d="M558 596l13 -12l-475 -521l-13 12zM546 123q0 53 -23.5 90t-57.5 37q-36 0 -58.5 -31.5t-22.5 -82.5q0 -53 24 -90t58 -37q36 0 58 31.5t22 82.5zM465 268q63 0 101 -38t38 -100q0 -58 -40.5 -98.5t-98.5 -40.5q-62 0 -100 38t-38 101q0 57 40.5 97.5t97.5 40.5zM264 530 q0 53 -24 90t-58 37q-36 0 -58 -31.5t-22 -83.5q0 -53 23.5 -90t57.5 -37q36 0 58.5 31.5t22.5 83.5zM183 675q62 0 100 -38t38 -101q0 -57 -40.5 -97.5t-97.5 -40.5q-63 0 -101 38t-38 100q0 58 40.5 98.5t98.5 40.5z" />
<glyph unicode="&#x26;" horiz-adv-x="695" d="M296 657q70 0 119 -34.5t49 -83.5q0 -44 -36 -76t-87 -32h-20q0 18 13.5 30.5t31.5 12.5q16 0 31 5.5t26 14t17 20.5t6 25q0 42 -44 71t-106 29q-63 0 -101 -31t-38 -82t29 -91t74 -40h16v-18h-21q-65 0 -105 -52.5t-40 -137.5q0 -71 64.5 -121t155.5 -50q62 0 115 21 t84 56.5t31 78.5q0 50 -31.5 88t-81.5 38q-37 -3 -57.5 -19.5t-20.5 -52.5v-5h-18v9q0 37 12 62t35.5 37.5t46.5 18t56 7.5q26 2 42 3.5t37.5 4.5t34 9t25 14.5t18.5 22t6 31.5q0 6 -1 12h14l2 -27v-17q0 -24 -4.5 -42t-14.5 -29.5t-21.5 -19t-28.5 -11.5t-33 -5t-37 -1h-30 q31 -19 50 -54.5t19 -76.5q0 -73 -79 -125t-191 -52q-125 0 -201.5 53.5t-76.5 141.5q0 79 46.5 135.5t120.5 66.5v1q-39 7 -65 46t-26 86q0 56 55.5 95.5t133.5 39.5z" />
<glyph unicode="'" horiz-adv-x="124" d="M35 618l10 143q14 -1 20.5 -2t10.5 -6t4 -14q0 -16 -6 -58l-8 -65z" />
<glyph unicode="(" horiz-adv-x="258" d="M245 781q-66 -66 -102.5 -205t-36.5 -301t36.5 -301t102.5 -205l-13 -13q-94 94 -145.5 233t-51.5 290q0 147 50.5 283t146.5 232z" />
<glyph unicode=")" horiz-adv-x="258" d="M14 781l13 13q96 -96 146 -231.5t50 -283.5q0 -151 -51.5 -290.5t-144.5 -232.5l-13 13q33 33 59.5 87.5t43.5 121.5t26 142.5t9 154.5q0 162 -36 301.5t-102 204.5z" />
<glyph unicode="*" horiz-adv-x="266" d="M148 635q4 -2 42 -20t42 -20q1 -1 1 -3l-11 -20h-3q-4 2 -39 26t-39 26l-1 2l-2 -1l2 -2q0 -5 3 -47t3 -46q0 -2 -1 -3h-23l-2 3q0 4 3 46t3 47l2 2l-2 1l-1 -2q-4 -2 -38.5 -26t-38.5 -26h-4l-11 20l2 3q4 2 41.5 20t41.5 20h2v3l-2 -1q-4 2 -41.5 20.5t-41.5 20.5 q-2 1 -2 3l11 20h4q4 -2 38.5 -26t38.5 -26l1 -2l2 1l-2 2q0 4 -3 46t-3 47q1 2 2 3h23l1 -3q0 -5 -3 -47t-3 -46l-2 -2l2 -1l1 2q4 2 39 26t39 26h3l11 -20l-1 -3q-4 -2 -42 -20.5t-42 -20.5l-2 1v-3h2z" />
<glyph unicode="+" horiz-adv-x="434" d="M233 329h175l-2 -27h-173v-175l-27 2v173h-179l1 27h178v181l27 -1v-180z" />
<glyph unicode="," horiz-adv-x="195" d="M60 -81q20 0 36.5 16.5t20.5 38.5l4 22l-3 2q-5 -7 -20 -7q-45 0 -45 44q0 45 45 45q20 0 32 -12.5t12 -32.5q0 -56 -22.5 -90.5t-59.5 -34.5v9z" />
<glyph unicode="-" horiz-adv-x="284" d="M262 275h-244l4 27h245z" />
<glyph unicode="." horiz-adv-x="195" d="M98 80q20 0 32 -12t12 -33q0 -20 -11.5 -32t-32.5 -12q-20 0 -32.5 11.5t-12.5 32.5q0 20 12 32.5t33 12.5z" />
<glyph unicode="/" horiz-adv-x="488" d="M18 -172l429 906l23 -12l-428 -906z" />
<glyph unicode="0" horiz-adv-x="543" d="M268 709q-73 0 -117.5 -86.5t-44.5 -227.5q0 -159 49.5 -272t119.5 -113q73 0 118 86.5t45 227.5q0 159 -50 272t-120 113zM272 727q108 0 174.5 -101t66.5 -266q0 -152 -70.5 -260t-170.5 -108q-108 0 -174.5 101t-66.5 267q0 152 70.5 259.5t170.5 107.5z" />
<glyph unicode="1" horiz-adv-x="317" d="M307 0h-297v9h64q36 0 45 10t9 52v468q0 37 3 58l-4 2q-12 -18 -25 -31l-67 -76l-7 5l39 49q119 152 119 181h13v-656q0 -42 8.5 -52t44.5 -10h55v-9z" />
<glyph unicode="2" horiz-adv-x="463" d="M430 0h-395v60q10 1 37 20.5t48 47.5q106 140 164 244.5t58 185.5q0 63 -36.5 107t-88.5 44q-59 0 -94 -39t-43 -95v-34h-17v176h9v-43q59 53 145 53q88 0 142 -50t54 -131q0 -65 -46 -147t-106 -149.5t-148 -151.5q-33 -31 -42 -36l3 -5q35 5 58 5h147q79 0 112 18 t37 82l2 29l11 -1z" />
<glyph unicode="3" horiz-adv-x="470" d="M35 65v125h18v-31q5 -58 45 -103.5t106 -45.5q76 0 116 47.5t40 137.5q0 92 -41 150.5t-108 58.5h-91v18h76q59 0 95.5 44.5t36.5 111.5q0 64 -31.5 97.5t-91.5 33.5q-64 0 -96.5 -40.5t-36.5 -97.5v-33h-17v179h9v-40l3 -1q8 14 22 21q47 28 115 30q84 0 135 -40.5 t51 -106.5q0 -56 -36.5 -105.5t-84.5 -58.5v-1q72 -10 119 -74.5t47 -145.5q0 -91 -63.5 -147t-167.5 -56q-42 0 -88 19t-81 54z" />
<glyph unicode="4" horiz-adv-x="488" d="M46 177h274v240h71v-240h63v-35h-63v-71q0 -42 10 -52t52 -10h17v-9h-259v9h46q42 0 52.5 10t10.5 52v71h-302v22l6 11.5t15.5 29.5t22.5 43.5t28 55.5t31 63.5t32 70t31 72t28.5 72.5t23.5 69q8 24 8 37q0 21 -39 21v10q70 0 93 6.5t37 33.5l6 -2z" />
<glyph unicode="5" horiz-adv-x="470" d="M72 719h267q37 0 46.5 7.5t13.5 40.5v6l10 -1l-7 -115h-257q-45 0 -53.5 -7.5t-11.5 -49.5l-12 -171q61 40 136 40q104 0 167.5 -65.5t63.5 -172.5q0 -99 -67.5 -169t-163.5 -70q-43 1 -89.5 20t-79.5 54v124h18v-31q2 -54 43.5 -101.5t107.5 -47.5q70 0 113 61t43 160 q0 91 -45.5 155.5t-110.5 64.5q-80 0 -138 -46h-17l18 280q2 34 5 34z" />
<glyph unicode="6" horiz-adv-x="493" d="M266 453q85 0 138.5 -65t53.5 -170q0 -93 -63.5 -159.5t-150.5 -66.5q-94 0 -151.5 93t-57.5 245q0 164 66.5 280.5t160.5 116.5q16 0 31.5 -3t29 -8.5t24.5 -10.5t22.5 -13.5t17 -13t15 -13t11.5 -9.5v-103h-9v14q-11 58 -45 100t-97 42q-68 0 -110 -102t-42 -269 q0 -136 39.5 -232t94.5 -96q56 0 97 61.5t41 146.5q0 97 -34.5 157.5t-87.5 60.5q-37 0 -62.5 -27t-25.5 -65q0 -22 17.5 -38t42.5 -16q19 0 32 -13t13 -31h-20q-28 0 -51.5 13.5t-37.5 36t-14 48.5q0 45 33 77t79 32z" />
<glyph unicode="7" horiz-adv-x="452" d="M147 128q0 78 23.5 161t60.5 151t66.5 112.5t56.5 76.5q18 22 28 26l-1 6q-11 -4 -74 -4h-213q-38 0 -47.5 -7.5t-11.5 -40.5l-4 -56h-10l11 166h403v-50q-18 -5 -50 -38t-69 -89.5t-64 -151t-27 -202.5q0 -66 15.5 -107.5t44.5 -80.5h-45q-42 0 -67.5 35t-25.5 93z" />
<glyph unicode="8" horiz-adv-x="514" d="M257 10q66 0 106.5 53.5t40.5 141.5q0 82 -43 140.5t-104 58.5q-66 0 -106 -54.5t-40 -144.5q0 -81 43 -138t103 -57zM257 422q52 0 83.5 40t31.5 106q0 58 -33.5 99.5t-81.5 41.5q-51 0 -82.5 -39t-31.5 -102q0 -60 33.5 -103t80.5 -43zM257 -8q-100 0 -161 58.5 t-61 154.5q0 80 46.5 140t119.5 70v1q-49 9 -84.5 54t-35.5 100q0 65 51.5 111t124.5 46q80 0 128.5 -43t48.5 -114q0 -55 -36 -100t-85 -54v-1q73 -10 119.5 -70t46.5 -140q0 -88 -65 -150.5t-157 -62.5z" />
<glyph unicode="9" horiz-adv-x="488" d="M222 266q-85 0 -138.5 65t-53.5 170q0 93 63.5 159.5t150.5 66.5q94 0 151.5 -93t57.5 -245q0 -164 -66.5 -280.5t-160.5 -116.5q-16 0 -31.5 3t-29 8.5t-24.5 10.5t-22.5 13.5t-17 13t-15 13t-11.5 9.5v103h9v-14q11 -58 45 -100t97 -42q68 0 110 102t42 269 q0 136 -39.5 232t-94.5 96q-56 0 -97 -61.5t-41 -146.5q0 -97 34.5 -157t87.5 -60q37 0 62.5 26.5t25.5 63.5q0 23 -17.5 39.5t-42.5 16.5q-19 0 -32 12.5t-13 29.5h20q43 0 73 -28.5t30 -69.5q0 -44 -33 -76t-79 -32z" />
<glyph unicode=":" horiz-adv-x="195" d="M98 80q20 0 32 -12t12 -33q0 -20 -11.5 -32t-32.5 -12q-20 0 -32.5 11.5t-12.5 32.5q0 20 12 32.5t33 12.5zM98 431q20 0 32 -12t12 -33q0 -20 -11.5 -32t-32.5 -12q-20 0 -32.5 11.5t-12.5 32.5q0 20 12 32.5t33 12.5z" />
<glyph unicode=";" horiz-adv-x="195" d="M98 431q20 0 32 -12t12 -33q0 -20 -11.5 -32t-32.5 -12q-20 0 -32.5 11.5t-12.5 32.5q0 20 12 32.5t33 12.5zM142 35q0 -56 -22.5 -90.5t-59.5 -34.5v18q19 0 33.5 16t17.5 34q1 8 6 18l-3 2q-5 -7 -16 -7q-45 0 -45 44q0 45 45 45q20 0 32 -12.5t12 -32.5z" />
<glyph unicode="&#x3c;" horiz-adv-x="372" d="M306 553l35 -36l-225 -150q-72 -48 -83 -50v-4q11 -2 83 -50l225 -150l-35 -36l-291 232v12z" />
<glyph unicode="=" horiz-adv-x="461" d="M422 372h-387l4 27h386zM422 230h-387l4 27h386z" />
<glyph unicode="&#x3e;" horiz-adv-x="372" d="M66 553l291 -232v-12l-291 -232l-35 36l225 152q69 46 78 48v4q-9 2 -78 48l-225 152z" />
<glyph unicode="?" horiz-adv-x="403" d="M167 80q20 0 32 -12t12 -33q0 -20 -11.5 -32t-32.5 -12q-20 0 -32.5 11.5t-12.5 32.5q0 19 13 32t32 13zM50 547h-18v192h10v-39q55 44 131 46q89 0 143.5 -44t54.5 -116q0 -36 -19.5 -71.5t-47.5 -63.5t-56.5 -54.5t-48 -53.5t-19.5 -50v-89h-27v89q0 31 14.5 62.5 t35.5 59t42 54.5t35.5 57.5t14.5 59.5q0 133 -121 133q-34 0 -57.5 -10.5t-36.5 -31t-19 -40t-11 -49.5v-41z" />
<glyph unicode="@" horiz-adv-x="859" d="M624 636l-4 -34v-1l-36 -328q-3 -33 -3 -34q0 -39 13.5 -61.5t37.5 -22.5q72 0 122.5 78.5t50.5 189.5q0 65 -28 124.5t-75 102t-112 68t-136 25.5q-109 0 -201 -51t-145.5 -139t-53.5 -191q0 -105 47.5 -193.5t129.5 -140t178 -51.5q62 0 123 22t97 59l13 -13 q-38 -39 -103 -62.5t-130 -23.5q-101 0 -187 54t-136 147t-50 202q0 108 56 200t152.5 145.5t209.5 53.5q100 0 185 -45t134.5 -123t49.5 -170q0 -118 -57 -202t-137 -84q-35 0 -61.5 29.5t-38.5 87.5h-7q-21 -49 -59.5 -83.5t-91.5 -34.5q-67 0 -114 54.5t-47 149.5 q0 28 4.5 54.5t14 52t23.5 48t34 41.5t44 32.5t54.5 21t65.5 7.5q61 0 116 -28q22 0 31 9t14 33l3 27zM544 559q-41 20 -89 20q-44 0 -78.5 -22.5t-54.5 -60t-30 -81t-10 -89.5q0 -77 26.5 -123.5t70.5 -46.5q41 0 82.5 45.5t57.5 118.5z" />
<glyph unicode="A" horiz-adv-x="758" d="M8 0v9h16q28 0 55 62l281 648h77v-12q0 -36 9 -58l236 -578q16 -39 26 -50.5t33 -11.5h8v-9h-191v9h77v2q-14 5 -31 47l-56 137h-396l-54 -124q-5 -12 -5 -23q0 -17 13 -28t35 -11h49v-9h-182zM160 213h381l-170 417q-8 18 -8 40h-9q0 -12 -12 -40z" />
<glyph unicode="B" horiz-adv-x="606" d="M167 18h114q93 0 150 52t57 138q0 90 -60 148t-153 58h-53v17h40q66 0 109 38t43 97q0 61 -45.5 98t-120.5 37h-81v-1q17 -17 17 -52v-577q0 -34 -17 -51v-2zM18 0v9h35q36 0 44.5 8.5t8.5 44.5v595q0 36 -8.5 44.5t-44.5 8.5h-35v9h244q107 0 172 -41.5t65 -109.5 q0 -46 -40 -88.5t-104 -51.5v-4q93 -7 156.5 -72t63.5 -144q0 -92 -79 -150t-197 -58h-281z" />
<glyph unicode="C" horiz-adv-x="652" d="M35 362q0 151 102.5 258t246.5 107q108 0 183 -64q7 -7 11 -20l7 2q-2 10 -3 29l-2 73h9l9 -289l-18 -1l-3 93q-4 66 -64.5 113t-136.5 47q-113 0 -182.5 -91.5t-69.5 -240.5q0 -100 35 -184.5t96 -134t132 -49.5q73 0 135 37t87 100l17 -7q-28 -72 -93.5 -110 t-147.5 -38q-157 0 -253.5 102t-96.5 268z" />
<glyph unicode="D" horiz-adv-x="723" d="M167 18h106q162 0 247 87.5t85 254.5q0 166 -85 253.5t-247 87.5h-106v-1q17 -17 17 -47v-587q0 -30 -17 -47v-1zM18 0v9h35q36 0 44.5 8.5t8.5 44.5v586q0 38 -9 50t-44 12h-35v9h282q176 0 283.5 -98.5t107.5 -260.5t-107.5 -261t-283.5 -99h-282z" />
<glyph unicode="E" horiz-adv-x="557" d="M341 206h-9v55q0 65 -28.5 86t-79.5 21h-40v-297q0 -30 -22 -52v-1h199q73 0 108.5 32t40.5 103l6 80h16l-17 -271l-9 1l3 46h-1q-9 -9 -37 -9h-453v9h35q36 0 44.5 8.5t8.5 44.5v595q0 36 -8.5 44.5t-44.5 8.5h-35v9h399q28 0 37 -9h1l-3 46l9 1l18 -271h-18l-4 70 q-4 79 -41.5 112t-112.5 33h-141v-1q22 -22 22 -52v-262h40q52 0 80 20.5t28 85.5v35h9v-321z" />
<glyph unicode="F" horiz-adv-x="506" d="M18 0v9h35q36 0 44.5 8.5t8.5 44.5v595q0 36 -8.5 44.5t-44.5 8.5h-35v9h416q18 0 27 -9h1l-4 68l9 1l19 -293h-18l-4 70q-4 76 -53 110.5t-128 34.5h-121v-1q22 -22 22 -52v-298h40q25 0 43.5 3.5t38.5 13.5t31 32.5t11 56.5v60h9v-331h-9v41q0 52 -32 79t-92 27h-40 v-270q0 -36 9 -44.5t45 -8.5h65v-9h-285z" />
<glyph unicode="G" horiz-adv-x="716" d="M618 -40h-9v70q-1 19 -12.5 34t-27.5 15q-15 0 -29 -14q-68 -73 -178 -73q-148 0 -238.5 101.5t-90.5 268.5q0 151 100.5 258t242.5 107q108 0 183 -63q7 -6 11 -19l4 1q-3 12 -3 23l-5 97l10 1l16 -308l-17 -1l-4 66q-5 85 -65 135t-140 50q-111 0 -178.5 -91 t-67.5 -240q0 -152 72 -260t174 -108q113 2 173 82v131q0 42 -25.5 67.5t-67.5 25.5h-116v18h373v-18h-85v-82v-274z" />
<glyph unicode="H" horiz-adv-x="642" d="M18 0v9h35q35 0 44 12t9 50v577q0 38 -9 50t-44 12h-35v9h246v-9h-26q-35 0 -44.5 -12t-9.5 -50v-261h274v261q0 38 -9.5 50t-44.5 12h-26v9h247v-9h-36q-35 0 -44 -12t-9 -50v-577q0 -38 9 -50t44 -12h36v-9h-247v9h27q35 0 44 12t9 50v298h-274v-298q0 -38 9.5 -50 t44.5 -12h26v-9h-246z" />
<glyph unicode="I" horiz-adv-x="290" d="M18 0v9h35q36 0 44.5 8t8.5 44v597q0 36 -8.5 44t-44.5 8h-35v9h255v-11h-35q-36 0 -45 -8t-9 -44v-595q0 -36 9 -44t45 -8h35v-9h-255z" />
<glyph unicode="J" horiz-adv-x="406" d="M33 117q0 -48 32.5 -77.5t86.5 -29.5q80 0 80 106v566q0 17 9 26v2h-138v9h286v-9h-26q-53 0 -53 -53v-496q0 -75 -44.5 -122t-113.5 -47q-58 0 -93 34.5t-35 90.5h9z" />
<glyph unicode="K" horiz-adv-x="620" d="M517 -11q-28 0 -49.5 11t-35.5 28t-25 45t-16.5 52t-12.5 60q-4 26 -6.5 39.5t-8 37.5t-10.5 37.5t-13 33t-17 30.5t-22 24t-28 20t-34.5 11.5t-42.5 4.5h-12v-352q0 -42 9 -52t45 -10h35v-9h-255v9h35q20 0 29 1.5t15 9t7.5 18t1.5 33.5v586q0 36 -8.5 44.5t-44.5 8.5 h-35v9h229v-9h-9q-36 0 -45 -8.5t-9 -44.5v-225q54 0 65 14l158 199q18 22 18 38q0 27 -52 27h-9v9h221v-9h-12q-38 0 -78 -16.5t-69 -52.5l-159 -201l1 -4q29 -7 53.5 -17.5t42 -26t31.5 -30.5t24 -37t16.5 -39.5t11.5 -43.5t8 -43t6 -44t6.5 -45.5t9.5 -38t14.5 -31.5 t22 -19.5t30.5 -7.5q26 0 41.5 17.5t15.5 46.5q0 38 -24.5 59t-62.5 26q0 15 39 15q23 -14 40 -41t17 -59q0 -40 -25.5 -64t-67.5 -24z" />
<glyph unicode="L" horiz-adv-x="515" d="M18 0v9h35q35 0 44 11.5t9 48.5v589q0 36 -8.5 44t-44.5 8h-35v9h255v-9h-35q-36 0 -45 -8t-9 -44v-587q0 -30 -22 -52v-1h135q80 0 121 24t47 91l8 100h20l-20 -284l-10 1l4 59h-1q-9 -9 -27 -9h-421z" />
<glyph unicode="M" horiz-adv-x="902" d="M9 0v9h15q34 0 48 16t14 55v577q0 31 -8.5 42t-40.5 11h-28v9h138l284 -573q15 -30 15 -43h5q0 14 14 43l279 573h149v-9h-30q-36 0 -45.5 -15t-9.5 -56v-559q0 -39 14.5 -55t49.5 -16h22v-9h-261v9h36q33 0 47 14t14 47v522q0 33 1 44h-7q-2 -6 -17 -41l-289 -599l-3 -7 h-2l-3 7l-290 588q-13 29 -13 42h-4q1 -9 1 -34v-522q0 -33 14 -47t48 -14h36v-9h-193z" />
<glyph unicode="N" horiz-adv-x="578" d="M18 0v9h26q30 0 42 12t12 41v595q0 36 -9 44.5t-45 8.5h-26v9h153l274 -504q18 -31 18 -37h6q-1 11 -1 42v427q0 34 -14.5 48.5t-49.5 14.5h-45v9h206v-9h-16q-35 0 -49.5 -14.5t-14.5 -48.5v-666h-8q0 10 -28 62l-310 563q-20 36 -20 39h-5q1 -11 1 -43v-540 q0 -29 12 -41t42 -12h26v-9h-177z" />
<glyph unicode="O" horiz-adv-x="802" d="M402 -8q-167 0 -269 101t-102 267q0 152 108.5 259.5t262.5 107.5q166 0 267.5 -101t101.5 -266q0 -152 -108 -260t-261 -108zM405 10q126 0 202.5 91t76.5 240q0 152 -84 260t-202 108q-126 0 -203 -91t-77 -240q0 -152 84 -260t203 -108z" />
<glyph unicode="P" horiz-adv-x="666" d="M106 62v595q0 36 -8.5 44.5t-44.5 8.5h-35v9h372q113 0 182 -66t69 -174q0 -99 -67.5 -169t-163.5 -70q-78 0 -125.5 38t-47.5 100q0 45 36 76.5t87 31.5h20q0 -18 -13 -30.5t-32 -12.5q-33 0 -56.5 -19t-23.5 -46q0 -54 42.5 -87t112.5 -33q65 0 104.5 61t39.5 160 q0 91 -57 156t-137 65h-193v-5q17 -23 17 -62v-571q0 -36 9 -44.5t45 -8.5h25v-9h-245v9h35q36 0 44.5 8.5t8.5 44.5z" />
<glyph unicode="Q" horiz-adv-x="804" d="M346 50q-84 0 -156 45t-113.5 122t-41.5 168q0 142 108 242t260 100q165 0 265.5 -94t100.5 -248q0 -221 -306 -386q-38 -20 -80 -39q-49 -21 -64 -33q27 0 138 -26q79 -18 130 -28.5t134 -22t147 -11.5q185 0 262 85l6 -6q-141 -157 -327 -157q-84 0 -165.5 26 t-173.5 69q-106 50 -147 50q-17 0 -27 -12t-10 -27q0 -14 8.5 -25t23.5 -13l-3 -18q-25 4 -37.5 19.5t-12.5 36.5q0 44 44 74q15 9 56 28q54 25 86 45q118 72 174.5 167.5t56.5 203.5q0 134 -83 229t-200 95q-125 0 -201 -89t-76 -235q0 -131 66 -224t158 -93 q60 0 102.5 36.5t42.5 88.5q0 18 -10.5 33t-29 23.5t-40.5 8.5q-18 0 -31.5 12.5t-13.5 30.5h20q51 0 87 -31.5t36 -76.5q0 -39 -21.5 -72t-59 -52t-82.5 -19z" />
<glyph unicode="R" horiz-adv-x="616" d="M18 0v9h35q36 0 44.5 8.5t8.5 44.5v595q0 36 -8.5 44.5t-44.5 8.5h-35v9h261q120 0 193 -61t73 -161q0 -86 -60 -145.5t-152 -70.5l-20 -1v-6q72 -8 111 -69l50 -79q18 -28 30.5 -46t32.5 -37.5t35 -19.5t29 12l22 19l5 -7l-22 -19q-45 -38 -83 -38q-18 0 -34.5 7.5 t-32 24.5t-25.5 30.5t-25 37.5l-70 108q-28 43 -48 60t-51 17h-12v17h46q77 0 132 60t55 145q0 84 -55 144t-132 60h-104v-1q17 -17 17 -52v-586q0 -36 9 -44.5t45 -8.5h58v-9h-278z" />
<glyph unicode="S" horiz-adv-x="478" d="M28 245l18 1l2 -41q4 -87 56 -141t124 -54q68 0 109 40t41 106q0 31 -12 58t-36 50t-46.5 39.5t-57.5 37.5q-28 17 -44 27t-40 27.5t-37.5 33.5t-28 37t-21 46t-6.5 53q0 73 54 117.5t143 44.5q74 0 133 -44q11 -8 16 -23l7 2q-2 8 -4 32l-3 53h10l11 -236l-18 -1l-2 42 q-3 65 -41.5 111t-108.5 46q-61 0 -94 -31.5t-33 -90.5q0 -24 9 -45.5t20.5 -37t35 -34t39.5 -28.5t46 -28q27 -16 45 -28t42 -30t39 -36t29.5 -41t21.5 -50t7 -57q0 -81 -61.5 -130.5t-161.5 -49.5q-80 0 -158 54q-18 13 -25 33l-4 -1q3 -13 4 -43l3 -63h-9z" />
<glyph unicode="T" horiz-adv-x="538" d="M102 0v9h76q36 0 44.5 8.5t8.5 44.5v639h-60q-75 0 -103 -22.5t-32 -92.5l-3 -41l-18 1l15 232l11 -1l-5 -58h466l-5 57l11 1l15 -231l-18 -1l-3 41q-5 70 -33 92.5t-102 22.5h-58v-639q0 -36 8.5 -44.5t44.5 -8.5h74v-9h-334z" />
<glyph unicode="U" horiz-adv-x="580" d="M18 719h255v-9h-44q-36 0 -44.5 -8.5t-8.5 -44.5v-529q0 -58 31 -88t90 -30q80 0 122.5 39.5t42.5 114.5v475q0 39 -11.5 55t-45.5 16h-37v9h195v-9h-26q-34 0 -45.5 -16t-11.5 -55v-475q0 -84 -47 -128t-136 -44q-90 0 -144.5 47.5t-54.5 124.5v493q0 36 -9 44.5 t-45 8.5h-26v9z" />
<glyph unicode="V" horiz-adv-x="744" d="M9 719h198v-9h-77v-2q17 -6 31 -46l230 -557q8 -19 8 -36h13q0 17 10 40l224 539q7 15 7 28q0 34 -49 34h-86v9h218v-9h-12q-22 0 -32.5 -12.5t-25.5 -49.5l-264 -653l-54 -4l-265 657q-15 38 -25.5 50t-33.5 12h-15v9z" />
<glyph unicode="W" horiz-adv-x="1081" d="M9 719h144v-14q0 -19 7 -43l207 -557q6 -18 6 -36h10q0 13 7 36l143 476l-20 67q-11 37 -22 49.5t-37 12.5h-23v9h224v-9h-95v-2q20 -7 31 -46l167 -557q6 -24 6 -36h14q0 15 9 39l197 541q7 18 7 29q0 32 -50 32h-38v9h170v-9h-15q-22 0 -32.5 -13.5t-22.5 -48.5 l-237 -652l-56 -5l-168 558l-166 -554l-56 -4l-238 657q-12 39 -22 50.5t-36 11.5h-15v9z" />
<glyph unicode="X" horiz-adv-x="574" d="M18 0v9h9q31 0 48 15t42 63l137 267l-130 278q-22 46 -39 62t-39 16h-16v9h176v-9h-54v-2q11 -4 26.5 -20.5t24.5 -34.5l110 -236l118 218q22 40 22 55q0 20 -45 20h-35v9h171v-9h-16q-22 0 -36.5 -15t-41.5 -63l-127 -236l144 -309q23 -48 36 -62.5t37 -14.5h17v-10 h-232v10h21q29 0 41 5.5t12 18.5q0 7 -19 49l-117 251l-126 -247q-21 -41 -21 -57q0 -12 11 -16.5t36 -4.5h34v-9h-179z" />
<glyph unicode="Y" horiz-adv-x="575" d="M115 0v9h86q36 0 44.5 8.5t8.5 44.5v277l-157 302q-21 40 -33.5 55t-32.5 15h-21v8h189v-8h-62v-2q14 -5 41 -56l129 -246q11 -20 13 -32h7q1 9 13 32l120 232q15 28 15 44q0 28 -43 28h-60v8h193v-8h-17q-20 0 -32.5 -14.5t-34.5 -56.5l-148 -286v-292q0 -36 8.5 -44.5 t44.5 -8.5h74v-9h-345z" />
<glyph unicode="Z" horiz-adv-x="520" d="M0 0v9q13 0 33.5 20t38.5 58l262 550q11 23 31 39.5t38 21.5v3h-193q-77 0 -109 -22.5t-36 -93.5l-1 -20l-7 1l11 212l7 -1l-3 -67q9 9 26 9h389v-9q-11 0 -30.5 -19.5t-38.5 -58.5l-262 -548q-21 -43 -48 -63v-3h229q75 0 106 21.5t35 87.5l2 37l10 -1l-12 -213l-10 1 l3 57h-1q-8 -8 -24 -8h-446z" />
<glyph unicode="[" horiz-adv-x="212" d="M204 781v-18h-115v-1q17 -17 17 -52v-870q0 -34 -17 -51v-2h115v-18h-173v5q4 40 4 83v924h169z" />
<glyph unicode="\" horiz-adv-x="488" d="M470 -172l-23 -12l-429 906l24 12z" />
<glyph unicode="]" horiz-adv-x="212" d="M8 781h169v-924q0 -43 4 -83v-5h-173v18h115v2q-17 17 -17 51v870q0 35 17 52v1h-115v18z" />
<glyph unicode="^" horiz-adv-x="368" d="M27 494l156 153h3l156 -153l-30 -31l-80 93q-39 42 -45 72h-5q-6 -30 -45 -72l-81 -93z" />
<glyph unicode="_" horiz-adv-x="408" d="M408 -142h-408v27h408v-27z" />
<glyph unicode="`" horiz-adv-x="177" d="M39 692q6 4 9 4q4 0 9 -5l98 -117l-14 -12l-107 84l-13 15q-3 5 -3 8q0 6 5 10z" />
<glyph unicode="a" horiz-adv-x="617" d="M451 428q0 68 -49 109.5t-129 41.5q-72 0 -112 -37.5t-43 -98.5l-3 -62h-18l11 236h10l-3 -53q-2 -24 -4 -32l7 -2q5 15 16 23q59 44 138 44q116 0 186.5 -50t70.5 -132v-344q0 -22 2 -31.5t9 -14.5t22 -5l20 1l17 1l1 -9q-59 -6 -109 -22v8q0 30 -11 90q-7 45 -8 65h-10 q-11 -43 -36.5 -75.5t-57.5 -50.5t-63.5 -27t-60.5 -9q-94 0 -151.5 43.5t-57.5 115.5q0 82 57 132.5t151 50.5q61 0 104.5 -33.5t43.5 -80.5q0 -19 -12.5 -32t-30.5 -13v47q0 39 -31 66.5t-74 27.5q-58 0 -93 -44.5t-35 -117.5q0 -61 39 -98t102 -37q81 0 138 60.5 t57 146.5v202z" />
<glyph unicode="b" horiz-adv-x="750" d="M167 222h-18q-11 0 -19.5 -5t-16 -19t-12 -44t-4.5 -74v-104h-8v131v624q0 30 -30 30h-47v9h57q23 0 42 4.5t33.5 17t14.5 31.5v4h8v-85v-117q0 -43 -4 -101.5t-8 -95.5t-6 -43h6q21 85 95 148.5t158 63.5q135 0 218 -83t83 -219q0 -125 -89 -214t-215 -89 q-80 0 -136.5 46.5t-56.5 111.5q0 70 53.5 119t129.5 49h20q0 -18 -13 -30.5t-32 -12.5q-63 0 -101.5 -34.5t-38.5 -90.5q0 -58 51.5 -99t123.5 -41q98 0 157.5 83.5t59.5 219.5q0 110 -61.5 188t-148.5 78q-92 0 -168.5 -76.5t-76.5 -167.5v-113z" />
<glyph unicode="c" horiz-adv-x="638" d="M41 297q0 124 93.5 212t225.5 88q108 0 183 -64q7 -7 11 -20l7 2q-2 10 -3 29l-2 73h9l9 -289l-18 -1l-3 93q-4 66 -64.5 113t-136.5 47q-100 0 -161 -73.5t-61 -193.5q0 -125 68.5 -214t164.5 -89q73 0 135 37t87 100l17 -7q-28 -72 -93.5 -110t-147.5 -38 q-144 0 -232 84t-88 221z" />
<glyph unicode="d" horiz-adv-x="749" d="M41 294q0 125 89 214t215 89q80 0 136.5 -46.5t56.5 -111.5q0 -70 -53.5 -119t-129.5 -49h-20q0 18 13 30.5t32 12.5q63 0 101.5 34.5t38.5 90.5q0 58 -51.5 99t-123.5 41q-98 0 -157.5 -83.5t-59.5 -219.5q0 -110 61.5 -188t148.5 -78q60 0 117 35t92.5 92t35.5 117v477 q0 30 -30 30h-47v9h57q37 0 63.5 12.5t26.5 40.5v4h8v-85v-671q0 -31 5.5 -41t27.5 -10l20 1l17 1l1 -9q-62 -6 -111 -22v8q0 30 -11 90l-17 107q-23 -83 -96 -143.5t-155 -60.5q-135 0 -218 83t-83 219z" />
<glyph unicode="e" horiz-adv-x="648" d="M305 328q-31 0 -53 -20.5t-22 -49.5v-56q-18 0 -30.5 13t-12.5 31q0 29 16 52.5t43 37.5t59 14h214q8 0 8 9q0 99 -51 159.5t-135 60.5q-96 0 -155.5 -73t-59.5 -193q0 -125 63.5 -214t152.5 -89q88 0 154.5 39t99.5 108l15 -10q-36 -73 -106 -114t-163 -41 q-135 0 -218 84t-83 221q0 124 89 212t215 88q79 0 139 -29.5t93 -83.5t33 -125v-5q0 -12 -9 -20.5t-22 -8.5z" />
<glyph unicode="f" horiz-adv-x="416" d="M18 0v9h42q28 0 37 11.5t9 41.5v490h-88v27h88q-6 18 -14 60.5t-8 67.5q0 30 14 54.5t39 41t59 25.5t74 9q76 0 128 -36v44h10v-195h-18v10q0 159 -120 159q-55 0 -90.5 -31t-35.5 -81q0 -61 38 -128h159v-27h-157v-515q0 -18 -8 -26v-2h84v-9h-242z" />
<glyph unicode="g" horiz-adv-x="673" d="M325 580q-89 0 -143 -46t-54 -121q0 -89 57.5 -152.5t139.5 -63.5q92 0 148 52t56 137q0 80 -60 137t-144 57zM75 -18q0 -40 78 -66.5t197 -26.5q103 0 179 28.5t76 69.5q0 16 -10 26.5t-30 15t-41 6.5t-51 2t-48 0.5t-46 3.5t-45.5 8t-38.5 15.5t-33 25.5t-20 37.5 t-8 51.5v10q-86 20 -135 75.5t-49 134.5q0 54 36.5 99.5t100 72t137.5 26.5q148 0 226 -71q-1 10 -1 19q0 33 15 61t44 44l17 10q8 -14 8 -29q0 -20 -17 -30q-13 -7 -23 -19t-15.5 -26.5t-5.5 -30.5q0 -20 10 -37q25 -40 25 -89q0 -91 -83 -155.5t-200 -64.5q-38 0 -72 6v-6 q0 -42 33 -55.5t96 -13.5h62q40 0 67.5 -3.5t55.5 -15t42.5 -38t14.5 -66.5q0 -66 -82 -115.5t-191 -49.5q-126 0 -209.5 46t-83.5 114q0 45 36 76.5t87 31.5h20q0 -18 -13 -30.5t-32 -12.5q-33 0 -56.5 -19t-23.5 -46z" />
<glyph unicode="h" horiz-adv-x="662" d="M179 336v-274q0 -36 9 -44.5t45 -8.5h35v-9h-255v9h35q36 0 44.5 8.5t8.5 44.5v669q0 30 -30 30h-47v9h57q37 0 63.5 12.5t26.5 40.5v4h8v-175q0 -98 -18 -260h7q3 27 16 65q22 64 71.5 102t111.5 38q80 0 124 -41t44 -110v-326q-9 -21 -9 -40q0 -28 17.5 -45t46.5 -17 q26 0 42 16t16 43q0 38 -24.5 59t-62.5 26q0 15 39 15q23 -14 40 -41t17 -59q0 -40 -25.5 -64t-66.5 -24q-45 0 -76.5 38t-31.5 92v310q0 151 -98 151q-78 0 -129 -68t-51 -176z" />
<glyph unicode="i" horiz-adv-x="300" d="M134 800q20 0 32 -11.5t12 -32.5q0 -20 -11.5 -32.5t-32.5 -12.5q-20 0 -32.5 12t-12.5 33q0 20 12 32t33 12zM95 119v402q0 30 -30 30h-45v9h55q37 0 63.5 12.5t26.5 40.5v4h8v-85v-412q-9 -21 -9 -40q0 -26 19 -44t45 -18t42 16t16 43q0 15 -4 29l8 4q5 -16 5 -33 q0 -40 -25.5 -64t-66.5 -24q-44 0 -76 38t-32 92z" />
<glyph unicode="j" horiz-adv-x="268" d="M142 800q20 0 32 -11.5t12 -32.5q0 -20 -11.5 -32.5t-32.5 -12.5q-20 0 -32.5 12t-12.5 33q0 20 12 32t33 12zM184 532v-531q0 -75 -44.5 -122t-113.5 -47q-58 0 -93 34.5t-35 90.5h9q0 -48 32.5 -77.5t86.5 -29.5q80 0 80 106v565q0 30 -30 30h-47v9h57q37 0 63.5 12.5 t26.5 40.5v4h8v-85z" />
<glyph unicode="k" horiz-adv-x="608" d="M13 0v9h35q36 0 44.5 8t8.5 44v670q0 30 -30 30h-47v9h57q23 0 42 4.5t33.5 17t14.5 31.5v4h8v-85v-420q54 0 65 14l158 179q18 20 18 38q0 27 -52 27h-9v9h221v-9h-12q-84 0 -145 -69l-160 -181v-4q45 -10 77.5 -26.5t50.5 -33t29.5 -41.5t15.5 -43.5t8 -46.5 q8 -63 27 -92.5t61 -29.5q26 0 41.5 17.5t15.5 46.5q0 26 -12.5 44.5t-31.5 28t-43 12.5q0 15 39 15q23 -14 40 -41t17 -59q0 -40 -25.5 -64t-67.5 -24q-67 0 -97 40.5t-45 125.5q-5 29 -9.5 47t-16.5 41.5t-29 37t-46.5 23t-70.5 9.5h-12v-252q0 -36 9 -44t45 -8h35v-9 h-255z" />
<glyph unicode="l" horiz-adv-x="287" d="M82 122v609q0 30 -30 30h-47v9h57q23 0 42 4.5t33.5 17t14.5 31.5v4h8v-85v-619q-9 -21 -9 -40q0 -26 19 -44t45 -18t42 16t16 43q0 15 -4 29l8 4q5 -16 5 -33q0 -40 -25.5 -64t-66.5 -24q-44 0 -76 38t-32 92z" />
<glyph unicode="m" horiz-adv-x="931" d="M106 62v440q0 14 -9 23t-24 9h-4l-59 -5l-1 6l77 16q70 14 70 73v4h8v-131q0 -72 -2 -92h9q6 42 16 69q47 123 158 123q73 0 103 -35t30 -97v-60h4q1 22 10.5 52.5t14.5 40.5q52 99 148 99q67 0 108 -35t41 -98v-344q-9 -21 -9 -40q0 -28 17.5 -45t46.5 -17q26 0 42 16 t16 43q0 38 -24.5 59t-62.5 26q0 15 39 15q23 -14 40 -41t17 -59q0 -40 -25.5 -64t-66.5 -24q-45 0 -76.5 38t-31.5 92v336q0 59 -22 92t-58 33q-68 0 -110 -63.5t-42 -167.5v-287q0 -36 9 -44.5t45 -8.5h26v-9h-216v9h67v2q-9 9 -9 26v418q0 59 -22 92t-58 33 q-68 0 -110 -63.5t-42 -167.5v-287q0 -36 9 -44.5t45 -8.5h35v-9h-255v9h35q36 0 44.5 8.5t8.5 44.5z" />
<glyph unicode="n" horiz-adv-x="667" d="M18 0v9h35q19 0 28.5 1.5t15.5 7.5t7.5 15.5t1.5 28.5v440q0 14 -9 23t-24 9h-4l-59 -5l-1 6l77 16q32 6 53 25t21 48v4h8v-131q0 -87 -2 -105h7q3 27 16 65q22 64 71.5 102t111.5 38q80 0 124 -41t44 -110v-326q-9 -21 -9 -40q0 -28 17.5 -45t46.5 -17q26 0 42 16t16 43 q0 38 -24.5 59t-62.5 26q0 15 39 15q23 -14 40 -41t17 -59q0 -40 -25.5 -64t-66.5 -24q-45 0 -76.5 38t-31.5 92v310q0 151 -98 151q-78 0 -129 -68t-51 -176v-274q0 -36 9 -44.5t45 -8.5h35v-9h-255z" />
<glyph unicode="o" horiz-adv-x="737" d="M368 -8q-147 0 -237 83.5t-90 219.5q0 125 96 213.5t231 88.5q148 0 238 -83t90 -219q0 -125 -96 -214t-232 -89zM371 10q107 0 172.5 73t65.5 193q0 125 -72 214t-173 89q-106 0 -171 -73t-65 -193q0 -125 71 -214t172 -89z" />
<glyph unicode="p" horiz-adv-x="767" d="M106 502q0 14 -9 23t-24 9h-4l-59 -5l-1 6l77 16q32 6 53 25t21 48v4h8v-131q0 -81 -6 -135h6q12 92 89.5 163.5t167.5 71.5q135 0 218 -83t83 -219q0 -125 -87.5 -214t-211.5 -89q-82 0 -140 52t-58 126q0 70 53.5 119t129.5 49h20q0 -18 -13 -30.5t-32 -12.5 q-63 0 -101.5 -34.5t-38.5 -90.5q0 -66 52.5 -113t127.5 -47q95 0 153.5 83.5t58.5 219.5q0 110 -61.5 188t-148.5 78q-92 0 -168.5 -76.5t-76.5 -167.5v-433q0 -36 9 -44.5t45 -8.5h35v-9h-255v9h35q19 0 28.5 1.5t15.5 7.5t7.5 15.5t1.5 28.5v600z" />
<glyph unicode="q" horiz-adv-x="760" d="M520 150q0 56 -38.5 90.5t-101.5 34.5q-19 0 -32 12.5t-13 30.5h20q76 0 129.5 -49t53.5 -119q0 -65 -56.5 -111.5t-136.5 -46.5q-126 0 -215 89t-89 214q0 136 83 219t218 83q50 0 99 -24.5t87 -65.5t57 -90h16q15 0 25.5 9t18.5 42t8 91v104h8v-131v-653q0 -30 30 -30 h47v-9h-57q-37 0 -63.5 -12.5t-26.5 -40.5v-4h-8v85v467q0 91 -76.5 167.5t-168.5 76.5q-87 0 -148.5 -78t-61.5 -188q0 -136 59.5 -219.5t157.5 -83.5q72 0 123.5 41t51.5 99z" />
<glyph unicode="r" horiz-adv-x="456" d="M106 62v440q0 14 -9 23t-24 9h-4l-59 -5l-1 6l77 16q34 7 57.5 25.5t23.5 47.5v4h8v-131q0 -67 -8 -92v-2h8q20 92 67.5 143.5t110.5 51.5q31 0 52 -8q30 -11 30 -42q0 -18 -13 -31.5t-31 -13.5t-31.5 13.5t-13.5 31.5q0 12 7 23v1q-76 0 -122.5 -77t-46.5 -203v-231 q0 -53 54 -53h63v-8h-283v9h35q53 0 53 53z" />
<glyph unicode="s" horiz-adv-x="486" d="M246 579q-127 0 -127 -112q0 -17 8 -32t19.5 -25.5t32.5 -22.5t37.5 -19t43.5 -18q36 -15 56.5 -24t50 -27t45.5 -35t28.5 -43.5t12.5 -57.5q0 -77 -61.5 -124t-162.5 -47q-83 0 -143 49t-60 118v35q18 0 34 -14.5t16 -32.5q0 -58 44 -97.5t109 -39.5q67 0 108 37.5 t41 99.5q0 19 -9 35t-20.5 27.5t-34 24t-38.5 19.5t-46 19q-33 13 -53 22.5t-47.5 25.5t-43 32.5t-26.5 40.5t-11 52q0 72 54 112t143 40q74 0 133 -44q11 -8 16 -23l7 2q-2 8 -4 32l-3 53h10l11 -236l-18 -1l-2 42q-3 65 -41.5 111t-108.5 46z" />
<glyph unicode="t" horiz-adv-x="507" d="M472 136q0 -60 -45 -102t-108 -42q-80 0 -129 39t-49 103v418h-131v27h75q41 0 71.5 32.5t41.5 63.5t11 47v117h10v-217q0 -36 -13 -42v-1h262v-27h-249v-444q0 -44 27.5 -71t72.5 -27q56 0 95.5 37t39.5 89q0 48 -35 81.5t-85 33.5q-19 0 -32 12.5t-13 30.5h20 q67 0 115 -46.5t48 -111.5z" />
<glyph unicode="u" horiz-adv-x="609" d="M597 18v-9q-69 -3 -135 -18v8q4 27 4 57v140h-9q-15 -103 -69.5 -153.5t-129.5 -50.5q-76 0 -122.5 41.5t-46.5 109.5v378q0 30 -30 30h-47v9h57q37 0 64.5 12.5t27.5 40.5v4h8v-85v-380q0 -64 27 -103t71 -39q81 0 130 70t49 185v262q0 36 -9 44.5t-45 8.5h-17v9l155 4 v-8q-4 -24 -4 -53v-461q0 -36 9 -44.5t45 -8.5h17z" />
<glyph unicode="v" horiz-adv-x="638" d="M9 589h198v-9h-77v-2q17 -6 31 -46l177 -427q8 -19 8 -36h13q0 16 10 40l170 409q7 15 7 28q0 34 -48 34h-86v9h218v-9h-12q-22 0 -32.5 -12.5t-25.5 -49.5l-211 -523l-54 -4l-212 527q-15 38 -25.5 50t-33.5 12h-15v9z" />
<glyph unicode="w" horiz-adv-x="965" d="M473 518q-11 37 -22 49.5t-37 12.5h-23v9h224v-9h-95v-2q20 -7 31 -46l128 -427q6 -20 6 -36h14q0 16 9 39l159 411q7 18 7 29q0 32 -50 32h-38v9h170v-9h-15q-22 0 -32.5 -13.5t-22.5 -48.5l-199 -522l-56 -5l-147 492l-147 -488l-56 -4l-199 527q-15 39 -24.5 50.5 t-33.5 11.5h-15v9h144v-14q0 -19 7 -43l168 -427q6 -15 6 -36h10q0 13 7 36l123 409z" />
<glyph unicode="x" horiz-adv-x="545" d="M125 502q-24 45 -42.5 61.5t-40.5 16.5h-14v9h179v-9h-54v-2q11 -4 26 -20.5t25 -34.5l95 -178l98 160q27 44 27 55q0 20 -45 20h-35v9h177v-9h-12q-24 0 -45 -16.5t-48 -61.5l-106 -176l128 -239q21 -45 39 -61t44 -16h17v-10h-242v10h21q29 0 41 5.5t12 18.5 q0 8 -19 49l-102 190l-107 -186q-26 -45 -26 -58q0 -8 5 -12.5t14.5 -6t26.5 -1.5h34v-9h-189v9h9q33 0 56.5 16.5t49.5 61.5l116 205z" />
<glyph unicode="y" horiz-adv-x="588" d="M178 -136q85 0 113 81l17 50q5 12 5 26q0 15 -7 30l-220 467q-18 38 -28.5 50t-31.5 12h-15v9h193v-9h-72v-2q14 -5 34 -47l173 -367q7 -16 7 -42h7l143 396q7 20 7 31q0 31 -49 31h-46v9h172v-8h-6q-23 0 -34 -13t-24 -50l-206 -573q-24 -60 -59.5 -91.5t-75.5 -31.5 q-47 0 -80 34.5t-33 83.5t34 78.5t89 29.5h20q0 -19 -12.5 -31t-32.5 -12q-36 0 -58 -18t-22 -47q0 -31 28.5 -53.5t69.5 -22.5z" />
<glyph unicode="z" horiz-adv-x="520" d="M0 0v9q24 0 72 78l259 420q14 22 33.5 39.5t37.5 21.5v3h-192q-77 0 -109 -22.5t-36 -93.5l-1 -20l-7 1l11 212l7 -1l-3 -67q9 9 26 9h389v-9q-21 0 -69 -78l-259 -418q-33 -52 -48 -63v-3h226q75 0 106 21.5t35 87.5l2 37l10 -1l-12 -213l-10 1l3 57h-1q-8 -8 -24 -8 h-446z" />
<glyph unicode="{" horiz-adv-x="275" d="M20 277q7 7 19 20q40 43 53 61.5t13 37.5q0 25 -20 119.5t-20 123.5q0 63 31.5 102.5t80.5 39.5h89v-18h-53q-40 0 -62.5 -23.5t-22.5 -62.5q0 -30 23 -137.5t23 -126.5q0 -17 -24.5 -42t-59 -53t-45.5 -41q0 -1 -0.5 -2t0.5 -2q9 -10 45 -39t60 -54.5t24 -42.5 q0 -19 -23 -126t-23 -137q0 -39 22.5 -63t62.5 -24h53v-18h-89q-49 0 -80.5 39.5t-31.5 102.5q0 29 20 124t20 120q0 5 -1 10t-3 10t-4 9.5t-7.5 11t-9 11t-11.5 13.5t-13.5 15l-16.5 18t-19 20v4z" />
<glyph unicode="|" horiz-adv-x="150" d="M53 781h45v-1012h-45v1012z" />
<glyph unicode="}" horiz-adv-x="275" d="M255 277v-4q-8 -8 -19 -20l-16.5 -18t-13.5 -15t-11.5 -13.5t-9 -11t-7.5 -11t-4 -9.5t-3 -10t-1 -10q0 -25 20 -120t20 -124q0 -63 -31.5 -102.5t-80.5 -39.5h-89v18h53q40 0 62.5 24t22.5 63q0 30 -23 137t-23 126q0 17 24.5 42.5t60 54.5t44.5 39q1 1 1 2t-1 2 q-11 13 -45.5 41t-59 53t-24.5 42q0 19 23 126.5t23 137.5q0 39 -22 62.5t-63 23.5h-53v18h89q49 0 80.5 -39.5t31.5 -102.5q0 -28 -20 -122.5t-20 -120.5q0 -5 1 -9.5t2 -8.5t4 -9t5 -9t7.5 -10.5t9 -11t11.5 -13t13 -13.5t15 -16.5t17 -18.5z" />
<glyph unicode="~" horiz-adv-x="461" d="M437 408l-12 -52q-18 -73 -78 -73q-34 0 -85.5 21.5t-99 43.5t-72.5 22q-27 0 -36 -35l-13 -53l-17 4l13 53q16 67 74 67q33 0 84.5 -21.5t99.5 -43t74 -21.5q30 0 38 40l12 52z" />
<glyph unicode="&#xa1;" horiz-adv-x="230" d="M151 -14q0 -9 -35 -9q-36 0 -36 9q0 98 13 264t13 264h18q0 -98 13.5 -264t13.5 -264zM116 638q-20 0 -32.5 12t-12.5 33q0 20 12 32t33 12q20 0 32 -11.5t12 -32.5q0 -20 -11.5 -32.5t-32.5 -12.5z" />
<glyph unicode="&#xa2;" horiz-adv-x="499" d="M287 -35h-17v137q-106 6 -170.5 75.5t-64.5 180.5q0 116 64.5 187.5t170.5 73.5v135h17v-135q71 -4 119 -36q9 -7 14 -24l4 1q-5 18 -5 25l-1 33l8 1l9 -180l-17 -1l-2 33q-7 58 -43.5 92t-85.5 38v-481q60 0 98 27.5t69 76.5l15 -9q-22 -35 -44 -57.5t-57.5 -39 t-80.5 -16.5v-137zM270 120v481q-78 -2 -118.5 -61t-40.5 -169q0 -117 40.5 -181t118.5 -70z" />
<glyph unicode="&#xa3;" horiz-adv-x="545" d="M240 374h151v-27h-165v-2q14 -7 14 -32q0 -138 -23 -215q29 -7 84 -22.5t90 -24t49 -8.5q46 0 56 51l19 99l10 -3l-25 -136q-13 -73 -77 -73q-22 0 -55.5 13t-88 40t-73.5 35q-36 -87 -98 -87q-26 0 -43 19t-17 47q0 27 19.5 45.5t59.5 18.5q8 0 30 -2q12 71 12 218v19 h-99v27h99v172q0 81 43.5 131t115.5 50q86 0 134 -57v42h10v-55v-152h-18v64q0 131 -126 131q-88 0 -88 -142v-184zM153 89q-17 5 -38 5q-20 0 -34.5 -14.5t-14.5 -31.5q0 -18 10 -29.5t27 -11.5q31 0 50 82z" />
<glyph unicode="&#xa4;" horiz-adv-x="357" d="M109 383q-27 -27 -27 -68q0 -40 27 -67q29 -29 68 -29t68 29q28 28 28 67q0 40 -28 68t-68 28t-68 -28zM103 413q33 25 74 25q44 0 78 -28l52 52l18 -20l-51 -51q26 -34 26 -76q0 -41 -25 -74l49 -49l-20 -17l-47 47q-33 -29 -80 -29q-41 0 -75 26l-50 -49l-17 20l47 48 q-27 33 -27 77q0 47 29 80l-52 52l20 17z" />
<glyph unicode="&#xa5;" horiz-adv-x="575" d="M115 0v8h86q36 0 44.5 8.5t8.5 44.5v131h-129l4 17h125v83h-129l4 17h125v30l-157 302q-3 6 -10.5 20.5t-9.5 18.5t-8 12.5t-10.5 11t-11.5 5t-16 2.5h-21v8h189v-8h-62v-2q14 -5 41 -56l129 -246q11 -20 13 -32h7q1 9 13 32l120 232q15 28 15 44q0 28 -43 28h-60v8h193 v-8h-17q-15 0 -26 -8.5t-18 -20t-23 -42.5l-148 -286v-45h133l-3 -17h-130v-83h133l-3 -17h-130v-131q0 -36 8.5 -44.5t44.5 -8.5h66v-8h-337z" />
<glyph unicode="&#xa6;" horiz-adv-x="150" d="M53 373v408h45v-408h-45zM98 177v-408h-45v408h45z" />
<glyph unicode="&#xa7;" horiz-adv-x="568" d="M454 50q26 -37 26 -85q0 -72 -55 -116t-145 -44q-95 0 -151 56v-43h-10v210l18 -7v-51q0 -58 37 -102.5t106 -44.5q67 0 102.5 33.5t35.5 97.5q0 17 -4.5 32t-17 28.5t-20.5 22t-31 20.5t-31 16t-38 17.5t-35 15.5q-88 41 -117 61q-89 63 -89 169q0 43 25 89t55 66 q-26 37 -26 85q0 72 55 116.5t145 44.5q94 0 150 -56v42h10v-210l-18 7v52q0 59 -36.5 102.5t-105.5 43.5q-67 0 -102.5 -33.5t-35.5 -96.5q0 -17 4.5 -32t17 -28.5t20.5 -22t31 -20.5t31 -16t38 -17.5t35 -15.5q89 -41 118 -62q87 -62 87 -168q0 -43 -25 -89.5t-54 -66.5z M131 471q-42 -43 -42 -127q0 -23 5.5 -42t18 -35t23 -27t32 -22.5t32.5 -17t36.5 -16.5t33.5 -14q4 -2 20 -9t21 -9.5t19.5 -9t21 -10t18.5 -10t19.5 -12t17 -12t17 -13.5t14.5 -14q41 42 41 126q0 23 -5 42t-18 35t-23 26.5t-32 22.5t-32.5 17.5t-36.5 16.5t-33 14 q-3 2 -10 5q-108 48 -147 84z" />
<glyph unicode="&#xa8;" horiz-adv-x="363" d="M35 599q0 26 12 38q11 11 37 11q27 0 38 -11t11 -38q0 -26 -11 -37q-10 -12 -38 -12q-25 0 -37 12t-12 37zM231 599q0 27 11 38t38 11q26 0 37 -11t11 -38q0 -26 -11 -37q-10 -12 -37 -12q-26 0 -38 12q-11 11 -11 37z" />
<glyph unicode="&#xa9;" horiz-adv-x="536" d="M269 275q-100 0 -171 66t-71 160q0 91 69 158.5t173 67.5q98 0 169.5 -64.5t71.5 -161.5q0 -98 -72 -162t-169 -64zM269 293q98 0 161 62.5t63 145.5q0 88 -66.5 148t-157.5 60q-94 0 -159.5 -60.5t-65.5 -147.5q0 -83 63 -145.5t162 -62.5zM373 433q-29 -55 -93 -55 q-52 0 -86 34t-34 89q0 56 32 91t82 35q35 0 65 -19q5 -4 7 -12l2 1l-2 4q-1 4 -1 8l-1 21l9 1l4 -80h-13v1q-4 30 -23.5 45.5t-46.5 15.5q-75 0 -75 -106q0 -116 84 -116q51 0 78 47z" />
<glyph unicode="&#xaa;" horiz-adv-x="447" d="M314 574h-65q-77 0 -112.5 -27.5t-35.5 -86.5q0 -84 74 -84q53 0 96 48.5t43 137.5v12zM314 592v33q0 112 -90 112q-115 0 -115 -84v-24q-49 0 -49 42v40q13 0 39 16q47 28 124 28q76 0 115.5 -36.5t39.5 -106.5v-188q0 -29 5 -37.5t24 -8.5q2 0 8 0.5t10 0.5l16 1v-9 q-54 -6 -99 -20v7q0 23 -4.5 75.5t-4.5 64.5h-9q-19 -76 -62.5 -111t-97.5 -35q-64 0 -99 28.5t-35 79.5q0 59 57.5 95.5t156.5 36.5h70z" />
<glyph unicode="&#xab;" horiz-adv-x="452" d="M201 229v3l181 184l35 -37l-113 -98q-46 -44 -65 -48v-4q19 -4 65 -48l113 -99l-35 -36zM35 229v3l182 184l35 -37l-114 -98q-46 -44 -64 -48v-4q18 -4 64 -48l114 -99l-35 -36z" />
<glyph unicode="&#xac;" horiz-adv-x="372" d="M346 328v-201l-26 2v173h-293l1 26h318z" />
<glyph unicode="&#xad;" horiz-adv-x="238" d="M216 275h-198l4 27h199z" />
<glyph unicode="&#xae;" horiz-adv-x="536" d="M220 631v-1q8 -8 8 -23v-109h32q72 0 72 67q0 66 -72 66h-40zM162 642h94q50 0 81 -21t31 -56q0 -29 -21 -50.5t-61 -26.5v-2q22 -6 39 -31l23 -35q19 -28 25 -31q3 -1 6 -1h4l13 3l1 -8q-36 -8 -39 -8q-11 0 -19.5 7.5t-22.5 28.5l-27 41q-13 19 -22 27t-23 8h-16v-76 q0 -17 4 -20.5t20 -3.5h4v-8h-97v8h13q16 0 20 3.5t4 20.5v199q0 16 -4 20t-20 4h-10v8zM269 709q-94 0 -159.5 -60.5t-65.5 -147.5q0 -83 63 -145.5t162 -62.5q97 0 160.5 62t63.5 146q0 87 -66 147.5t-158 60.5zM269 727q98 0 169.5 -64.5t71.5 -161.5q0 -98 -72 -162 t-169 -64q-100 0 -171 66t-71 160q0 91 69 158.5t173 67.5z" />
<glyph unicode="&#xaf;" horiz-adv-x="363" d="M324 577h-289l5 27h288z" />
<glyph unicode="&#xb0;" horiz-adv-x="230" d="M106 746q-44 0 -44 -71t44 -71q45 0 45 71t-45 71zM106 763q32 0 61 -27q28 -27 28 -61q0 -35 -28 -62q-29 -27 -61 -27q-30 0 -60 28q-28 27 -28 61t28 61t60 27z" />
<glyph unicode="&#xb1;" horiz-adv-x="452" d="M241 417h178l-2 -26h-176v-175l-26 2v173h-180l2 26h178v182l26 -2v-180zM411 115h-373l4 27h373z" />
<glyph unicode="&#xb2;" horiz-adv-x="377" d="M72 716h-18v104q6 0 10 2q47 37 114 37q70 0 112.5 -33t42.5 -87q0 -31 -27 -74t-68 -79l-134 -118q-11 -9 -28 -15l2 -6q12 2 44 2h165q53 0 57 52l4 50l10 -1l-12 -148h-311v43q29 4 64 42l107 117q74 80 74 142q0 46 -26 71t-74 25q-47 0 -74 -26t-34 -63v-37z" />
<glyph unicode="&#xb3;" horiz-adv-x="378" d="M166 389q-81 2 -135 50v1v105h17v-44q9 -40 38.5 -67.5t79.5 -27.5q58 0 89 31.5t31 88.5q0 61 -27.5 95t-80.5 34h-62v10h50q46 0 71 25t25 68q0 40 -24.5 62t-70.5 22q-26 0 -44 -7t-28 -21.5t-15 -27.5t-9 -33v-21h-17v121h9v-14q0 -11 -1 -15l2 -1q8 10 18 15 q40 21 84 21q65 0 104 -27t39 -72q0 -36 -27 -63.5t-65 -34.5v-1q56 -7 91 -44.5t35 -90.5q0 -62 -49 -99.5t-128 -37.5z" />
<glyph unicode="&#xb4;" horiz-adv-x="177" d="M139 692l16 -13q5 -4 5 -10q0 -2 -4 -8l-13 -15l-106 -84l-14 12l97 117q5 5 10 5q3 0 9 -4z" />
<glyph unicode="&#xb5;" horiz-adv-x="609" d="M597 18v-9q-69 -3 -135 -18v8q4 40 4 57v16q0 13 -0.5 62t-0.5 58v4h-8q-15 -103 -69.5 -153.5t-129.5 -50.5q-52 0 -91 19t-59 55l-4 -2q3 -9 3 -23v-133q0 -29 28 -29q18 0 30 -13t12 -31t-13 -31t-31 -13t-31 13t-13 31v816q0 30 -30 30h-47v9h57q37 0 64.5 12.5 t27.5 40.5v4h8v-85v-510q0 -68 26.5 -105t71.5 -37q81 0 130 70t49 185v392q0 36 -9 44.5t-45 8.5h-17v9l155 4v-8q-4 -40 -4 -53v-591q0 -36 9 -44.5t45 -8.5h17z" />
<glyph unicode="&#xb6;" horiz-adv-x="514" d="M355 -190v826q0 42 -8.5 52t-44.5 10t-44.5 -10t-8.5 -52v-826h-143v9q48 0 59.5 10.5t11.5 52.5v559h-21q-57 0 -97.5 40.5t-40.5 97.5q0 58 40.5 98.5t97.5 40.5h341v-9q-48 0 -59.5 -10t-11.5 -52v-765q0 -42 11.5 -52.5t59.5 -10.5v-9h-142zM177 700h-21 q-50 0 -85 -35.5t-35 -85.5t35 -85t85 -35h21v241z" />
<glyph unicode="&#xb7;" horiz-adv-x="195" d="M98 275q20 0 32 -12t12 -33q0 -20 -11.5 -32t-32.5 -12q-20 0 -32.5 11.5t-12.5 32.5q0 20 12 32.5t33 12.5z" />
<glyph unicode="&#xb8;" horiz-adv-x="372" d="M163 1l-13 -63q16 7 34 7q40 0 63 -22t23 -54q0 -41 -46 -68.5t-112 -27.5l3 18q45 0 76 25t31 63q0 21 -10.5 35t-28.5 14q-29 0 -42 -12l-13 2l17 84z" />
<glyph unicode="&#xb9;" horiz-adv-x="209" d="M18 402v10h21q29 0 36 6.5t7 34.5v289q0 29 2 38l-4 1q-7 -9 -19 -20l-31 -29l-7 6q30 30 54 60t34 46t10 19h14v-410q0 -28 7 -34.5t35 -6.5h15v-10h-174z" />
<glyph unicode="&#xba;" horiz-adv-x="431" d="M338 527q0 102 -32 156t-93 54q-58 0 -88.5 -39t-30.5 -114q0 -102 32 -155.5t92 -53.5q58 0 89 39t31 113zM396 556q0 -90 -49.5 -144.5t-130.5 -54.5t-131 54.5t-50 144.5t50 144.5t131 54.5t130.5 -54.5t49.5 -144.5z" />
<glyph unicode="&#xbb;" horiz-adv-x="452" d="M252 229l-181 -183l-36 36l114 99q46 44 64 48v4q-18 4 -64 48l-114 98l36 37l181 -184v-3zM417 229l-181 -183l-35 36l114 99q46 44 64 48v4q-18 4 -64 48l-114 98l35 37l181 -184v-3z" />
<glyph unicode="&#xbf;" horiz-adv-x="403" d="M236 638q-20 0 -32 12t-12 33q0 20 11.5 32t32.5 12q20 0 32.5 -11.5t12.5 -32.5q0 -19 -13 -32t-32 -13zM353 171h18v-192h-10v39q-55 -44 -131 -46q-89 0 -143.5 44t-54.5 116q0 36 19.5 71.5t48 63.5t56.5 54.5t47.5 53.5t19.5 50v89h27v-89q0 -31 -14.5 -62.5 t-35.5 -59t-42 -54.5t-35.5 -57.5t-14.5 -59.5q0 -133 121 -133q34 0 57.5 10.5t36.5 31t19 40t11 49.5v41z" />
<glyph unicode="&#xc0;" horiz-adv-x="758" d="M437 757l-121 105l-24 30l16 13q5 4 10 4q6 0 10 -5l118 -139zM8 0v9h16q28 0 55 62l281 648h77v-12q0 -36 9 -58l236 -578q16 -39 26 -50.5t33 -11.5h8v-9h-191v9h77v2q-14 5 -31 47l-56 137h-396l-54 -124q-5 -12 -5 -23q0 -17 13 -28t35 -11h49v-9h-182zM160 213h381 l-170 417q-8 18 -8 40h-9q0 -12 -12 -40z" />
<glyph unicode="&#xc1;" horiz-adv-x="758" d="M343 757l-9 8l118 139q4 5 10 5q5 0 10 -4l16 -13l-24 -30zM8 0v9h16q28 0 55 62l281 648h77v-12q0 -36 9 -58l236 -578q16 -39 26 -50.5t33 -11.5h8v-9h-191v9h77v2q-14 5 -31 47l-56 137h-396l-54 -124q-5 -12 -5 -23q0 -17 13 -28t35 -11h49v-9h-182zM160 213h381 l-170 417q-8 18 -8 40h-9q0 -12 -12 -40z" />
<glyph unicode="&#xc2;" horiz-adv-x="758" d="M404 909l103 -100l-17 -20l-49 49q-49 49 -49 60h-4q0 -12 -48 -60l-49 -49l-17 20l102 100h28zM8 0v9h16q28 0 55 62l281 648h77v-12q0 -36 9 -58l236 -578q16 -39 26 -50.5t33 -11.5h8v-9h-191v9h77v2q-14 5 -31 47l-56 137h-396l-54 -124q-5 -12 -5 -23q0 -17 13 -28 t35 -11h49v-9h-182zM160 213h381l-170 417q-8 18 -8 40h-9q0 -12 -12 -40z" />
<glyph unicode="&#xc3;" horiz-adv-x="758" d="M523 861q-11 -40 -26.5 -55t-38.5 -15t-53.5 18.5t-58.5 36.5t-44 18q-22 0 -31 -33l-8 -31l-16 4l8 31q10 37 24.5 50.5t36.5 13.5t52.5 -18.5t58.5 -36.5t45 -18q25 0 35 39l8 30l16 -4zM8 0v9h16q28 0 55 62l281 648h77v-12q0 -36 9 -58l236 -578q16 -39 26 -50.5 t33 -11.5h8v-9h-191v9h77v2q-14 5 -31 47l-56 137h-396l-54 -124q-5 -12 -5 -23q0 -17 13 -28t35 -11h49v-9h-182zM160 213h381l-170 417q-8 18 -8 40h-9q0 -12 -12 -40z" />
<glyph unicode="&#xc4;" horiz-adv-x="758" d="M292 882q20 0 32.5 -11.5t12.5 -32.5q0 -20 -12 -32t-33 -12q-20 0 -32 11.5t-12 32.5q0 20 11.5 32t32.5 12zM488 882q20 0 32 -11.5t12 -32.5q0 -20 -11.5 -32t-32.5 -12q-20 0 -32.5 11.5t-12.5 32.5q0 20 12 32t33 12zM8 0v9h16q28 0 55 62l281 648h77v-12 q0 -36 9 -58l236 -578q16 -39 26 -50.5t33 -11.5h8v-9h-191v9h77v2q-14 5 -31 47l-56 137h-396l-54 -124q-5 -12 -5 -23q0 -17 13 -28t35 -11h49v-9h-182zM160 213h381l-170 417q-8 18 -8 40h-9q0 -12 -12 -40z" />
<glyph unicode="&#xc5;" horiz-adv-x="758" d="M391 871q33 0 61 -27t28 -62q0 -46 -43 -74v-1q0 -36 9 -58l236 -578q16 -39 26 -50.5t33 -11.5h8v-9h-191v9h77v2q-14 5 -31 47l-56 137h-396l-54 -124q-5 -12 -5 -23q0 -17 13 -28t35 -11h49v-9h-182v9h16q17 0 29.5 15.5t25.5 46.5l274 632q-22 12 -36 33.5t-14 45.5 q0 35 27.5 62t60.5 27zM391 844q-14 0 -28.5 -8.5t-24 -23t-9.5 -30.5q0 -15 9.5 -29.5t24 -23.5t28.5 -9t28.5 8.5t24 23t9.5 30.5q0 24 -20 43t-42 19zM160 213h381l-170 417q-8 18 -8 40h-9q0 -12 -12 -40z" />
<glyph unicode="&#xc6;" horiz-adv-x="912" d="M461 701h-74q-25 0 -40 -34l-156 -374h270v408zM373 0v9h35q36 0 44.5 8.5t8.5 44.5v213h-278l-85 -204q-5 -12 -5 -23q0 -17 13 -28t35 -11h49v-9h-182v9h16q17 0 29.5 16t25.5 46l249 595q4 11 4 26t-20 15v12h460q28 0 37 -9h1l-3 46l9 1l18 -271h-18l-4 70 q-4 79 -42 112t-112 33h-141v-1q22 -22 22 -52v-262h40q52 0 80 20.5t28 85.5v35h9v-321h-9v55q0 65 -28.5 86t-79.5 21h-40v-297q0 -30 -22 -52v-1h199q73 0 108.5 32t40.5 103l6 80h16l-17 -271l-9 1l3 46h-1q-9 -9 -37 -9h-453z" />
<glyph unicode="&#xc7;" horiz-adv-x="652" d="M35 362q0 151 102.5 258t246.5 107q108 0 183 -64q7 -7 11 -20l7 2q-2 10 -3 29l-2 73h9l9 -289l-18 -1l-3 93q-4 66 -64.5 113t-136.5 47q-113 0 -182.5 -91.5t-69.5 -240.5q0 -100 35 -184.5t96 -134t132 -49.5q73 0 135 37t87 100l17 -7q-7 -18 -17 -34.5t-22 -30.5 t-26.5 -25.5t-30.5 -20.5t-33 -16t-35.5 -11.5t-37.5 -7t-39 -2.5l-11 -54q16 7 34 7q40 0 63 -22.5t23 -53.5q0 -41 -46 -68.5t-112 -27.5l3 18q45 0 76 25t31 63q0 13 -4.5 24t-13.5 18t-21 7q-29 0 -42 -12l-13 2l15 74q-150 7 -241 107.5t-91 262.5z" />
<glyph unicode="&#xc8;" horiz-adv-x="557" d="M338 757l-121 105l-24 30l16 13q5 4 10 4q6 0 10 -5l118 -139zM341 206h-9v55q0 65 -28.5 86t-79.5 21h-40v-297q0 -30 -22 -52v-1h199q73 0 108.5 32t40.5 103l6 80h16l-17 -271l-9 1l3 46h-1q-9 -9 -37 -9h-453v9h35q36 0 44.5 8.5t8.5 44.5v595q0 36 -8.5 44.5 t-44.5 8.5h-35v9h399q28 0 37 -9h1l-3 46l9 1l18 -271h-18l-4 70q-4 79 -41.5 112t-112.5 33h-141v-1q22 -22 22 -52v-262h40q52 0 80 20.5t28 85.5v35h9v-321z" />
<glyph unicode="&#xc9;" horiz-adv-x="557" d="M229 757l-9 8l118 139q4 5 10 5q5 0 10 -4l16 -13l-24 -30zM341 206h-9v55q0 65 -28.5 86t-79.5 21h-40v-297q0 -30 -22 -52v-1h199q73 0 108.5 32t40.5 103l6 80h16l-17 -271l-9 1l3 46h-1q-9 -9 -37 -9h-453v9h35q36 0 44.5 8.5t8.5 44.5v595q0 36 -8.5 44.5t-44.5 8.5 h-35v9h399q28 0 37 -9h1l-3 46l9 1l18 -271h-18l-4 70q-4 79 -41.5 112t-112.5 33h-141v-1q22 -22 22 -52v-262h40q52 0 80 20.5t28 85.5v35h9v-321z" />
<glyph unicode="&#xca;" horiz-adv-x="557" d="M290 909l103 -100l-17 -20l-49 49q-49 49 -49 60h-4q0 -12 -48 -60l-49 -49l-17 20l102 100h28zM341 206h-9v55q0 65 -28.5 86t-79.5 21h-40v-297q0 -30 -22 -52v-1h199q73 0 108.5 32t40.5 103l6 80h16l-17 -271l-9 1l3 46h-1q-9 -9 -37 -9h-453v9h35q36 0 44.5 8.5 t8.5 44.5v595q0 36 -8.5 44.5t-44.5 8.5h-35v9h399q28 0 37 -9h1l-3 46l9 1l18 -271h-18l-4 70q-4 79 -41.5 112t-112.5 33h-141v-1q22 -22 22 -52v-262h40q52 0 80 20.5t28 85.5v35h9v-321z" />
<glyph unicode="&#xcb;" horiz-adv-x="557" d="M178 882q20 0 32.5 -11.5t12.5 -32.5q0 -20 -12 -32t-33 -12q-20 0 -32 11.5t-12 32.5q0 20 11.5 32t32.5 12zM374 882q20 0 32 -11.5t12 -32.5q0 -20 -11.5 -32t-32.5 -12q-20 0 -32.5 11.5t-12.5 32.5q0 20 12 32t33 12zM341 206h-9v55q0 65 -28.5 86t-79.5 21h-40 v-297q0 -30 -22 -52v-1h199q73 0 108.5 32t40.5 103l6 80h16l-17 -271l-9 1l3 46h-1q-9 -9 -37 -9h-453v9h35q36 0 44.5 8.5t8.5 44.5v595q0 36 -8.5 44.5t-44.5 8.5h-35v9h399q28 0 37 -9h1l-3 46l9 1l18 -271h-18l-4 70q-4 79 -41.5 112t-112.5 33h-141v-1q22 -22 22 -52 v-262h40q52 0 80 20.5t28 85.5v35h9v-321z" />
<glyph unicode="&#xcc;" horiz-adv-x="290" d="M192 757l-121 105l-24 30l16 13q5 4 10 4q6 0 10 -5l118 -139zM18 0v9h35q36 0 44.5 8t8.5 44v597q0 36 -8.5 44t-44.5 8h-35v9h255v-11h-35q-36 0 -45 -8t-9 -44v-595q0 -36 9 -44t45 -8h35v-9h-255z" />
<glyph unicode="&#xcd;" horiz-adv-x="290" d="M98 757l-9 8l118 139q4 5 10 5q5 0 10 -4l16 -13l-24 -30zM18 0v9h35q36 0 44.5 8t8.5 44v597q0 36 -8.5 44t-44.5 8h-35v9h255v-11h-35q-36 0 -45 -8t-9 -44v-595q0 -36 9 -44t45 -8h35v-9h-255z" />
<glyph unicode="&#xce;" horiz-adv-x="290" d="M159 909l103 -100l-17 -20l-49 49q-49 49 -49 60h-4q0 -12 -48 -60l-49 -49l-17 20l102 100h28zM18 0v9h35q36 0 44.5 8t8.5 44v597q0 36 -8.5 44t-44.5 8h-35v9h255v-11h-35q-36 0 -45 -8t-9 -44v-595q0 -36 9 -44t45 -8h35v-9h-255z" />
<glyph unicode="&#xcf;" horiz-adv-x="290" d="M47 882q20 0 32.5 -11.5t12.5 -32.5q0 -20 -12 -32t-33 -12q-20 0 -32 11.5t-12 32.5q0 20 11.5 32t32.5 12zM243 882q20 0 32 -11.5t12 -32.5q0 -20 -11.5 -32t-32.5 -12q-20 0 -32.5 11.5t-12.5 32.5q0 20 12 32t33 12zM18 0v9h35q36 0 44.5 8t8.5 44v597q0 36 -8.5 44 t-44.5 8h-35v9h255v-11h-35q-36 0 -45 -8t-9 -44v-595q0 -36 9 -44t45 -8h35v-9h-255z" />
<glyph unicode="&#xd0;" horiz-adv-x="723" d="M362 379l-5 -30h-173v-283q0 -30 -17 -47v-1h106q162 0 247 87.5t85 254.5q0 166 -85 253.5t-247 87.5h-106v-1q17 -17 17 -47v-274h178zM18 0v9h35q36 0 44.5 8.5t8.5 44.5v287h-71l5 30h66v269q0 38 -9 50t-44 12h-35v9h282q176 0 283.5 -98.5t107.5 -260.5 t-107.5 -261t-283.5 -99h-282z" />
<glyph unicode="&#xd1;" horiz-adv-x="578" d="M418 863q-11 -40 -26.5 -55t-38.5 -15t-53.5 18.5t-58.5 36.5t-44 18q-22 0 -31 -33l-8 -31l-16 4l8 31q10 37 24.5 50.5t36.5 13.5t52.5 -18.5t58.5 -36.5t45 -18q25 0 35 39l8 30l16 -4zM18 0v9h26q30 0 42 12t12 41v595q0 36 -9 44.5t-45 8.5h-26v9h153l274 -504 q18 -31 18 -37h6q-1 11 -1 42v427q0 34 -14.5 48.5t-49.5 14.5h-45v9h206v-9h-16q-35 0 -49.5 -14.5t-14.5 -48.5v-666h-8q0 10 -28 62l-310 563q-20 36 -20 39h-5q1 -11 1 -43v-540q0 -29 12 -41t42 -12h26v-9h-177z" />
<glyph unicode="&#xd2;" horiz-adv-x="802" d="M498 757l-121 105l-24 30l16 13q5 4 10 4q6 0 10 -5l118 -139zM402 -8q-167 0 -269 101t-102 267q0 152 108.5 259.5t262.5 107.5q166 0 267.5 -101t101.5 -266q0 -152 -108 -260t-261 -108zM405 10q126 0 202.5 91t76.5 240q0 152 -84 260t-202 108q-126 0 -203 -91 t-77 -240q0 -152 84 -260t203 -108z" />
<glyph unicode="&#xd3;" horiz-adv-x="802" d="M355 757l-9 8l118 139q4 5 10 5q5 0 10 -4l16 -13l-24 -30zM402 -8q-167 0 -269 101t-102 267q0 152 108.5 259.5t262.5 107.5q166 0 267.5 -101t101.5 -266q0 -152 -108 -260t-261 -108zM405 10q126 0 202.5 91t76.5 240q0 152 -84 260t-202 108q-126 0 -203 -91 t-77 -240q0 -152 84 -260t203 -108z" />
<glyph unicode="&#xd4;" horiz-adv-x="802" d="M416 909l103 -100l-17 -20l-49 49q-49 49 -49 60h-4q0 -12 -48 -60l-49 -49l-17 20l102 100h28zM402 -8q-167 0 -269 101t-102 267q0 152 108.5 259.5t262.5 107.5q166 0 267.5 -101t101.5 -266q0 -152 -108 -260t-261 -108zM405 10q126 0 202.5 91t76.5 240 q0 152 -84 260t-202 108q-126 0 -203 -91t-77 -240q0 -152 84 -260t203 -108z" />
<glyph unicode="&#xd5;" horiz-adv-x="802" d="M535 861q-11 -40 -26.5 -55t-38.5 -15t-53.5 18.5t-58.5 36.5t-44 18q-22 0 -31 -33l-8 -31l-16 4l8 31q10 37 24.5 50.5t36.5 13.5t52.5 -18.5t58.5 -36.5t45 -18q25 0 35 39l8 30l16 -4zM402 -8q-167 0 -269 101t-102 267q0 152 108.5 259.5t262.5 107.5 q166 0 267.5 -101t101.5 -266q0 -152 -108 -260t-261 -108zM405 10q126 0 202.5 91t76.5 240q0 152 -84 260t-202 108q-126 0 -203 -91t-77 -240q0 -152 84 -260t203 -108z" />
<glyph unicode="&#xd6;" horiz-adv-x="802" d="M304 882q20 0 32.5 -11.5t12.5 -32.5q0 -20 -12 -32t-33 -12q-20 0 -32 11.5t-12 32.5q0 20 11.5 32t32.5 12zM500 882q20 0 32 -11.5t12 -32.5q0 -20 -11.5 -32t-32.5 -12q-20 0 -32.5 11.5t-12.5 32.5q0 20 12 32t33 12zM402 -8q-167 0 -269 101t-102 267 q0 152 108.5 259.5t262.5 107.5q166 0 267.5 -101t101.5 -266q0 -152 -108 -260t-261 -108zM405 10q126 0 202.5 91t76.5 240q0 152 -84 260t-202 108q-126 0 -203 -91t-77 -240q0 -152 84 -260t203 -108z" />
<glyph unicode="&#xd7;" horiz-adv-x="375" d="M210 293l128 -125l-26 -24l-125 126l-123 -126l-24 26l124 123l-129 127l27 24l125 -128l129 131l24 -26z" />
<glyph unicode="&#xd8;" horiz-adv-x="802" d="M111 -48l-22 16l74 99q-63 48 -97.5 123.5t-34.5 169.5q0 100 49.5 184.5t135 133.5t186.5 49q124 0 214 -58l75 99l22 -16l-74 -99q31 -24 55.5 -55t41.5 -68t26 -80t9 -90q0 -100 -49.5 -184.5t-134.5 -134t-185 -49.5q-125 0 -217 59zM405 10q126 0 202.5 91t76.5 240 q0 153 -84 261l-380 -505q80 -87 185 -87zM202 118l380 505q-80 86 -184 86q-126 0 -203 -91t-77 -240q0 -152 84 -260z" />
<glyph unicode="&#xd9;" horiz-adv-x="580" d="M363 757l-121 105l-24 30l16 13q5 4 10 4q6 0 10 -5l118 -139zM18 719h255v-9h-44q-36 0 -44.5 -8.5t-8.5 -44.5v-529q0 -58 31 -88t90 -30q80 0 122.5 39.5t42.5 114.5v475q0 39 -11.5 55t-45.5 16h-37v9h195v-9h-26q-34 0 -45.5 -16t-11.5 -55v-475q0 -84 -47 -128 t-136 -44q-90 0 -144.5 47.5t-54.5 124.5v493q0 36 -9 44.5t-45 8.5h-26v9z" />
<glyph unicode="&#xda;" horiz-adv-x="580" d="M269 757l-9 8l118 139q4 5 10 5q5 0 10 -4l16 -13l-24 -30zM18 719h255v-9h-44q-36 0 -44.5 -8.5t-8.5 -44.5v-529q0 -58 31 -88t90 -30q80 0 122.5 39.5t42.5 114.5v475q0 39 -11.5 55t-45.5 16h-37v9h195v-9h-26q-34 0 -45.5 -16t-11.5 -55v-475q0 -84 -47 -128 t-136 -44q-90 0 -144.5 47.5t-54.5 124.5v493q0 36 -9 44.5t-45 8.5h-26v9z" />
<glyph unicode="&#xdb;" horiz-adv-x="580" d="M330 909l103 -100l-17 -20l-49 49q-49 49 -49 60h-4q0 -12 -48 -60l-49 -49l-17 20l102 100h28zM18 719h255v-9h-44q-36 0 -44.5 -8.5t-8.5 -44.5v-529q0 -58 31 -88t90 -30q80 0 122.5 39.5t42.5 114.5v475q0 39 -11.5 55t-45.5 16h-37v9h195v-9h-26q-34 0 -45.5 -16 t-11.5 -55v-475q0 -84 -47 -128t-136 -44q-90 0 -144.5 47.5t-54.5 124.5v493q0 36 -9 44.5t-45 8.5h-26v9z" />
<glyph unicode="&#xdc;" horiz-adv-x="580" d="M218 882q20 0 32.5 -11.5t12.5 -32.5q0 -20 -12 -32t-33 -12q-20 0 -32 11.5t-12 32.5q0 20 11.5 32t32.5 12zM414 882q20 0 32 -11.5t12 -32.5q0 -20 -11.5 -32t-32.5 -12q-20 0 -32.5 11.5t-12.5 32.5q0 20 12 32t33 12zM18 719h255v-9h-44q-36 0 -44.5 -8.5 t-8.5 -44.5v-529q0 -58 31 -88t90 -30q80 0 122.5 39.5t42.5 114.5v475q0 39 -11.5 55t-45.5 16h-37v9h195v-9h-26q-34 0 -45.5 -16t-11.5 -55v-475q0 -84 -47 -128t-136 -44q-90 0 -144.5 47.5t-54.5 124.5v493q0 36 -9 44.5t-45 8.5h-26v9z" />
<glyph unicode="&#xdd;" horiz-adv-x="575" d="M253 759l-9 8l118 139q4 5 10 5q5 0 10 -4l16 -13l-24 -30zM115 0v9h86q36 0 44.5 8.5t8.5 44.5v277l-157 302q-21 40 -33.5 55t-32.5 15h-21v8h189v-8h-62v-2q14 -5 41 -56l129 -246q11 -20 13 -32h7q1 9 13 32l120 232q15 28 15 44q0 28 -43 28h-60v8h193v-8h-17 q-20 0 -32.5 -14.5t-34.5 -56.5l-148 -286v-292q0 -36 8.5 -44.5t44.5 -8.5h74v-9h-345z" />
<glyph unicode="&#xde;" horiz-adv-x="536" d="M18 0v9h35q36 0 44.5 8.5t8.5 44.5v596q0 36 -8.5 44t-44.5 8h-35v9h255v-11h-35q-36 0 -45 -8t-9 -44v-27h76q113 0 182 -58t69 -152t-69 -151.5t-182 -57.5h-76v-148q0 -36 9 -44.5t45 -8.5h25v-9h-245zM184 228h46q95 0 144.5 49t49.5 142t-49.5 142t-144.5 49h-46 v-382z" />
<glyph unicode="&#xdf;" horiz-adv-x="552" d="M369 10q38 0 60.5 21.5t22.5 57.5q0 26 -14 53t-29.5 44.5t-44.5 45.5q-24 23 -38 38t-30.5 38t-24.5 47.5t-8 50.5q0 21 8 40.5t16.5 31t24 28.5t23.5 27.5t15.5 28.5t7.5 36q0 50 -28.5 80.5t-75.5 30.5q-87 0 -87 -102v-551q0 -34 4 -60l-153 4v9h17q36 0 45 8.5 t9 44.5v390h-63v10h63v114q0 72 50.5 111.5t115.5 39.5q67 0 109 -34.5t42 -95.5q0 -32 -15.5 -55t-44.5 -49q-18 -16 -27.5 -26t-18 -27t-8.5 -35q0 -29 25 -55t76 -63q31 -23 48.5 -37t40 -37t33 -47t10.5 -51q0 -60 -40 -91.5t-116 -31.5q-63 0 -108 37t-45 89v35 q18 0 34 -14.5t16 -32.5q0 -20 8 -37.5t22 -30.5t33 -20.5t40 -7.5z" />
<glyph unicode="&#xe0;" horiz-adv-x="617" d="M451 428q0 68 -49 109.5t-129 41.5q-72 0 -112 -37.5t-43 -98.5l-3 -62h-18l11 236h10l-3 -53q-2 -24 -4 -32l7 -2q5 15 16 23q59 44 138 44q116 0 186.5 -50t70.5 -132v-344q0 -31 5.5 -41t27.5 -10l20 1l17 1l1 -9q-59 -6 -109 -22v8q0 30 -11 90q-7 45 -8 65h-10 q-14 -56 -54 -94.5t-82 -53t-82 -14.5q-94 0 -151.5 43.5t-57.5 115.5q0 82 57 132.5t151 50.5q61 0 104.5 -33.5t43.5 -80.5q0 -19 -12.5 -32t-30.5 -13v47q0 39 -31 66.5t-74 27.5q-58 0 -93 -44.5t-35 -117.5q0 -61 39 -98t102 -37q81 0 138 60.5t57 146.5v202zM352 657 l-121 105l-24 30l16 13q5 4 10 4q6 0 10 -5l118 -139z" />
<glyph unicode="&#xe1;" horiz-adv-x="617" d="M451 428q0 68 -49 109.5t-129 41.5q-72 0 -112 -37.5t-43 -98.5l-3 -62h-18l11 236h10l-3 -53q-2 -24 -4 -32l7 -2q5 15 16 23q59 44 138 44q116 0 186.5 -50t70.5 -132v-344q0 -31 5.5 -41t27.5 -10l20 1l17 1l1 -9q-59 -6 -109 -22v8q0 30 -11 90q-7 45 -8 65h-10 q-14 -56 -54 -94.5t-82 -53t-82 -14.5q-94 0 -151.5 43.5t-57.5 115.5q0 82 57 132.5t151 50.5q61 0 104.5 -33.5t43.5 -80.5q0 -19 -12.5 -32t-30.5 -13v47q0 39 -31 66.5t-74 27.5q-58 0 -93 -44.5t-35 -117.5q0 -61 39 -98t102 -37q81 0 138 60.5t57 146.5v202zM258 657 l-9 8l118 139q4 5 10 5q5 0 10 -4l16 -13l-24 -30z" />
<glyph unicode="&#xe2;" horiz-adv-x="617" d="M451 428q0 68 -49 109.5t-129 41.5q-72 0 -112 -37.5t-43 -98.5l-3 -62h-18l11 236h10l-3 -53q-2 -24 -4 -32l7 -2q5 15 16 23q59 44 138 44q116 0 186.5 -50t70.5 -132v-344q0 -31 5.5 -41t27.5 -10l20 1l17 1l1 -9q-59 -6 -109 -22v8q0 30 -11 90q-7 45 -8 65h-10 q-14 -56 -54 -94.5t-82 -53t-82 -14.5q-94 0 -151.5 43.5t-57.5 115.5q0 82 57 132.5t151 50.5q61 0 104.5 -33.5t43.5 -80.5q0 -19 -12.5 -32t-30.5 -13v47q0 39 -31 66.5t-74 27.5q-58 0 -93 -44.5t-35 -117.5q0 -61 39 -98t102 -37q81 0 138 60.5t57 146.5v202zM314 809 l103 -100l-17 -20l-49 49q-49 49 -49 60h-4q0 -12 -48 -60l-49 -49l-17 20l102 100h28z" />
<glyph unicode="&#xe3;" horiz-adv-x="617" d="M433 761q-11 -40 -26.5 -55t-38.5 -15q-18 0 -41.5 11.5t-42 25t-39 25t-33.5 11.5q-22 0 -31 -33l-8 -31l-16 4l8 31q10 37 24.5 50.5t36.5 13.5t52.5 -18.5t58.5 -36.5t45 -18q25 0 35 39l8 30l16 -4zM451 428q0 68 -49 109.5t-129 41.5q-72 0 -112 -37.5t-43 -98.5 l-3 -62h-18l11 236h10l-3 -53q-2 -24 -4 -32l7 -2q5 15 16 23q59 44 138 44q116 0 186.5 -50t70.5 -132v-344q0 -31 5.5 -41t27.5 -10l20 1l17 1l1 -9q-59 -6 -109 -22v8q0 30 -11 90q-7 45 -8 65h-10q-14 -56 -54 -94.5t-82 -53t-82 -14.5q-94 0 -151.5 43.5t-57.5 115.5 q0 82 57 132.5t151 50.5q61 0 104.5 -33.5t43.5 -80.5q0 -19 -12.5 -32t-30.5 -13v47q0 39 -31 66.5t-74 27.5q-58 0 -93 -44.5t-35 -117.5q0 -61 39 -98t102 -37q81 0 138 60.5t57 146.5v202z" />
<glyph unicode="&#xe4;" horiz-adv-x="617" d="M202 782q20 0 32.5 -11.5t12.5 -32.5q0 -20 -12 -32t-33 -12q-20 0 -32 11.5t-12 32.5q0 20 11.5 32t32.5 12zM398 782q20 0 32 -11.5t12 -32.5q0 -20 -11.5 -32t-32.5 -12q-20 0 -32.5 11.5t-12.5 32.5q0 20 12 32t33 12zM451 428q0 68 -49 109.5t-129 41.5 q-72 0 -112 -37.5t-43 -98.5l-3 -62h-18l11 236h10l-3 -53q-2 -24 -4 -32l7 -2q5 15 16 23q59 44 138 44q116 0 186.5 -50t70.5 -132v-344q0 -31 5.5 -41t27.5 -10l20 1l17 1l1 -9q-59 -6 -109 -22v8q0 30 -11 90q-7 45 -8 65h-10q-14 -56 -54 -94.5t-82 -53t-82 -14.5 q-94 0 -151.5 43.5t-57.5 115.5q0 82 57 132.5t151 50.5q61 0 104.5 -33.5t43.5 -80.5q0 -19 -12.5 -32t-30.5 -13v47q0 39 -31 66.5t-74 27.5q-58 0 -93 -44.5t-35 -117.5q0 -61 39 -98t102 -37q81 0 138 60.5t57 146.5v202z" />
<glyph unicode="&#xe5;" horiz-adv-x="617" d="M300 800q-22 0 -42 -19t-20 -43q0 -23 20 -42.5t42 -19.5t42 19t20 43t-20 43t-42 19zM300 827q33 0 61 -27t28 -62t-28 -62t-61 -27t-60.5 27.5t-27.5 61.5q0 35 27.5 62t60.5 27zM451 428q0 68 -49 109.5t-129 41.5q-72 0 -112 -37.5t-43 -98.5l-3 -62h-18l11 236h10 l-3 -53q-2 -24 -4 -32l7 -2q5 15 16 23q59 44 138 44q116 0 186.5 -50t70.5 -132v-344q0 -31 5.5 -41t27.5 -10l20 1l17 1l1 -9q-59 -6 -109 -22v8q0 30 -11 90q-7 45 -8 65h-10q-14 -56 -54 -94.5t-82 -53t-82 -14.5q-94 0 -151.5 43.5t-57.5 115.5q0 82 57 132.5t151 50.5 q61 0 104.5 -33.5t43.5 -80.5q0 -19 -12.5 -32t-30.5 -13v47q0 39 -31 66.5t-74 27.5q-58 0 -93 -44.5t-35 -117.5q0 -61 39 -98t102 -37q81 0 138 60.5t57 146.5v202z" />
<glyph unicode="&#xe6;" horiz-adv-x="1058" d="M451 428q0 68 -49 109.5t-129 41.5q-48 0 -83 -18t-52.5 -48t-19.5 -70l-3 -62h-18l11 236h10l-3 -53q-2 -24 -4 -32l7 -2q5 15 16 23q59 44 138 44q61 0 111 -15t83 -42.5t47 -65.5q42 57 105 90t137 33q79 0 139 -29.5t93 -83.5t33 -125v-5q0 -12 -9 -20.5t-22 -8.5 l-274 3q-31 0 -53 -20.5t-22 -49.5v-56q-18 0 -30.5 13t-12.5 31q0 43 34.5 73.5t83.5 30.5h214q8 0 8 9q0 99 -51 159.5t-135 60.5q-96 0 -155.5 -73t-59.5 -193q0 -125 63.5 -214t152.5 -89q88 0 154.5 39t99.5 108l15 -10q-18 -36 -44.5 -65t-60.5 -49t-75.5 -30.5 t-88.5 -10.5q-106 0 -179.5 53t-101.5 146q-8 -64 -44.5 -110.5t-84 -67.5t-98.5 -21q-94 0 -151.5 43.5t-57.5 115.5q0 82 57 132.5t151 50.5q61 0 104.5 -33.5t43.5 -80.5q0 -19 -12.5 -32t-30.5 -13v47q0 39 -31 66.5t-74 27.5q-58 0 -93 -44.5t-35 -117.5q0 -61 39 -98 t102 -37q81 0 138 60.5t57 146.5v202z" />
<glyph unicode="&#xe7;" horiz-adv-x="638" d="M41 297q0 81 42.5 150.5t116 109.5t160.5 40q108 0 183 -64q7 -7 11 -20l7 2q-2 10 -3 29l-2 73h9l9 -289l-18 -1l-3 93q-4 66 -64.5 113t-136.5 47q-100 0 -161 -73.5t-61 -193.5q0 -125 68.5 -214t164.5 -89q73 0 135 37t87 100l17 -7q-28 -72 -93.5 -110t-147.5 -38 q-12 0 -23 1l-11 -54q16 7 34 7q40 0 63 -22.5t23 -53.5q0 -41 -46 -68.5t-112 -27.5l3 18q22 0 41.5 6.5t34 18t23 28t8.5 35.5q0 13 -4.5 24t-13.5 18t-21 7q-29 0 -42 -12l-13 2l15 75q-127 12 -203 94t-76 209z" />
<glyph unicode="&#xe8;" horiz-adv-x="648" d="M392 657l-121 105l-24 30l16 13q5 4 10 4q6 0 10 -5l118 -139zM305 328q-31 0 -53 -20.5t-22 -49.5v-56q-18 0 -30.5 13t-12.5 31q0 29 16 52.5t43 37.5t59 14h214q8 0 8 9q0 99 -51 159.5t-135 60.5q-96 0 -155.5 -73t-59.5 -193q0 -125 63.5 -214t152.5 -89 q88 0 154.5 39t99.5 108l15 -10q-36 -73 -106 -114t-163 -41q-135 0 -218 84t-83 221q0 124 89 212t215 88q79 0 139 -29.5t93 -83.5t33 -125v-5q0 -12 -9 -20.5t-22 -8.5z" />
<glyph unicode="&#xe9;" horiz-adv-x="648" d="M298 657l-9 8l118 139q4 5 10 5q5 0 10 -4l16 -13l-24 -30zM305 328q-31 0 -53 -20.5t-22 -49.5v-56q-18 0 -30.5 13t-12.5 31q0 29 16 52.5t43 37.5t59 14h214q8 0 8 9q0 99 -51 159.5t-135 60.5q-96 0 -155.5 -73t-59.5 -193q0 -125 63.5 -214t152.5 -89q88 0 154.5 39 t99.5 108l15 -10q-36 -73 -106 -114t-163 -41q-135 0 -218 84t-83 221q0 124 89 212t215 88q79 0 139 -29.5t93 -83.5t33 -125v-5q0 -12 -9 -20.5t-22 -8.5z" />
<glyph unicode="&#xea;" horiz-adv-x="648" d="M364 809l103 -100l-17 -20l-49 49q-49 49 -49 60h-4q0 -12 -48 -60l-49 -49l-17 20l102 100h28zM305 328q-31 0 -53 -20.5t-22 -49.5v-56q-18 0 -30.5 13t-12.5 31q0 29 16 52.5t43 37.5t59 14h214q8 0 8 9q0 99 -51 159.5t-135 60.5q-96 0 -155.5 -73t-59.5 -193 q0 -125 63.5 -214t152.5 -89q88 0 154.5 39t99.5 108l15 -10q-36 -73 -106 -114t-163 -41q-135 0 -218 84t-83 221q0 124 89 212t215 88q79 0 139 -29.5t93 -83.5t33 -125v-5q0 -12 -9 -20.5t-22 -8.5z" />
<glyph unicode="&#xeb;" horiz-adv-x="648" d="M247 782q20 0 32.5 -11.5t12.5 -32.5q0 -20 -12 -32t-33 -12q-20 0 -32 11.5t-12 32.5q0 20 11.5 32t32.5 12zM443 782q20 0 32 -11.5t12 -32.5q0 -20 -11.5 -32t-32.5 -12q-20 0 -32.5 11.5t-12.5 32.5q0 20 12 32t33 12zM305 328q-31 0 -53 -20.5t-22 -49.5v-56 q-18 0 -30.5 13t-12.5 31q0 29 16 52.5t43 37.5t59 14h214q8 0 8 9q0 99 -51 159.5t-135 60.5q-96 0 -155.5 -73t-59.5 -193q0 -125 63.5 -214t152.5 -89q88 0 154.5 39t99.5 108l15 -10q-36 -73 -106 -114t-163 -41q-135 0 -218 84t-83 221q0 124 89 212t215 88 q79 0 139 -29.5t93 -83.5t33 -125v-5q0 -12 -9 -20.5t-22 -8.5z" />
<glyph unicode="&#xec;" horiz-adv-x="300" d="M181 657l-121 105l-24 30l16 13q5 4 10 4q6 0 10 -5l118 -139zM95 119v402q0 30 -30 30h-45v9h55q37 0 63.5 12.5t26.5 40.5v4h8v-85v-412q-9 -21 -9 -40q0 -26 19 -44t45 -18t42 16t16 43q0 15 -4 29l8 4q5 -16 5 -33q0 -40 -25.5 -64t-66.5 -24q-44 0 -76 38t-32 92z " />
<glyph unicode="&#xed;" horiz-adv-x="300" d="M87 657l-9 8l118 139q4 5 10 5q5 0 10 -4l16 -13l-24 -30zM95 119v402q0 30 -30 30h-45v9h55q37 0 63.5 12.5t26.5 40.5v4h8v-85v-412q-9 -21 -9 -40q0 -26 19 -44t45 -18t42 16t16 43q0 15 -4 29l8 4q5 -16 5 -33q0 -40 -25.5 -64t-66.5 -24q-44 0 -76 38t-32 92z" />
<glyph unicode="&#xee;" horiz-adv-x="300" d="M148 809l103 -100l-17 -20l-49 49q-49 49 -49 60h-4q0 -12 -48 -60l-49 -49l-17 20l102 100h28zM95 119v402q0 30 -30 30h-45v9h55q37 0 63.5 12.5t26.5 40.5v4h8v-85v-412q-9 -21 -9 -40q0 -26 19 -44t45 -18t42 16t16 43q0 15 -4 29l8 4q5 -16 5 -33q0 -40 -25.5 -64 t-66.5 -24q-44 0 -76 38t-32 92z" />
<glyph unicode="&#xef;" horiz-adv-x="300" d="M47 782q20 0 32.5 -11.5t12.5 -32.5q0 -20 -12 -32t-33 -12q-20 0 -32 11.5t-12 32.5q0 20 11.5 32t32.5 12zM243 782q20 0 32 -11.5t12 -32.5q0 -20 -11.5 -32t-32.5 -12q-20 0 -32.5 11.5t-12.5 32.5q0 20 12 32t33 12zM95 119v402q0 30 -30 30h-45v9h55 q37 0 63.5 12.5t26.5 40.5v4h8v-85v-412q-9 -21 -9 -40q0 -26 19 -44t45 -18t42 16t16 43q0 15 -4 29l8 4q5 -16 5 -33q0 -40 -25.5 -64t-66.5 -24q-44 0 -76 38t-32 92z" />
<glyph unicode="&#xf0;" horiz-adv-x="678" d="M499 796l16 -21l-82 -61q61 -38 106.5 -94.5t71 -129t25.5 -150.5q0 -157 -84.5 -252.5t-222.5 -95.5q-131 0 -211.5 76.5t-80.5 201.5q0 115 85.5 196t206.5 81q48 0 82.5 -32.5t34.5 -78.5q0 -40 -30 -69t-73 -29h-20q0 18 13 30.5t32 12.5q25 0 42.5 16.5t17.5 38.5 q0 39 -30 66t-73 27q-90 0 -145.5 -66.5t-55.5 -174.5q0 -115 61 -196.5t147 -81.5q48 0 88.5 24.5t69 68.5t44 107t15.5 138q0 106 -40 196t-107 146l-109 -82l-17 21l103 77q-71 49 -153 49v18q96 0 182 -45z" />
<glyph unicode="&#xf1;" horiz-adv-x="667" d="M453 761q-11 -40 -26.5 -55t-38.5 -15t-53.5 18.5t-58.5 36.5t-44 18q-22 0 -31 -33l-8 -31l-16 4l8 31q10 37 24.5 50.5t36.5 13.5t52.5 -18.5t58.5 -36.5t45 -18q25 0 35 39l8 30l16 -4zM18 0v9h35q19 0 28.5 1.5t15.5 7.5t7.5 15.5t1.5 28.5v440q0 14 -9 23t-24 9h-4 l-59 -5l-1 6l77 16q32 6 53 25t21 48v4h8v-131q0 -87 -2 -105h7q3 27 16 65q22 64 71.5 102t111.5 38q80 0 124 -41t44 -110v-326q-9 -21 -9 -40q0 -28 17.5 -45t46.5 -17q26 0 42 16t16 43q0 38 -24.5 59t-62.5 26q0 15 39 15q23 -14 40 -41t17 -59q0 -40 -25.5 -64 t-66.5 -24q-45 0 -76.5 38t-31.5 92v310q0 151 -98 151q-78 0 -129 -68t-51 -176v-274q0 -36 9 -44.5t45 -8.5h35v-9h-255z" />
<glyph unicode="&#xf2;" horiz-adv-x="737" d="M415 657l-121 105l-24 30l16 13q5 4 10 4q6 0 10 -5l118 -139zM368 -8q-147 0 -237 83.5t-90 219.5q0 125 96 213.5t231 88.5q148 0 238 -83t90 -219q0 -125 -96 -214t-232 -89zM371 10q107 0 172.5 73t65.5 193q0 125 -72 214t-173 89q-106 0 -171 -73t-65 -193 q0 -125 71 -214t172 -89z" />
<glyph unicode="&#xf3;" horiz-adv-x="737" d="M321 657l-9 8l118 139q4 5 10 5q5 0 10 -4l16 -13l-24 -30zM368 -8q-147 0 -237 83.5t-90 219.5q0 125 96 213.5t231 88.5q148 0 238 -83t90 -219q0 -125 -96 -214t-232 -89zM371 10q107 0 172.5 73t65.5 193q0 125 -72 214t-173 89q-106 0 -171 -73t-65 -193 q0 -125 71 -214t172 -89z" />
<glyph unicode="&#xf4;" horiz-adv-x="737" d="M382 809l103 -100l-17 -20l-49 49q-49 49 -49 60h-4q0 -12 -48 -60l-49 -49l-17 20l102 100h28zM368 -8q-147 0 -237 83.5t-90 219.5q0 125 96 213.5t231 88.5q148 0 238 -83t90 -219q0 -125 -96 -214t-232 -89zM371 10q107 0 172.5 73t65.5 193q0 125 -72 214t-173 89 q-106 0 -171 -73t-65 -193q0 -125 71 -214t172 -89z" />
<glyph unicode="&#xf5;" horiz-adv-x="737" d="M501 761q-11 -40 -26.5 -55t-38.5 -15t-53.5 18.5t-58.5 36.5t-44 18q-22 0 -31 -33l-8 -31l-16 4l8 31q10 37 24.5 50.5t36.5 13.5t52.5 -18.5t58.5 -36.5t45 -18q25 0 35 39l8 30l16 -4zM368 -8q-147 0 -237 83.5t-90 219.5q0 125 96 213.5t231 88.5q148 0 238 -83 t90 -219q0 -125 -96 -214t-232 -89zM371 10q107 0 172.5 73t65.5 193q0 125 -72 214t-173 89q-106 0 -171 -73t-65 -193q0 -125 71 -214t172 -89z" />
<glyph unicode="&#xf6;" horiz-adv-x="737" d="M270 782q20 0 32.5 -11.5t12.5 -32.5q0 -20 -12 -32t-33 -12q-20 0 -32 11.5t-12 32.5q0 20 11.5 32t32.5 12zM466 782q20 0 32 -11.5t12 -32.5q0 -20 -11.5 -32t-32.5 -12q-20 0 -32.5 11.5t-12.5 32.5q0 20 12 32t33 12zM368 -8q-147 0 -237 83.5t-90 219.5 q0 125 96 213.5t231 88.5q148 0 238 -83t90 -219q0 -125 -96 -214t-232 -89zM371 10q107 0 172.5 73t65.5 193q0 125 -72 214t-173 89q-106 0 -171 -73t-65 -193q0 -125 71 -214t172 -89z" />
<glyph unicode="&#xf7;" horiz-adv-x="465" d="M235 484q20 0 32.5 -12t12.5 -33q0 -20 -12 -32t-33 -12q-20 0 -32 11.5t-12 32.5q0 20 11.5 32.5t32.5 12.5zM426 275h-391l5 36h390zM235 191q20 0 32.5 -12t12.5 -33q0 -20 -12 -32t-33 -12q-20 0 -32 11.5t-12 32.5q0 20 11.5 32.5t32.5 12.5z" />
<glyph unicode="&#xf8;" horiz-adv-x="737" d="M371 10q107 0 172.5 73t65.5 193q0 123 -69 211l-326 -406q68 -71 157 -71zM111 -48l-22 16l69 85q-56 41 -86.5 103t-30.5 139q0 82 44 151.5t119 110t164 40.5q108 0 188 -46l70 87l22 -16l-69 -86q28 -20 49.5 -45.5t36.5 -56t23 -65.5t8 -74q0 -82 -44 -152 t-119.5 -110.5t-164.5 -40.5q-108 0 -188 47zM522 508q-69 71 -158 71q-70 0 -123.5 -33t-83 -93.5t-29.5 -139.5q0 -123 69 -211z" />
<glyph unicode="&#xf9;" horiz-adv-x="609" d="M347 657l-121 105l-24 30l16 13q5 4 10 4q6 0 10 -5l118 -139zM597 18v-9q-69 -3 -135 -18v8q4 27 4 57v140h-9q-15 -103 -69.5 -153.5t-129.5 -50.5q-76 0 -122.5 41.5t-46.5 109.5v378q0 30 -30 30h-47v9h57q37 0 64.5 12.5t27.5 40.5v4h8v-85v-380q0 -64 27 -103 t71 -39q81 0 130 70t49 185v262q0 36 -9 44.5t-45 8.5h-17v9l155 4v-8q-4 -24 -4 -53v-461q0 -36 9 -44.5t45 -8.5h17z" />
<glyph unicode="&#xfa;" horiz-adv-x="609" d="M253 657l-9 8l118 139q4 5 10 5q5 0 10 -4l16 -13l-24 -30zM597 18v-9q-69 -3 -135 -18v8q4 27 4 57v140h-9q-15 -103 -69.5 -153.5t-129.5 -50.5q-76 0 -122.5 41.5t-46.5 109.5v378q0 30 -30 30h-47v9h57q37 0 64.5 12.5t27.5 40.5v4h8v-85v-380q0 -64 27 -103t71 -39 q81 0 130 70t49 185v262q0 36 -9 44.5t-45 8.5h-17v9l155 4v-8q-4 -24 -4 -53v-461q0 -36 9 -44.5t45 -8.5h17z" />
<glyph unicode="&#xfb;" horiz-adv-x="609" d="M314 809l103 -100l-17 -20l-49 49q-49 49 -49 60h-4q0 -12 -48 -60l-49 -49l-17 20l102 100h28zM597 18v-9q-69 -3 -135 -18v8q4 27 4 57v140h-9q-15 -103 -69.5 -153.5t-129.5 -50.5q-76 0 -122.5 41.5t-46.5 109.5v378q0 30 -30 30h-47v9h57q37 0 64.5 12.5t27.5 40.5 v4h8v-85v-380q0 -64 27 -103t71 -39q81 0 130 70t49 185v262q0 36 -9 44.5t-45 8.5h-17v9l155 4v-8q-4 -24 -4 -53v-461q0 -36 9 -44.5t45 -8.5h17z" />
<glyph unicode="&#xfc;" horiz-adv-x="609" d="M202 782q20 0 32.5 -11.5t12.5 -32.5q0 -20 -12 -32t-33 -12q-20 0 -32 11.5t-12 32.5q0 20 11.5 32t32.5 12zM398 782q20 0 32 -11.5t12 -32.5q0 -20 -11.5 -32t-32.5 -12q-20 0 -32.5 11.5t-12.5 32.5q0 20 12 32t33 12zM597 18v-9q-69 -3 -135 -18v8q4 27 4 57v140h-9 q-15 -103 -69.5 -153.5t-129.5 -50.5q-76 0 -122.5 41.5t-46.5 109.5v378q0 30 -30 30h-47v9h57q37 0 64.5 12.5t27.5 40.5v4h8v-85v-380q0 -64 27 -103t71 -39q81 0 130 70t49 185v262q0 36 -9 44.5t-45 8.5h-17v9l155 4v-8q-4 -24 -4 -53v-461q0 -36 9 -44.5t45 -8.5h17z " />
<glyph unicode="&#xfd;" horiz-adv-x="588" d="M273 657l-9 8l118 139q4 5 10 5q5 0 10 -4l16 -13l-24 -30zM178 -136q85 0 113 81l17 50q5 12 5 26q0 15 -7 30l-220 467q-18 38 -28.5 50t-31.5 12h-15v9h193v-9h-72v-2q14 -5 34 -47l173 -367q7 -16 7 -42h7l143 396q7 20 7 31q0 31 -49 31h-46v9h172v-8h-6 q-23 0 -34 -13t-24 -50l-206 -573q-24 -60 -59.5 -91.5t-75.5 -31.5q-47 0 -80 34.5t-33 83.5t34 78.5t89 29.5h20q0 -19 -12.5 -31t-32.5 -12q-36 0 -58 -18t-22 -47q0 -31 28.5 -53.5t69.5 -22.5z" />
<glyph unicode="&#xfe;" horiz-adv-x="750" d="M89 731q0 30 -30 30h-52v9h62q37 0 63.5 12.5t26.5 40.5v4h8v-85v-117q0 -40 -5.5 -104t-10.5 -107t-7 -52h7q12 92 89.5 163.5t167.5 71.5q135 0 218 -83t83 -219q0 -125 -87.5 -214t-211.5 -89q-82 0 -140 52t-58 126q0 70 53.5 119t129.5 49h20q0 -18 -13 -30.5 t-32 -12.5q-63 0 -101.5 -34.5t-38.5 -90.5q0 -66 52.5 -113t127.5 -47q95 0 153.5 83.5t58.5 219.5q0 110 -61.5 188t-148.5 78q-92 0 -168.5 -76.5t-76.5 -167.5v-433q0 -36 9 -44.5t45 -8.5h35v-9h-250v9h30q19 0 28.5 1.5t15.5 7.5t7.5 15.5t1.5 28.5v829z" />
</font>
</defs>
</svg>
